%TF.GenerationSoftware,KiCad,Pcbnew,10.0.3*%
%TF.CreationDate,2026-09-18T14:11:51+09:00*%
%TF.ProjectId,Business Card v2,42757369-6e65-4737-9320-436172642076,2*%
%TF.SameCoordinates,Original*%
%TF.FileFunction,Copper,L2,Bot*%
%TF.FilePolarity,Positive*%
%FSLAX46Y46*%
G04 Gerber Fmt 4.6, Leading zero omitted, Abs format (unit mm)*
G04 Created by KiCad (PCBNEW 10.0.3) date 2026-09-18 14:11:51*
%MOMM*%
%LPD*%
G01*
G04 APERTURE LIST*
%TA.AperFunction,TestPad*%
%ADD10C,1.800000*%
%TD*%
%TA.AperFunction,ViaPad*%
%ADD11C,0.450000*%
%TD*%
%TA.AperFunction,ViaPad*%
%ADD12C,1.000000*%
%TD*%
%TA.AperFunction,Conductor*%
%ADD13C,0.152000*%
%TD*%
%TA.AperFunction,Conductor*%
%ADD14C,0.500000*%
%TD*%
%TA.AperFunction,Conductor*%
%ADD15C,0.300000*%
%TD*%
%TA.AperFunction,Conductor*%
%ADD16C,1.000000*%
%TD*%
G04 APERTURE END LIST*
D10*
%TO.P,J1,1,Pin_1*%
%TO.N,GND*%
X121426000Y-78707500D03*
%TO.P,J1,2,Pin_2*%
%TO.N,VCC*%
X123966000Y-78707500D03*
%TO.P,J1,3,Pin_3*%
%TO.N,/UPDI_PAD*%
X126506000Y-78707500D03*
%TD*%
D11*
%TO.N,Net-(LED1-C)*%
X177706000Y-81807500D03*
X144706000Y-113187500D03*
X130956000Y-113187500D03*
X120434000Y-90639347D03*
X125956000Y-103437500D03*
%TO.N,Net-(LED1-A)*%
X181916000Y-91764000D03*
X130956000Y-112437500D03*
X126956000Y-103437500D03*
X125956000Y-107437500D03*
%TO.N,VCC*%
X119296000Y-85647500D03*
X123211727Y-89563227D03*
X121896000Y-94267500D03*
X124716000Y-93147500D03*
%TO.N,GND*%
X123820000Y-90790000D03*
X121466000Y-81647500D03*
X118732103Y-86283521D03*
X127846175Y-104782240D03*
%TO.N,/UPDI_PAD*%
X126974250Y-94625750D03*
X126506000Y-81607500D03*
%TO.N,Net-(LED10-A)*%
X161706000Y-81057500D03*
X124956000Y-103437500D03*
X183398727Y-91235034D03*
X142333420Y-113944920D03*
X172030009Y-113937500D03*
%TO.N,Net-(LED11-C)*%
X123956000Y-103437500D03*
X177706000Y-80307500D03*
X174076000Y-114687500D03*
X184156000Y-110457500D03*
%TO.N,Net-(LED13-C)*%
X184910000Y-110457500D03*
X122956000Y-103437500D03*
X124246999Y-107438500D03*
X161706000Y-80187500D03*
%TO.N,Net-(LED22-A)*%
X127590000Y-96250000D03*
X128496027Y-104768219D03*
D12*
%TO.N,/ANT_A*%
X116490000Y-80040000D03*
X115181001Y-77402501D03*
%TO.N,/ANT_B*%
X113771000Y-71552500D03*
X117810535Y-80059465D03*
%TD*%
%TO.N,Net-(LED1-C)*%
D13*
X120719347Y-90639347D02*
X120990000Y-90910000D01*
X125603000Y-111923000D02*
X126867500Y-113187500D01*
X130956000Y-113187500D02*
X182242500Y-113187500D01*
X125603000Y-104291283D02*
X125603000Y-107080564D01*
X125956000Y-103437500D02*
X125956000Y-103938282D01*
X120990000Y-94240000D02*
X119150000Y-96080000D01*
X125956000Y-103938282D02*
X125603000Y-104291283D01*
X182660000Y-112770000D02*
X182660000Y-82969218D01*
X125454000Y-107645436D02*
X125603000Y-107794436D01*
X182242500Y-113187500D02*
X182660000Y-112770000D01*
X120990000Y-90910000D02*
X120990000Y-94240000D01*
X119150000Y-96080000D02*
X119150000Y-96631500D01*
X119150000Y-96631500D02*
X125956000Y-103437500D01*
X125603000Y-107080564D02*
X125454000Y-107229564D01*
X125454000Y-107229564D02*
X125454000Y-107645436D01*
X182660000Y-82969218D02*
X181498282Y-81807500D01*
X120434000Y-90639347D02*
X120719347Y-90639347D01*
X181498282Y-81807500D02*
X177706000Y-81807500D01*
X126867500Y-113187500D02*
X130956000Y-113187500D01*
X125603000Y-107794436D02*
X125603000Y-111923000D01*
%TO.N,Net-(LED1-A)*%
X125956000Y-107007500D02*
X125956000Y-107437500D01*
X181916000Y-91764000D02*
X182307000Y-92155000D01*
X182307000Y-112623782D02*
X182096282Y-112834500D01*
X125956000Y-104437500D02*
X125956000Y-107007500D01*
X126956000Y-103437500D02*
X125956000Y-104437500D01*
X144498064Y-112685500D02*
X144349064Y-112834500D01*
X145062936Y-112834500D02*
X144913936Y-112685500D01*
X182096282Y-112834500D02*
X145062936Y-112834500D01*
X127043000Y-112834500D02*
X130559000Y-112834500D01*
X130559000Y-112834500D02*
X130956000Y-112437500D01*
X144913936Y-112685500D02*
X144498064Y-112685500D01*
X182307000Y-92155000D02*
X182307000Y-112623782D01*
X131353000Y-112834500D02*
X130956000Y-112437500D01*
X144349064Y-112834500D02*
X131353000Y-112834500D01*
X125956000Y-111747500D02*
X127043000Y-112834500D01*
X125956000Y-107437500D02*
X125956000Y-111747500D01*
%TO.N,VCC*%
D14*
X121896000Y-94267500D02*
X123596000Y-94267500D01*
D15*
X123966000Y-80977500D02*
X119296000Y-85647500D01*
D14*
X123211727Y-89563227D02*
X119296000Y-85647500D01*
D15*
X123966000Y-78707500D02*
X123966000Y-80977500D01*
D14*
X123596000Y-94267500D02*
X124716000Y-93147500D01*
%TO.N,GND*%
D15*
X121466000Y-81647500D02*
X118410000Y-84703500D01*
D14*
X121426000Y-81607500D02*
X121466000Y-81647500D01*
X123820000Y-90790000D02*
X123238582Y-90790000D01*
D13*
X125243000Y-92213000D02*
X125243000Y-96934680D01*
X127850000Y-99541680D02*
X127850000Y-104778415D01*
D14*
X121426000Y-78707500D02*
X121426000Y-81607500D01*
D13*
X125243000Y-96934680D02*
X127850000Y-99541680D01*
D15*
X118410000Y-84703500D02*
X118410000Y-85961418D01*
D13*
X127850000Y-104778415D02*
X127846175Y-104782240D01*
D15*
X118410000Y-85961418D02*
X118732103Y-86283521D01*
D13*
X123820000Y-90790000D02*
X125243000Y-92213000D01*
D14*
X123238582Y-90790000D02*
X118732103Y-86283521D01*
%TO.N,/UPDI_PAD*%
D13*
X126974250Y-94625750D02*
X126506000Y-94157500D01*
X126506000Y-94157500D02*
X126506000Y-81607500D01*
D14*
X126506000Y-78707500D02*
X126506000Y-81607500D01*
%TO.N,Net-(LED10-A)*%
D13*
X172427009Y-113540500D02*
X172030009Y-113937500D01*
X125230000Y-103711500D02*
X125230000Y-106954346D01*
X183013000Y-82823000D02*
X183013000Y-90849307D01*
X171782009Y-113689500D02*
X143429000Y-113689500D01*
X125101000Y-107083347D02*
X125101000Y-107791654D01*
X183013000Y-91607000D02*
X183013000Y-112916218D01*
X143280000Y-113540500D02*
X142737840Y-113540500D01*
X177746064Y-81057500D02*
X181247500Y-81057500D01*
X183398727Y-91235034D02*
X183384966Y-91235034D01*
X181247500Y-81057500D02*
X183013000Y-82823000D01*
X176610000Y-79921436D02*
X177746064Y-81057500D01*
X142737840Y-113540500D02*
X142333420Y-113944920D01*
X172030009Y-113937500D02*
X171782009Y-113689500D01*
X183384966Y-91235034D02*
X183013000Y-91607000D01*
X182388717Y-113540500D02*
X172427009Y-113540500D01*
X142078000Y-113689500D02*
X142333420Y-113944920D01*
X125101000Y-107791654D02*
X125230000Y-107920654D01*
X124956000Y-103437500D02*
X125230000Y-103711500D01*
X183013000Y-90849307D02*
X183398727Y-91235034D01*
X176610000Y-79910500D02*
X176610000Y-79921436D01*
X162853000Y-79910500D02*
X176610000Y-79910500D01*
X183013000Y-112916218D02*
X182388717Y-113540500D01*
X126739500Y-113689500D02*
X142078000Y-113689500D01*
X125230000Y-106954346D02*
X125101000Y-107083347D01*
X125230000Y-107920654D02*
X125230000Y-112180000D01*
X143429000Y-113689500D02*
X143280000Y-113540500D01*
X125230000Y-112180000D02*
X126739500Y-113689500D01*
X161706000Y-81057500D02*
X162853000Y-79910500D01*
%TO.N,Net-(LED11-C)*%
X183900727Y-90314727D02*
X183900727Y-92345273D01*
X171472573Y-114090000D02*
X142898276Y-114090000D01*
X124877000Y-112326217D02*
X124877000Y-108066872D01*
X174870000Y-113893500D02*
X174076000Y-114687500D01*
X183365999Y-111247501D02*
X183365999Y-113062435D01*
X183365999Y-113062435D02*
X182534934Y-113893500D01*
X142541356Y-114446920D02*
X142125484Y-114446920D01*
X183366000Y-92880000D02*
X183366000Y-109667500D01*
X183366000Y-89780000D02*
X183900727Y-90314727D01*
X181393717Y-80704500D02*
X183366000Y-82676783D01*
X124877000Y-106808130D02*
X124877000Y-104358500D01*
X171822073Y-114439500D02*
X171472573Y-114090000D01*
X172237945Y-114439500D02*
X171822073Y-114439500D01*
X172487445Y-114190000D02*
X172237945Y-114439500D01*
X183366000Y-82676783D02*
X183366000Y-89780000D01*
X125770000Y-113240000D02*
X125770000Y-113219218D01*
X174076000Y-114687500D02*
X173578500Y-114190000D01*
X182534934Y-113893500D02*
X174870000Y-113893500D01*
X124747999Y-106937130D02*
X124877000Y-106808130D01*
X178103000Y-80704500D02*
X181393717Y-80704500D01*
X183366000Y-109667500D02*
X184156000Y-110457500D01*
X177706000Y-80307500D02*
X178103000Y-80704500D01*
X173578500Y-114190000D02*
X172487445Y-114190000D01*
X142898276Y-114090000D02*
X142541356Y-114446920D01*
X184156000Y-110457500D02*
X183365999Y-111247501D01*
X124877000Y-108066872D02*
X124748000Y-107937871D01*
X142125484Y-114446920D02*
X141868564Y-114190000D01*
X124748000Y-107937871D02*
X124747999Y-106937130D01*
X141868564Y-114190000D02*
X126720000Y-114190000D01*
X126720000Y-114190000D02*
X125770000Y-113240000D01*
X124877000Y-104358500D02*
X123956000Y-103437500D01*
X125770000Y-113219218D02*
X124877000Y-112326217D01*
X183900727Y-92345273D02*
X183366000Y-92880000D01*
%TO.N,Net-(LED13-C)*%
X183719000Y-89633782D02*
X184253727Y-90168510D01*
X177847500Y-79557500D02*
X178641500Y-80351500D01*
X142687573Y-114799920D02*
X143044494Y-114443000D01*
X174578000Y-114895436D02*
X174578000Y-114684718D01*
X174578000Y-114684718D02*
X175016218Y-114246500D01*
X162336000Y-79557500D02*
X177847500Y-79557500D01*
X183718999Y-111648501D02*
X184910000Y-110457500D01*
X171326355Y-114443000D02*
X171675855Y-114792500D01*
X172633663Y-114543000D02*
X173432282Y-114543000D01*
X173432282Y-114543000D02*
X173574000Y-114684718D01*
X173868064Y-115189500D02*
X174283936Y-115189500D01*
X172384162Y-114792500D02*
X172633663Y-114543000D01*
X181539935Y-80351500D02*
X183719000Y-82530565D01*
X173574000Y-114684718D02*
X173574000Y-114895436D01*
X173574000Y-114895436D02*
X173868064Y-115189500D01*
X124246999Y-107438500D02*
X124246999Y-108728499D01*
X183719000Y-82530565D02*
X183719000Y-89633782D01*
X171675855Y-114792500D02*
X172384162Y-114792500D01*
X124246999Y-107438500D02*
X124394999Y-107290500D01*
X161706000Y-80187500D02*
X162336000Y-79557500D01*
X126533000Y-114543000D02*
X141722346Y-114543000D01*
X184253727Y-92491491D02*
X183719000Y-93026218D01*
X182681151Y-114246500D02*
X183718999Y-113208653D01*
X124395000Y-106790911D02*
X124524000Y-106661911D01*
X141979266Y-114799920D02*
X142687573Y-114799920D01*
X143044494Y-114443000D02*
X171326355Y-114443000D01*
X124510000Y-108991500D02*
X124510000Y-112520000D01*
X124524000Y-106661911D02*
X124524000Y-105005500D01*
X174283936Y-115189500D02*
X174578000Y-114895436D01*
X184253727Y-90168510D02*
X184253727Y-92491491D01*
X183719000Y-93026218D02*
X183719000Y-109266500D01*
X124394999Y-107290500D02*
X124395000Y-106790911D01*
X178641500Y-80351500D02*
X181539935Y-80351500D01*
X175016218Y-114246500D02*
X182681151Y-114246500D01*
X141722346Y-114543000D02*
X141979266Y-114799920D01*
X124246999Y-108728499D02*
X124510000Y-108991500D01*
X183718999Y-113208653D02*
X183718999Y-111648501D01*
X124510000Y-112520000D02*
X126533000Y-114543000D01*
X183719000Y-109266500D02*
X184910000Y-110457500D01*
X124524000Y-105005500D02*
X122956000Y-103437500D01*
%TO.N,Net-(LED22-A)*%
X128496027Y-104768219D02*
X128496027Y-97156027D01*
X128496027Y-97156027D02*
X127590000Y-96250000D01*
%TO.N,/ANT_A*%
D16*
X116490000Y-80040000D02*
X116490000Y-78711500D01*
X116490000Y-78711500D02*
X115181001Y-77402501D01*
%TO.N,/ANT_B*%
X112930000Y-72393500D02*
X113771000Y-71552500D01*
X117810535Y-78310535D02*
X112930000Y-73430000D01*
X117810535Y-80059465D02*
X117810535Y-78310535D01*
X112930000Y-73430000D02*
X112930000Y-72393500D01*
%TD*%
%TA.AperFunction,Conductor*%
%TO.N,Net-(LED10-A)*%
G36*
X161973214Y-80694433D02*
G01*
X162069066Y-80790285D01*
X162072493Y-80798558D01*
X162071380Y-80803539D01*
X161898841Y-81170258D01*
X161892218Y-81176285D01*
X161883273Y-81175864D01*
X161881796Y-81175033D01*
X161707277Y-81059520D01*
X161703979Y-81056222D01*
X161588466Y-80881703D01*
X161586757Y-80872912D01*
X161591764Y-80865489D01*
X161593237Y-80864659D01*
X161959961Y-80692118D01*
X161968905Y-80691698D01*
X161973214Y-80694433D01*
G37*
%TD.AperFunction*%
%TD*%
%TA.AperFunction,Conductor*%
%TO.N,Net-(LED1-A)*%
G36*
X182108010Y-91649764D02*
G01*
X182108841Y-91651241D01*
X182281380Y-92017960D01*
X182281801Y-92026905D01*
X182279066Y-92031214D01*
X182183214Y-92127066D01*
X182174941Y-92130493D01*
X182169960Y-92129380D01*
X181803241Y-91956841D01*
X181797214Y-91950218D01*
X181797635Y-91941273D01*
X181798466Y-91939796D01*
X181913981Y-91765274D01*
X181917274Y-91761981D01*
X182091797Y-91646465D01*
X182100587Y-91644757D01*
X182108010Y-91649764D01*
G37*
%TD.AperFunction*%
%TD*%
%TA.AperFunction,Conductor*%
%TO.N,Net-(LED11-C)*%
G36*
X124148010Y-103323264D02*
G01*
X124148841Y-103324741D01*
X124321380Y-103691460D01*
X124321801Y-103700405D01*
X124319066Y-103704714D01*
X124223214Y-103800566D01*
X124214941Y-103803993D01*
X124209960Y-103802880D01*
X123843241Y-103630341D01*
X123837214Y-103623718D01*
X123837635Y-103614773D01*
X123838466Y-103613296D01*
X123953981Y-103438774D01*
X123957274Y-103435481D01*
X124131797Y-103319965D01*
X124140587Y-103318257D01*
X124148010Y-103323264D01*
G37*
%TD.AperFunction*%
%TD*%
%TA.AperFunction,Conductor*%
%TO.N,Net-(LED11-C)*%
G36*
X177898010Y-80193264D02*
G01*
X177898841Y-80194741D01*
X178071380Y-80561460D01*
X178071801Y-80570405D01*
X178069066Y-80574714D01*
X177973214Y-80670566D01*
X177964941Y-80673993D01*
X177959960Y-80672880D01*
X177593241Y-80500341D01*
X177587214Y-80493718D01*
X177587635Y-80484773D01*
X177588466Y-80483296D01*
X177703981Y-80308774D01*
X177707274Y-80305481D01*
X177881797Y-80189965D01*
X177890587Y-80188257D01*
X177898010Y-80193264D01*
G37*
%TD.AperFunction*%
%TD*%
%TA.AperFunction,Conductor*%
%TO.N,Net-(LED1-C)*%
G36*
X144700211Y-113125689D02*
G01*
X144701677Y-113131360D01*
X144701677Y-113249936D01*
X144698250Y-113258209D01*
X144689977Y-113261636D01*
X144688260Y-113261509D01*
X144519481Y-113236463D01*
X144511800Y-113231859D01*
X144509625Y-113223173D01*
X144514229Y-113215492D01*
X144515514Y-113214663D01*
X144684306Y-113121125D01*
X144693203Y-113120114D01*
X144700211Y-113125689D01*
G37*
%TD.AperFunction*%
%TD*%
%TA.AperFunction,Conductor*%
%TO.N,Net-(LED13-C)*%
G36*
X184656039Y-110092119D02*
G01*
X185022758Y-110264658D01*
X185028785Y-110271281D01*
X185028364Y-110280226D01*
X185027533Y-110281703D01*
X184912020Y-110456222D01*
X184908722Y-110459520D01*
X184734203Y-110575033D01*
X184725412Y-110576742D01*
X184717989Y-110571735D01*
X184717158Y-110570258D01*
X184544619Y-110203539D01*
X184544198Y-110194594D01*
X184546931Y-110190287D01*
X184642786Y-110094432D01*
X184651058Y-110091006D01*
X184656039Y-110092119D01*
G37*
%TD.AperFunction*%
%TD*%
%TA.AperFunction,Conductor*%
%TO.N,Net-(LED10-A)*%
G36*
X125175464Y-103397331D02*
G01*
X125179985Y-103403226D01*
X125300668Y-103754177D01*
X125300118Y-103763115D01*
X125293409Y-103769046D01*
X125289604Y-103769682D01*
X125156508Y-103769682D01*
X125151714Y-103768655D01*
X124843585Y-103630236D01*
X124837442Y-103623720D01*
X124837706Y-103614769D01*
X124838629Y-103613097D01*
X124953292Y-103440574D01*
X124960722Y-103435582D01*
X125166690Y-103395546D01*
X125175464Y-103397331D01*
G37*
%TD.AperFunction*%
%TD*%
%TA.AperFunction,Conductor*%
%TO.N,Net-(LED13-C)*%
G36*
X161973214Y-79824433D02*
G01*
X162069066Y-79920285D01*
X162072493Y-79928558D01*
X162071380Y-79933539D01*
X161898841Y-80300258D01*
X161892218Y-80306285D01*
X161883273Y-80305864D01*
X161881796Y-80305033D01*
X161707277Y-80189520D01*
X161703979Y-80186222D01*
X161588466Y-80011703D01*
X161586757Y-80002912D01*
X161591764Y-79995489D01*
X161593237Y-79994659D01*
X161959961Y-79822118D01*
X161968905Y-79821698D01*
X161973214Y-79824433D01*
G37*
%TD.AperFunction*%
%TD*%
%TA.AperFunction,Conductor*%
%TO.N,Net-(LED22-A)*%
G36*
X128572078Y-104325969D02*
G01*
X128574813Y-104330278D01*
X128712119Y-104711592D01*
X128711698Y-104720537D01*
X128705075Y-104726564D01*
X128703444Y-104727021D01*
X128498360Y-104768744D01*
X128493695Y-104768744D01*
X128288610Y-104727021D01*
X128281186Y-104722014D01*
X128279477Y-104713224D01*
X128279931Y-104711600D01*
X128417241Y-104330277D01*
X128423268Y-104323655D01*
X128428249Y-104322542D01*
X128563805Y-104322542D01*
X128572078Y-104325969D01*
G37*
%TD.AperFunction*%
%TD*%
%TA.AperFunction,Conductor*%
%TO.N,VCC*%
G36*
X119512019Y-85233237D02*
G01*
X119710262Y-85431480D01*
X119713689Y-85439753D01*
X119711570Y-85446468D01*
X119489619Y-85763173D01*
X119482065Y-85767981D01*
X119473580Y-85766214D01*
X119297277Y-85649520D01*
X119293979Y-85646222D01*
X119177285Y-85469919D01*
X119175576Y-85461128D01*
X119180324Y-85453882D01*
X119497033Y-85231928D01*
X119505773Y-85229987D01*
X119512019Y-85233237D01*
G37*
%TD.AperFunction*%
%TD*%
%TA.AperFunction,Conductor*%
%TO.N,GND*%
G36*
X118531069Y-85867949D02*
G01*
X118847776Y-86089901D01*
X118852584Y-86097455D01*
X118850817Y-86105940D01*
X118734123Y-86282243D01*
X118730825Y-86285541D01*
X118554522Y-86402235D01*
X118545731Y-86403944D01*
X118538483Y-86399194D01*
X118316531Y-86082487D01*
X118314590Y-86073747D01*
X118317838Y-86067503D01*
X118516084Y-85869257D01*
X118524356Y-85865831D01*
X118531069Y-85867949D01*
G37*
%TD.AperFunction*%
%TD*%
%TA.AperFunction,Conductor*%
%TO.N,Net-(LED1-A)*%
G36*
X130778726Y-112319135D02*
G01*
X130780203Y-112319966D01*
X130954722Y-112435479D01*
X130958020Y-112438777D01*
X131073533Y-112613296D01*
X131075242Y-112622087D01*
X131070235Y-112629510D01*
X131068758Y-112630341D01*
X130702039Y-112802880D01*
X130693094Y-112803301D01*
X130688785Y-112800566D01*
X130592933Y-112704714D01*
X130589506Y-112696441D01*
X130590619Y-112691460D01*
X130619376Y-112630341D01*
X130763158Y-112324740D01*
X130769781Y-112318714D01*
X130778726Y-112319135D01*
G37*
%TD.AperFunction*%
%TD*%
%TA.AperFunction,Conductor*%
%TO.N,Net-(LED10-A)*%
G36*
X183144766Y-90869653D02*
G01*
X183511485Y-91042192D01*
X183517512Y-91048815D01*
X183517091Y-91057760D01*
X183516260Y-91059237D01*
X183400747Y-91233756D01*
X183397449Y-91237054D01*
X183222930Y-91352567D01*
X183214139Y-91354276D01*
X183206716Y-91349269D01*
X183205885Y-91347792D01*
X183033346Y-90981073D01*
X183032925Y-90972128D01*
X183035658Y-90967821D01*
X183131513Y-90871966D01*
X183139785Y-90868540D01*
X183144766Y-90869653D01*
G37*
%TD.AperFunction*%
%TD*%
%TA.AperFunction,Conductor*%
%TO.N,Net-(LED13-C)*%
G36*
X124454416Y-107479697D02*
G01*
X124461839Y-107484704D01*
X124463548Y-107493495D01*
X124463091Y-107495126D01*
X124325785Y-107876441D01*
X124319758Y-107883064D01*
X124314777Y-107884177D01*
X124179221Y-107884177D01*
X124170948Y-107880750D01*
X124168213Y-107876441D01*
X124030906Y-107495126D01*
X124031327Y-107486181D01*
X124037950Y-107480154D01*
X124039577Y-107479698D01*
X124244669Y-107437974D01*
X124249329Y-107437974D01*
X124454416Y-107479697D01*
G37*
%TD.AperFunction*%
%TD*%
%TA.AperFunction,Conductor*%
%TO.N,Net-(LED13-C)*%
G36*
X123148010Y-103323264D02*
G01*
X123148841Y-103324741D01*
X123321380Y-103691460D01*
X123321801Y-103700405D01*
X123319066Y-103704714D01*
X123223214Y-103800566D01*
X123214941Y-103803993D01*
X123209960Y-103802880D01*
X122843241Y-103630341D01*
X122837214Y-103623718D01*
X122837635Y-103614773D01*
X122838466Y-103613296D01*
X122953981Y-103438774D01*
X122957274Y-103435481D01*
X123131797Y-103319965D01*
X123140587Y-103318257D01*
X123148010Y-103323264D01*
G37*
%TD.AperFunction*%
%TD*%
%TA.AperFunction,Conductor*%
%TO.N,Net-(LED10-A)*%
G36*
X183221438Y-91116618D02*
G01*
X183222687Y-91117339D01*
X183397449Y-91233013D01*
X183400747Y-91236311D01*
X183516098Y-91410585D01*
X183517807Y-91419376D01*
X183512800Y-91426799D01*
X183511097Y-91427733D01*
X183137790Y-91593768D01*
X183128838Y-91593999D01*
X183124762Y-91591351D01*
X183028914Y-91495503D01*
X183025487Y-91487230D01*
X183026710Y-91482021D01*
X183054164Y-91426799D01*
X183205752Y-91121885D01*
X183212504Y-91116004D01*
X183221438Y-91116618D01*
G37*
%TD.AperFunction*%
%TD*%
%TA.AperFunction,Conductor*%
%TO.N,Net-(LED1-C)*%
G36*
X120568352Y-90459329D02*
G01*
X120568844Y-90459680D01*
X120875707Y-90690877D01*
X120880252Y-90698592D01*
X120878011Y-90707261D01*
X120876939Y-90708494D01*
X120781578Y-90803855D01*
X120775354Y-90807101D01*
X120489155Y-90858020D01*
X120480410Y-90856095D01*
X120475636Y-90848812D01*
X120434259Y-90643435D01*
X120435985Y-90634650D01*
X120436029Y-90634583D01*
X120552110Y-90462485D01*
X120559576Y-90457544D01*
X120568352Y-90459329D01*
G37*
%TD.AperFunction*%
%TD*%
%TA.AperFunction,Conductor*%
%TO.N,Net-(LED10-A)*%
G36*
X142008483Y-113617811D02*
G01*
X142367031Y-113721275D01*
X142374030Y-113726861D01*
X142375272Y-113734748D01*
X142335353Y-113940116D01*
X142330411Y-113947584D01*
X142330344Y-113947628D01*
X142157344Y-114062608D01*
X142148557Y-114064334D01*
X142141124Y-114059340D01*
X142140411Y-114058112D01*
X141994785Y-113767976D01*
X141993542Y-113762728D01*
X141993542Y-113629053D01*
X141996969Y-113620780D01*
X142005242Y-113617353D01*
X142008483Y-113617811D01*
G37*
%TD.AperFunction*%
%TD*%
%TA.AperFunction,Conductor*%
%TO.N,Net-(LED1-C)*%
G36*
X126163417Y-103478697D02*
G01*
X126170840Y-103483704D01*
X126172549Y-103492495D01*
X126172092Y-103494126D01*
X126034786Y-103875441D01*
X126028759Y-103882064D01*
X126023778Y-103883177D01*
X125888222Y-103883177D01*
X125879949Y-103879750D01*
X125877214Y-103875441D01*
X125739907Y-103494126D01*
X125740328Y-103485181D01*
X125746951Y-103479154D01*
X125748578Y-103478698D01*
X125953670Y-103436974D01*
X125958330Y-103436974D01*
X126163417Y-103478697D01*
G37*
%TD.AperFunction*%
%TD*%
%TA.AperFunction,Conductor*%
%TO.N,Net-(LED10-A)*%
G36*
X171701773Y-113617430D02*
G01*
X172063354Y-113714005D01*
X172070463Y-113719451D01*
X172071820Y-113727541D01*
X172031942Y-113932696D01*
X172027000Y-113940164D01*
X172026933Y-113940208D01*
X171853734Y-114055320D01*
X171844947Y-114057046D01*
X171837514Y-114052052D01*
X171836898Y-114051013D01*
X171688397Y-113768053D01*
X171687057Y-113762616D01*
X171687057Y-113628735D01*
X171690484Y-113620462D01*
X171698757Y-113617035D01*
X171701773Y-113617430D01*
G37*
%TD.AperFunction*%
%TD*%
%TA.AperFunction,Conductor*%
%TO.N,Net-(LED13-C)*%
G36*
X184732726Y-110339135D02*
G01*
X184734203Y-110339966D01*
X184908722Y-110455479D01*
X184912020Y-110458777D01*
X185027533Y-110633296D01*
X185029242Y-110642087D01*
X185024235Y-110649510D01*
X185022758Y-110650341D01*
X184656039Y-110822880D01*
X184647094Y-110823301D01*
X184642785Y-110820566D01*
X184546933Y-110724714D01*
X184543506Y-110716441D01*
X184544619Y-110711460D01*
X184573376Y-110650341D01*
X184717158Y-110344740D01*
X184723781Y-110338714D01*
X184732726Y-110339135D01*
G37*
%TD.AperFunction*%
%TD*%
%TA.AperFunction,Conductor*%
%TO.N,Net-(LED11-C)*%
G36*
X173822039Y-114322119D02*
G01*
X174188758Y-114494658D01*
X174194785Y-114501281D01*
X174194364Y-114510226D01*
X174193533Y-114511703D01*
X174078020Y-114686222D01*
X174074722Y-114689520D01*
X173900203Y-114805033D01*
X173891412Y-114806742D01*
X173883989Y-114801735D01*
X173883158Y-114800258D01*
X173851613Y-114733211D01*
X173850500Y-114728230D01*
X173850500Y-114629720D01*
X173850500Y-114629719D01*
X173837361Y-114597999D01*
X173808406Y-114528093D01*
X173715037Y-114434725D01*
X173711611Y-114426453D01*
X173715037Y-114418181D01*
X173808786Y-114324432D01*
X173817058Y-114321006D01*
X173822039Y-114322119D01*
G37*
%TD.AperFunction*%
%TD*%
%TA.AperFunction,Conductor*%
%TO.N,Net-(LED13-C)*%
G36*
X124467481Y-107052843D02*
G01*
X124470908Y-107061116D01*
X124470908Y-107061206D01*
X124467784Y-107468312D01*
X124464293Y-107476558D01*
X124455994Y-107479922D01*
X124453852Y-107479707D01*
X124249331Y-107439952D01*
X124245027Y-107438171D01*
X124071584Y-107321354D01*
X124066636Y-107313890D01*
X124068416Y-107305114D01*
X124069763Y-107303461D01*
X124315560Y-107052921D01*
X124323800Y-107049417D01*
X124323908Y-107049416D01*
X124459210Y-107049416D01*
X124467481Y-107052843D01*
G37*
%TD.AperFunction*%
%TD*%
%TA.AperFunction,Conductor*%
%TO.N,Net-(LED1-A)*%
G36*
X126778726Y-103319135D02*
G01*
X126780203Y-103319966D01*
X126954722Y-103435479D01*
X126958020Y-103438777D01*
X127073533Y-103613296D01*
X127075242Y-103622087D01*
X127070235Y-103629510D01*
X127068758Y-103630341D01*
X126702039Y-103802880D01*
X126693094Y-103803301D01*
X126688785Y-103800566D01*
X126592933Y-103704714D01*
X126589506Y-103696441D01*
X126590619Y-103691460D01*
X126619376Y-103630341D01*
X126763158Y-103324740D01*
X126769781Y-103318714D01*
X126778726Y-103319135D01*
G37*
%TD.AperFunction*%
%TD*%
%TA.AperFunction,Conductor*%
%TO.N,Net-(LED11-C)*%
G36*
X174343214Y-114324433D02*
G01*
X174436961Y-114418180D01*
X174440388Y-114426453D01*
X174436961Y-114434726D01*
X174421375Y-114450313D01*
X174343594Y-114528094D01*
X174301500Y-114629716D01*
X174301500Y-114728230D01*
X174300387Y-114733211D01*
X174268841Y-114800258D01*
X174262218Y-114806285D01*
X174253273Y-114805864D01*
X174251796Y-114805033D01*
X174077277Y-114689520D01*
X174073979Y-114686222D01*
X173958466Y-114511703D01*
X173956757Y-114502912D01*
X173961764Y-114495489D01*
X173963237Y-114494659D01*
X174329961Y-114322118D01*
X174338905Y-114321698D01*
X174343214Y-114324433D01*
G37*
%TD.AperFunction*%
%TD*%
%TA.AperFunction,Conductor*%
%TO.N,Net-(LED11-C)*%
G36*
X183978726Y-110339135D02*
G01*
X183980203Y-110339966D01*
X184154722Y-110455479D01*
X184158020Y-110458777D01*
X184273533Y-110633296D01*
X184275242Y-110642087D01*
X184270235Y-110649510D01*
X184268758Y-110650341D01*
X183902039Y-110822880D01*
X183893094Y-110823301D01*
X183888785Y-110820566D01*
X183792933Y-110724714D01*
X183789506Y-110716441D01*
X183790619Y-110711460D01*
X183819376Y-110650341D01*
X183963158Y-110344740D01*
X183969781Y-110338714D01*
X183978726Y-110339135D01*
G37*
%TD.AperFunction*%
%TD*%
%TA.AperFunction,Conductor*%
%TO.N,GND*%
G36*
X121288419Y-81528785D02*
G01*
X121464722Y-81645479D01*
X121468020Y-81648777D01*
X121584714Y-81825080D01*
X121586423Y-81833871D01*
X121581673Y-81841119D01*
X121264968Y-82063070D01*
X121256226Y-82065012D01*
X121249980Y-82061762D01*
X121051737Y-81863519D01*
X121048310Y-81855246D01*
X121050427Y-81848534D01*
X121272382Y-81531824D01*
X121279934Y-81527018D01*
X121288419Y-81528785D01*
G37*
%TD.AperFunction*%
%TD*%
%TA.AperFunction,Conductor*%
%TO.N,Net-(LED10-A)*%
G36*
X142600634Y-113581853D02*
G01*
X142696486Y-113677705D01*
X142699913Y-113685978D01*
X142698800Y-113690959D01*
X142526261Y-114057678D01*
X142519638Y-114063705D01*
X142510693Y-114063284D01*
X142509216Y-114062453D01*
X142334697Y-113946940D01*
X142331399Y-113943642D01*
X142215886Y-113769123D01*
X142214177Y-113760332D01*
X142219184Y-113752909D01*
X142220657Y-113752079D01*
X142587381Y-113579538D01*
X142596325Y-113579118D01*
X142600634Y-113581853D01*
G37*
%TD.AperFunction*%
%TD*%
%TA.AperFunction,Conductor*%
%TO.N,Net-(LED10-A)*%
G36*
X172297223Y-113574433D02*
G01*
X172393075Y-113670285D01*
X172396502Y-113678558D01*
X172395389Y-113683539D01*
X172222850Y-114050258D01*
X172216227Y-114056285D01*
X172207282Y-114055864D01*
X172205805Y-114055033D01*
X172031286Y-113939520D01*
X172027988Y-113936222D01*
X171912475Y-113761703D01*
X171910766Y-113752912D01*
X171915773Y-113745489D01*
X171917246Y-113744659D01*
X172283970Y-113572118D01*
X172292914Y-113571698D01*
X172297223Y-113574433D01*
G37*
%TD.AperFunction*%
%TD*%
%TA.AperFunction,Conductor*%
%TO.N,Net-(LED1-C)*%
G36*
X125702039Y-103072119D02*
G01*
X126068758Y-103244658D01*
X126074785Y-103251281D01*
X126074364Y-103260226D01*
X126073533Y-103261703D01*
X125958020Y-103436222D01*
X125954722Y-103439520D01*
X125780203Y-103555033D01*
X125771412Y-103556742D01*
X125763989Y-103551735D01*
X125763158Y-103550258D01*
X125590619Y-103183539D01*
X125590198Y-103174594D01*
X125592931Y-103170287D01*
X125688786Y-103074432D01*
X125697058Y-103071006D01*
X125702039Y-103072119D01*
G37*
%TD.AperFunction*%
%TD*%
%TA.AperFunction,Conductor*%
%TO.N,Net-(LED1-A)*%
G36*
X131148010Y-112323264D02*
G01*
X131148841Y-112324741D01*
X131321380Y-112691460D01*
X131321801Y-112700405D01*
X131319066Y-112704714D01*
X131223214Y-112800566D01*
X131214941Y-112803993D01*
X131209960Y-112802880D01*
X130843241Y-112630341D01*
X130837214Y-112623718D01*
X130837635Y-112614773D01*
X130838466Y-112613296D01*
X130953981Y-112438774D01*
X130957274Y-112435481D01*
X131131797Y-112319965D01*
X131140587Y-112318257D01*
X131148010Y-112323264D01*
G37*
%TD.AperFunction*%
%TD*%
%TA.AperFunction,Conductor*%
%TO.N,Net-(LED1-A)*%
G36*
X126032051Y-106995250D02*
G01*
X126034786Y-106999559D01*
X126172092Y-107380873D01*
X126171671Y-107389818D01*
X126165048Y-107395845D01*
X126163417Y-107396302D01*
X125958333Y-107438025D01*
X125953668Y-107438025D01*
X125748583Y-107396302D01*
X125741159Y-107391295D01*
X125739450Y-107382505D01*
X125739904Y-107380881D01*
X125765013Y-107311150D01*
X125767742Y-107306851D01*
X125837405Y-107237189D01*
X125879500Y-107135563D01*
X125879500Y-107025565D01*
X125879500Y-107003523D01*
X125882927Y-106995250D01*
X125891200Y-106991823D01*
X126023778Y-106991823D01*
X126032051Y-106995250D01*
G37*
%TD.AperFunction*%
%TD*%
%TA.AperFunction,Conductor*%
%TO.N,Net-(LED1-A)*%
G36*
X126163417Y-107478697D02*
G01*
X126170840Y-107483704D01*
X126172549Y-107492495D01*
X126172092Y-107494126D01*
X126034786Y-107875441D01*
X126028759Y-107882064D01*
X126023778Y-107883177D01*
X125891200Y-107883177D01*
X125882927Y-107879750D01*
X125879500Y-107871477D01*
X125879500Y-107739438D01*
X125879499Y-107739434D01*
X125837405Y-107637812D01*
X125837404Y-107637810D01*
X125767746Y-107568152D01*
X125765012Y-107563845D01*
X125739907Y-107494125D01*
X125740328Y-107485181D01*
X125746951Y-107479154D01*
X125748578Y-107478698D01*
X125953670Y-107436974D01*
X125958330Y-107436974D01*
X126163417Y-107478697D01*
G37*
%TD.AperFunction*%
%TD*%
%TA.AperFunction,Conductor*%
%TO.N,GND*%
G36*
X127925977Y-104339990D02*
G01*
X127928745Y-104344392D01*
X128062413Y-104725683D01*
X128061916Y-104734624D01*
X128055243Y-104740595D01*
X128053705Y-104741019D01*
X127848508Y-104782765D01*
X127843843Y-104782765D01*
X127638871Y-104741065D01*
X127631447Y-104736058D01*
X127629738Y-104727268D01*
X127630229Y-104725544D01*
X127771175Y-104344207D01*
X127777257Y-104337635D01*
X127782149Y-104336563D01*
X127917704Y-104336563D01*
X127925977Y-104339990D01*
G37*
%TD.AperFunction*%
%TD*%
%TA.AperFunction,Conductor*%
%TO.N,Net-(LED22-A)*%
G36*
X127782010Y-96135764D02*
G01*
X127782841Y-96137241D01*
X127955380Y-96503960D01*
X127955801Y-96512905D01*
X127953066Y-96517214D01*
X127857214Y-96613066D01*
X127848941Y-96616493D01*
X127843960Y-96615380D01*
X127477241Y-96442841D01*
X127471214Y-96436218D01*
X127471635Y-96427273D01*
X127472466Y-96425796D01*
X127587981Y-96251274D01*
X127591274Y-96247981D01*
X127765797Y-96132465D01*
X127774587Y-96130757D01*
X127782010Y-96135764D01*
G37*
%TD.AperFunction*%
%TD*%
%TA.AperFunction,Conductor*%
%TO.N,/UPDI_PAD*%
G36*
X126713417Y-81648697D02*
G01*
X126720840Y-81653704D01*
X126722549Y-81662495D01*
X126722092Y-81664126D01*
X126584786Y-82045441D01*
X126578759Y-82052064D01*
X126573778Y-82053177D01*
X126438222Y-82053177D01*
X126429949Y-82049750D01*
X126427214Y-82045441D01*
X126289907Y-81664126D01*
X126290328Y-81655181D01*
X126296951Y-81649154D01*
X126298578Y-81648698D01*
X126503670Y-81606974D01*
X126508330Y-81606974D01*
X126713417Y-81648697D01*
G37*
%TD.AperFunction*%
%TD*%
%TA.AperFunction,Conductor*%
%TO.N,GND*%
G36*
X124012010Y-90675764D02*
G01*
X124012841Y-90677241D01*
X124185380Y-91043960D01*
X124185801Y-91052905D01*
X124183066Y-91057214D01*
X124087214Y-91153066D01*
X124078941Y-91156493D01*
X124073960Y-91155380D01*
X123707241Y-90982841D01*
X123701214Y-90976218D01*
X123701635Y-90967273D01*
X123702466Y-90965796D01*
X123817981Y-90791274D01*
X123821274Y-90787981D01*
X123995797Y-90672465D01*
X124004587Y-90670757D01*
X124012010Y-90675764D01*
G37*
%TD.AperFunction*%
%TD*%
%TA.AperFunction,Conductor*%
%TO.N,Net-(LED1-C)*%
G36*
X177762622Y-81591406D02*
G01*
X178143941Y-81728714D01*
X178150564Y-81734741D01*
X178151677Y-81739722D01*
X178151677Y-81875277D01*
X178148250Y-81883550D01*
X178143941Y-81886285D01*
X177762626Y-82023592D01*
X177753681Y-82023171D01*
X177747654Y-82016548D01*
X177747197Y-82014917D01*
X177721028Y-81886285D01*
X177705474Y-81809829D01*
X177705474Y-81805168D01*
X177718789Y-81739722D01*
X177747197Y-81600082D01*
X177752204Y-81592659D01*
X177760994Y-81590950D01*
X177762622Y-81591406D01*
G37*
%TD.AperFunction*%
%TD*%
%TA.AperFunction,Conductor*%
%TO.N,Net-(LED1-C)*%
G36*
X131012622Y-112971406D02*
G01*
X131144953Y-113019056D01*
X131149261Y-113021791D01*
X131196375Y-113068905D01*
X131260458Y-113095449D01*
X131297998Y-113110999D01*
X131297999Y-113110999D01*
X131298001Y-113111000D01*
X131298003Y-113111000D01*
X131389977Y-113111000D01*
X131398250Y-113114427D01*
X131401677Y-113122700D01*
X131401677Y-113255277D01*
X131398250Y-113263550D01*
X131393941Y-113266285D01*
X131012626Y-113403592D01*
X131003681Y-113403171D01*
X130997654Y-113396548D01*
X130997197Y-113394917D01*
X130971028Y-113266285D01*
X130955474Y-113189829D01*
X130955474Y-113185168D01*
X130970462Y-113111500D01*
X130997197Y-112980082D01*
X131002204Y-112972659D01*
X131010994Y-112970950D01*
X131012622Y-112971406D01*
G37*
%TD.AperFunction*%
%TD*%
%TA.AperFunction,Conductor*%
%TO.N,Net-(LED1-C)*%
G36*
X130908318Y-112971828D02*
G01*
X130914345Y-112978451D01*
X130914802Y-112980083D01*
X130956525Y-113185168D01*
X130956525Y-113189833D01*
X130914802Y-113394917D01*
X130909795Y-113402340D01*
X130901004Y-113404049D01*
X130899373Y-113403592D01*
X130518059Y-113266285D01*
X130511436Y-113260258D01*
X130510323Y-113255277D01*
X130510323Y-113122700D01*
X130513750Y-113114427D01*
X130522023Y-113111000D01*
X130613997Y-113111000D01*
X130613999Y-113111000D01*
X130715625Y-113068905D01*
X130762742Y-113021786D01*
X130767039Y-113019059D01*
X130899374Y-112971407D01*
X130908318Y-112971828D01*
G37*
%TD.AperFunction*%
%TD*%
%TA.AperFunction,Conductor*%
%TO.N,Net-(LED11-C)*%
G36*
X183902039Y-110092119D02*
G01*
X184268758Y-110264658D01*
X184274785Y-110271281D01*
X184274364Y-110280226D01*
X184273533Y-110281703D01*
X184158020Y-110456222D01*
X184154722Y-110459520D01*
X183980203Y-110575033D01*
X183971412Y-110576742D01*
X183963989Y-110571735D01*
X183963158Y-110570258D01*
X183790619Y-110203539D01*
X183790198Y-110194594D01*
X183792931Y-110190287D01*
X183888786Y-110094432D01*
X183897058Y-110091006D01*
X183902039Y-110092119D01*
G37*
%TD.AperFunction*%
%TD*%
%TA.AperFunction,Conductor*%
%TO.N,/UPDI_PAD*%
G36*
X126720289Y-94260369D02*
G01*
X127087008Y-94432908D01*
X127093035Y-94439531D01*
X127092614Y-94448476D01*
X127091783Y-94449953D01*
X126976270Y-94624472D01*
X126972972Y-94627770D01*
X126798453Y-94743283D01*
X126789662Y-94744992D01*
X126782239Y-94739985D01*
X126781408Y-94738508D01*
X126608869Y-94371789D01*
X126608448Y-94362844D01*
X126611181Y-94358537D01*
X126707036Y-94262682D01*
X126715308Y-94259256D01*
X126720289Y-94260369D01*
G37*
%TD.AperFunction*%
%TD*%
M02*
