%TF.GenerationSoftware,KiCad,Pcbnew,10.0.3*%
%TF.CreationDate,2026-09-18T14:11:52+09:00*%
%TF.ProjectId,Business Card v2,42757369-6e65-4737-9320-436172642076,2*%
%TF.SameCoordinates,Original*%
%TF.FileFunction,Soldermask,Top*%
%TF.FilePolarity,Negative*%
%FSLAX46Y46*%
G04 Gerber Fmt 4.6, Leading zero omitted, Abs format (unit mm)*
G04 Created by KiCad (PCBNEW 10.0.3) date 2026-09-18 14:11:52*
%MOMM*%
%LPD*%
G01*
G04 APERTURE LIST*
G04 Aperture macros list*
%AMRoundRect*
0 Rectangle with rounded corners*
0 $1 Rounding radius*
0 $2 $3 $4 $5 $6 $7 $8 $9 X,Y pos of 4 corners*
0 Add a 4 corners polygon primitive as box body*
4,1,4,$2,$3,$4,$5,$6,$7,$8,$9,$2,$3,0*
0 Add four circle primitives for the rounded corners*
1,1,$1+$1,$2,$3*
1,1,$1+$1,$4,$5*
1,1,$1+$1,$6,$7*
1,1,$1+$1,$8,$9*
0 Add four rect primitives between the rounded corners*
20,1,$1+$1,$2,$3,$4,$5,0*
20,1,$1+$1,$4,$5,$6,$7,0*
20,1,$1+$1,$6,$7,$8,$9,0*
20,1,$1+$1,$8,$9,$2,$3,0*%
%AMRotRect*
0 Rectangle, with rotation*
0 The origin of the aperture is its center*
0 $1 length*
0 $2 width*
0 $3 Rotation angle, in degrees counterclockwise*
0 Add horizontal line*
21,1,$1,$2,0,0,$3*%
%AMFreePoly0*
4,1,6,0.850000,-0.850000,-0.550000,-0.849833,-0.850000,-0.549808,-0.850000,0.850000,0.850000,0.850000,0.850000,-0.850000,0.850000,-0.850000,$1*%
G04 Aperture macros list end*
%ADD10C,0.000000*%
%ADD11C,0.999999*%
%ADD12R,0.650000X1.000000*%
%ADD13RoundRect,0.140000X0.021213X-0.219203X0.219203X-0.021213X-0.021213X0.219203X-0.219203X0.021213X0*%
%ADD14RoundRect,0.135000X-0.185000X0.135000X-0.185000X-0.135000X0.185000X-0.135000X0.185000X0.135000X0*%
%ADD15R,0.450000X0.250000*%
%ADD16R,0.450000X0.700000*%
%ADD17RotRect,0.200000X0.800000X225.000000*%
%ADD18RotRect,0.200000X0.800000X315.000000*%
%ADD19RotRect,0.200000X0.800000X45.000000*%
%ADD20RotRect,0.200000X0.800000X135.000000*%
%ADD21FreePoly0,225.000000*%
%ADD22RoundRect,0.140000X0.140000X0.170000X-0.140000X0.170000X-0.140000X-0.170000X0.140000X-0.170000X0*%
%ADD23R,0.800000X0.800000*%
%ADD24R,0.400000X0.600000*%
%ADD25RoundRect,0.135000X0.185000X-0.135000X0.185000X0.135000X-0.185000X0.135000X-0.185000X-0.135000X0*%
%ADD26C,1.000000*%
%ADD27R,0.400000X0.280000*%
%ADD28R,0.400000X0.220000*%
%ADD29R,0.220000X0.400000*%
%ADD30RoundRect,0.135000X-0.135000X-0.185000X0.135000X-0.185000X0.135000X0.185000X-0.135000X0.185000X0*%
G04 APERTURE END LIST*
D10*
G36*
X113796730Y-71053151D02*
G01*
X113822122Y-71055082D01*
X113847145Y-71058261D01*
X113871767Y-71062659D01*
X113895957Y-71068242D01*
X113919684Y-71074980D01*
X113942916Y-71082841D01*
X113965621Y-71091793D01*
X113987769Y-71101806D01*
X114009328Y-71112848D01*
X114030267Y-71124888D01*
X114050553Y-71137893D01*
X114070157Y-71151834D01*
X114089045Y-71166677D01*
X114107188Y-71182393D01*
X114124552Y-71198948D01*
X114141108Y-71216313D01*
X114156823Y-71234455D01*
X114171667Y-71253344D01*
X114185607Y-71272947D01*
X114198613Y-71293234D01*
X114210652Y-71314172D01*
X114221694Y-71335731D01*
X114231707Y-71357879D01*
X114240660Y-71380585D01*
X114248521Y-71403817D01*
X114255259Y-71427544D01*
X114260842Y-71451734D01*
X114265239Y-71476356D01*
X114268419Y-71501379D01*
X114270350Y-71526771D01*
X114271000Y-71552500D01*
X114270350Y-71578230D01*
X114268419Y-71603622D01*
X114265239Y-71628644D01*
X114260842Y-71653266D01*
X114255259Y-71677457D01*
X114248521Y-71701183D01*
X114240660Y-71724415D01*
X114231707Y-71747121D01*
X114221694Y-71769269D01*
X114210652Y-71790828D01*
X114198613Y-71811767D01*
X114185607Y-71832053D01*
X114171667Y-71851656D01*
X114156823Y-71870545D01*
X114141108Y-71888687D01*
X114124552Y-71906052D01*
X114107188Y-71922608D01*
X114089045Y-71938323D01*
X114070157Y-71953167D01*
X114050553Y-71967107D01*
X114030267Y-71980113D01*
X114009328Y-71992152D01*
X113987769Y-72003194D01*
X113965621Y-72013207D01*
X113942916Y-72022160D01*
X113919684Y-72030021D01*
X113895957Y-72036759D01*
X113871767Y-72042342D01*
X113847145Y-72046739D01*
X113822122Y-72049919D01*
X113796730Y-72051850D01*
X113771000Y-72052500D01*
X113745271Y-72051850D01*
X113719879Y-72049919D01*
X113694856Y-72046739D01*
X113670234Y-72042342D01*
X113646044Y-72036759D01*
X113622317Y-72030021D01*
X113599085Y-72022160D01*
X113576380Y-72013207D01*
X113554232Y-72003194D01*
X113532673Y-71992152D01*
X113511734Y-71980113D01*
X113491447Y-71967107D01*
X113471844Y-71953167D01*
X113452956Y-71938323D01*
X113434813Y-71922608D01*
X113417449Y-71906052D01*
X113400893Y-71888687D01*
X113385177Y-71870545D01*
X113370334Y-71851656D01*
X113356394Y-71832053D01*
X113343388Y-71811767D01*
X113331349Y-71790828D01*
X113320307Y-71769269D01*
X113310294Y-71747121D01*
X113301341Y-71724415D01*
X113293480Y-71701183D01*
X113286742Y-71677457D01*
X113281159Y-71653266D01*
X113276762Y-71628644D01*
X113273582Y-71603622D01*
X113271651Y-71578230D01*
X113271000Y-71552500D01*
X113271651Y-71526771D01*
X113273582Y-71501379D01*
X113276762Y-71476356D01*
X113281159Y-71451734D01*
X113286742Y-71427544D01*
X113293480Y-71403817D01*
X113301341Y-71380585D01*
X113310294Y-71357879D01*
X113320307Y-71335731D01*
X113331349Y-71314172D01*
X113343388Y-71293234D01*
X113356394Y-71272947D01*
X113370334Y-71253344D01*
X113385177Y-71234455D01*
X113400893Y-71216313D01*
X113417449Y-71198948D01*
X113434813Y-71182393D01*
X113452956Y-71166677D01*
X113471844Y-71151834D01*
X113491447Y-71137893D01*
X113511734Y-71124888D01*
X113532673Y-71112848D01*
X113554232Y-71101806D01*
X113576380Y-71091793D01*
X113599085Y-71082841D01*
X113622317Y-71074980D01*
X113646044Y-71068242D01*
X113670234Y-71062659D01*
X113694856Y-71058261D01*
X113719879Y-71055082D01*
X113745271Y-71053151D01*
X113771000Y-71052500D01*
X113796730Y-71053151D01*
G37*
G36*
X115206718Y-76903157D02*
G01*
X115232110Y-76905088D01*
X115257133Y-76908268D01*
X115281755Y-76912665D01*
X115305945Y-76918248D01*
X115329672Y-76924986D01*
X115352904Y-76932847D01*
X115375610Y-76941799D01*
X115397758Y-76951812D01*
X115419317Y-76962854D01*
X115440255Y-76974894D01*
X115460542Y-76987900D01*
X115480145Y-77001840D01*
X115499034Y-77016683D01*
X115517176Y-77032399D01*
X115534541Y-77048954D01*
X115551096Y-77066319D01*
X115566812Y-77084462D01*
X115581655Y-77103350D01*
X115595596Y-77122953D01*
X115608601Y-77143240D01*
X115620641Y-77164178D01*
X115631683Y-77185737D01*
X115641696Y-77207885D01*
X115650649Y-77230591D01*
X115658509Y-77253823D01*
X115665247Y-77277550D01*
X115670830Y-77301740D01*
X115675228Y-77326362D01*
X115678407Y-77351385D01*
X115680338Y-77376777D01*
X115680989Y-77402506D01*
X115680338Y-77428236D01*
X115678407Y-77453628D01*
X115675228Y-77478650D01*
X115670830Y-77503273D01*
X115665247Y-77527463D01*
X115658509Y-77551190D01*
X115650649Y-77574421D01*
X115641696Y-77597127D01*
X115631683Y-77619275D01*
X115620641Y-77640834D01*
X115608601Y-77661773D01*
X115595596Y-77682059D01*
X115581655Y-77701663D01*
X115566812Y-77720551D01*
X115551096Y-77738693D01*
X115534541Y-77756058D01*
X115517176Y-77772614D01*
X115499034Y-77788329D01*
X115480145Y-77803173D01*
X115460542Y-77817113D01*
X115440255Y-77830119D01*
X115419317Y-77842158D01*
X115397758Y-77853200D01*
X115375610Y-77863213D01*
X115352904Y-77872166D01*
X115329672Y-77880027D01*
X115305945Y-77886765D01*
X115281755Y-77892348D01*
X115257133Y-77896745D01*
X115232110Y-77899925D01*
X115206718Y-77901856D01*
X115180989Y-77902506D01*
X115155259Y-77901856D01*
X115129867Y-77899925D01*
X115104845Y-77896745D01*
X115080223Y-77892348D01*
X115056032Y-77886765D01*
X115032306Y-77880027D01*
X115009074Y-77872166D01*
X114986368Y-77863213D01*
X114964220Y-77853200D01*
X114942661Y-77842158D01*
X114921722Y-77830119D01*
X114901436Y-77817113D01*
X114881833Y-77803173D01*
X114862944Y-77788329D01*
X114844802Y-77772614D01*
X114827437Y-77756058D01*
X114810881Y-77738693D01*
X114795166Y-77720551D01*
X114780322Y-77701663D01*
X114766382Y-77682059D01*
X114753376Y-77661773D01*
X114741337Y-77640834D01*
X114730295Y-77619275D01*
X114720282Y-77597127D01*
X114711329Y-77574421D01*
X114703468Y-77551190D01*
X114696730Y-77527463D01*
X114691147Y-77503273D01*
X114686750Y-77478650D01*
X114683570Y-77453628D01*
X114681639Y-77428236D01*
X114680989Y-77402506D01*
X114681639Y-77376777D01*
X114683570Y-77351385D01*
X114686750Y-77326362D01*
X114691147Y-77301740D01*
X114696730Y-77277550D01*
X114703468Y-77253823D01*
X114711329Y-77230591D01*
X114720282Y-77207885D01*
X114730295Y-77185737D01*
X114741337Y-77164178D01*
X114753376Y-77143240D01*
X114766382Y-77122953D01*
X114780322Y-77103350D01*
X114795166Y-77084462D01*
X114810881Y-77066319D01*
X114827437Y-77048954D01*
X114844802Y-77032399D01*
X114862944Y-77016683D01*
X114881833Y-77001840D01*
X114901436Y-76987900D01*
X114921722Y-76974894D01*
X114942661Y-76962854D01*
X114964220Y-76951812D01*
X114986368Y-76941799D01*
X115009074Y-76932847D01*
X115032306Y-76924986D01*
X115056032Y-76918248D01*
X115080223Y-76912665D01*
X115104845Y-76908268D01*
X115129867Y-76905088D01*
X115155259Y-76903157D01*
X115180989Y-76902506D01*
X115206718Y-76903157D01*
G37*
D11*
X110680989Y-118902506D02*
X110680989Y-77402506D01*
X110680989Y-118902506D02*
X110681029Y-118921489D01*
X110681149Y-118940471D01*
X110681349Y-118959451D01*
X110681629Y-118978429D01*
X110681989Y-118997404D01*
X110682428Y-119016377D01*
X110682948Y-119035347D01*
X110683547Y-119054314D01*
X110684227Y-119073277D01*
X110684986Y-119092236D01*
X110685825Y-119111191D01*
X110686745Y-119130141D01*
X110687743Y-119149087D01*
X110688822Y-119168028D01*
X110689981Y-119186964D01*
X110691219Y-119205894D01*
X110692537Y-119224818D01*
X110693935Y-119243735D01*
X110695412Y-119262647D01*
X110696970Y-119281551D01*
X110698606Y-119300449D01*
X110700323Y-119319339D01*
X110702119Y-119338221D01*
X110703995Y-119357096D01*
X110705950Y-119375962D01*
X110707985Y-119394819D01*
X110710099Y-119413668D01*
X110712293Y-119432507D01*
X110714566Y-119451337D01*
X110716918Y-119470157D01*
X110719350Y-119488967D01*
X110721861Y-119507766D01*
X110724451Y-119526555D01*
X110727121Y-119545332D01*
X110729869Y-119564098D01*
X110732697Y-119582853D01*
X110735604Y-119601595D01*
X110738590Y-119620325D01*
X110741655Y-119639042D01*
X110744798Y-119657746D01*
X110748021Y-119676437D01*
X110751323Y-119695115D01*
X110754703Y-119713778D01*
X110758162Y-119732427D01*
X110761699Y-119751062D01*
X110765315Y-119769682D01*
X110769010Y-119788286D01*
X110772783Y-119806875D01*
X110776635Y-119825448D01*
X110780564Y-119844005D01*
X110784572Y-119862545D01*
X110788659Y-119881069D01*
X110792823Y-119899575D01*
X110797066Y-119918064D01*
X110801386Y-119936535D01*
X110805784Y-119954988D01*
X110810261Y-119973423D01*
X110814815Y-119991838D01*
X110819446Y-120010235D01*
X110824155Y-120028612D01*
X110828942Y-120046970D01*
X110833806Y-120065307D01*
X110838748Y-120083624D01*
X110843766Y-120101920D01*
X110848862Y-120120195D01*
X110854035Y-120138449D01*
X110859285Y-120156681D01*
X110864612Y-120174890D01*
X110870015Y-120193078D01*
X110875496Y-120211243D01*
X110881053Y-120229384D01*
X110886686Y-120247503D01*
X110892396Y-120265597D01*
X110898182Y-120283668D01*
X110904044Y-120301714D01*
X110909983Y-120319736D01*
X110915997Y-120337733D01*
X110922087Y-120355704D01*
X110928253Y-120373650D01*
X110934495Y-120391569D01*
X110940812Y-120409463D01*
X110947205Y-120427329D01*
X110953673Y-120445169D01*
X110960216Y-120462981D01*
X110966834Y-120480766D01*
X110973528Y-120498523D01*
X110980296Y-120516252D01*
X110987138Y-120533952D01*
X110994056Y-120551623D01*
X111001047Y-120569265D01*
X111008114Y-120586877D01*
X111015254Y-120604460D01*
X111022468Y-120622012D01*
X111026103Y-120630776D01*
X111029757Y-120639533D01*
X111033429Y-120648283D01*
X111037119Y-120657024D01*
X111040828Y-120665758D01*
X111044555Y-120674484D01*
X111048300Y-120683202D01*
X111052064Y-120691912D01*
X111055847Y-120700614D01*
X111059647Y-120709309D01*
X111063466Y-120717995D01*
X111067303Y-120726673D01*
X111071159Y-120735343D01*
X111075033Y-120744005D01*
X111078924Y-120752658D01*
X111082835Y-120761304D01*
X111086763Y-120769941D01*
X111090710Y-120778570D01*
X111094675Y-120787190D01*
X111098658Y-120795802D01*
X111102659Y-120804406D01*
X111106678Y-120813001D01*
X111110715Y-120821588D01*
X111114771Y-120830166D01*
X111118844Y-120838736D01*
X111122936Y-120847297D01*
X111127045Y-120855849D01*
X111131173Y-120864393D01*
X111135318Y-120872927D01*
X111139482Y-120881454D01*
X111143663Y-120889971D01*
X111147863Y-120898479D01*
X111152080Y-120906979D01*
X111156315Y-120915470D01*
X111160568Y-120923951D01*
X111164839Y-120932424D01*
X111169128Y-120940887D01*
X111173435Y-120949342D01*
X111177759Y-120957787D01*
X111182101Y-120966223D01*
X111186461Y-120974650D01*
X111190839Y-120983068D01*
X111195234Y-120991476D01*
X111199648Y-120999876D01*
X111204078Y-121008265D01*
X111208527Y-121016646D01*
X111212993Y-121025017D01*
X111217477Y-121033379D01*
X111221978Y-121041730D01*
X111226497Y-121050073D01*
X111231033Y-121058406D01*
X111235587Y-121066729D01*
X111240159Y-121075043D01*
X111244748Y-121083347D01*
X111249354Y-121091641D01*
X111253978Y-121099925D01*
X111258620Y-121108200D01*
X111263279Y-121116465D01*
X111267955Y-121124720D01*
X111272648Y-121132965D01*
X111277359Y-121141200D01*
X111282087Y-121149425D01*
X111286833Y-121157640D01*
X111291596Y-121165845D01*
X111296376Y-121174040D01*
X111301173Y-121182225D01*
X111305988Y-121190399D01*
X111310820Y-121198563D01*
X111315668Y-121206717D01*
X111320535Y-121214861D01*
X111325418Y-121222995D01*
X111330318Y-121231118D01*
X111335236Y-121239231D01*
X111340170Y-121247333D01*
X111345122Y-121255425D01*
X111350091Y-121263507D01*
X111355076Y-121271577D01*
X111360079Y-121279638D01*
X111365098Y-121287687D01*
X111370135Y-121295727D01*
X111375188Y-121303755D01*
X111380259Y-121311773D01*
X111385346Y-121319779D01*
X111390450Y-121327776D01*
X111395571Y-121335761D01*
X111400709Y-121343736D01*
X111405863Y-121351699D01*
X111411034Y-121359652D01*
X111416222Y-121367593D01*
X111421427Y-121375524D01*
X111426648Y-121383444D01*
X111431886Y-121391353D01*
X111437141Y-121399250D01*
X111442412Y-121407137D01*
X111447700Y-121415012D01*
X111453005Y-121422876D01*
X111458326Y-121430729D01*
X111463664Y-121438571D01*
X111469017Y-121446401D01*
X111474388Y-121454220D01*
X111479775Y-121462027D01*
X111485179Y-121469824D01*
X111490598Y-121477608D01*
X111496035Y-121485382D01*
X111501488Y-121493144D01*
X111506957Y-121500894D01*
X111512442Y-121508633D01*
X111517944Y-121516360D01*
X111523462Y-121524075D01*
X111528996Y-121531780D01*
X111534546Y-121539472D01*
X111540113Y-121547153D01*
X111545696Y-121554821D01*
X111551295Y-121562478D01*
X111556910Y-121570123D01*
X111562541Y-121577756D01*
X111568188Y-121585377D01*
X111573852Y-121592987D01*
X111579531Y-121600584D01*
X111585227Y-121608170D01*
X111590938Y-121615743D01*
X111596666Y-121623305D01*
X111602409Y-121630854D01*
X111608169Y-121638392D01*
X111613943Y-121645916D01*
X111619735Y-121653430D01*
X111625541Y-121660930D01*
X111631365Y-121668419D01*
X111637203Y-121675895D01*
X111643057Y-121683359D01*
X111648927Y-121690810D01*
X111654813Y-121698250D01*
X111660715Y-121705677D01*
X111666632Y-121713091D01*
X111672565Y-121720493D01*
X111678514Y-121727883D01*
X111684477Y-121735259D01*
X111690457Y-121742624D01*
X111696452Y-121749976D01*
X111702463Y-121757316D01*
X111708489Y-121764642D01*
X111714532Y-121771956D01*
X111720588Y-121779257D01*
X111726662Y-121786546D01*
X111732749Y-121793822D01*
X111738853Y-121801085D01*
X111744972Y-121808335D01*
X111751107Y-121815573D01*
X111757256Y-121822797D01*
X111763421Y-121830009D01*
X111769601Y-121837207D01*
X111775797Y-121844394D01*
X111782007Y-121851566D01*
X111788233Y-121858726D01*
X111794474Y-121865872D01*
X111800730Y-121873007D01*
X111807001Y-121880127D01*
X111813288Y-121887235D01*
X111819589Y-121894328D01*
X111825906Y-121901410D01*
X111832237Y-121908477D01*
X111838584Y-121915533D01*
X111844945Y-121922574D01*
X111851322Y-121929602D01*
X111857713Y-121936617D01*
X111864120Y-121943619D01*
X111870540Y-121950606D01*
X111876977Y-121957581D01*
X111883427Y-121964542D01*
X111889893Y-121971491D01*
X111896373Y-121978424D01*
X111902869Y-121985346D01*
X111909379Y-121992252D01*
X111915904Y-121999147D01*
X111922443Y-122006026D01*
X111928997Y-122012894D01*
X111935565Y-122019746D01*
X111942149Y-122026586D01*
X111948746Y-122033411D01*
X111955359Y-122040223D01*
X111961986Y-122047020D01*
X111968628Y-122053805D01*
X111975283Y-122060575D01*
X111981954Y-122067333D01*
X111988639Y-122074075D01*
X111995339Y-122080804D01*
X111999013Y-122084483D01*
X111999013Y-74220530D02*
X111985618Y-74233982D01*
X111972280Y-74247489D01*
X111959001Y-74261051D01*
X111945779Y-74274669D01*
X111932616Y-74288341D01*
X111919511Y-74302068D01*
X111906464Y-74315849D01*
X111893477Y-74329684D01*
X111880548Y-74343574D01*
X111867679Y-74357517D01*
X111854869Y-74371514D01*
X111842119Y-74385564D01*
X111829428Y-74399667D01*
X111816798Y-74413823D01*
X111804227Y-74428032D01*
X111791717Y-74442293D01*
X111779268Y-74456607D01*
X111766879Y-74470972D01*
X111754551Y-74485390D01*
X111742285Y-74499858D01*
X111730079Y-74514378D01*
X111717936Y-74528950D01*
X111705854Y-74543572D01*
X111693834Y-74558244D01*
X111681876Y-74572967D01*
X111669980Y-74587740D01*
X111658147Y-74602564D01*
X111646377Y-74617436D01*
X111634669Y-74632358D01*
X111623025Y-74647330D01*
X111611444Y-74662350D01*
X111599926Y-74677419D01*
X111588472Y-74692536D01*
X111577082Y-74707701D01*
X111565756Y-74722914D01*
X111554494Y-74738175D01*
X111543296Y-74753484D01*
X111532164Y-74768839D01*
X111521095Y-74784242D01*
X111510092Y-74799691D01*
X111499155Y-74815186D01*
X111488282Y-74830728D01*
X111477475Y-74846315D01*
X111466734Y-74861948D01*
X111456058Y-74877626D01*
X111445449Y-74893349D01*
X111434906Y-74909117D01*
X111424430Y-74924929D01*
X111414020Y-74940786D01*
X111403677Y-74956687D01*
X111393401Y-74972631D01*
X111383192Y-74988619D01*
X111373051Y-75004649D01*
X111362977Y-75020723D01*
X111352971Y-75036839D01*
X111343033Y-75052997D01*
X111333163Y-75069198D01*
X111323361Y-75085440D01*
X111313627Y-75101723D01*
X111303962Y-75118048D01*
X111294366Y-75134413D01*
X111284839Y-75150819D01*
X111275381Y-75167265D01*
X111265993Y-75183752D01*
X111256674Y-75200277D01*
X111247424Y-75216842D01*
X111238244Y-75233447D01*
X111229135Y-75250090D01*
X111220095Y-75266771D01*
X111211126Y-75283491D01*
X111202227Y-75300248D01*
X111193398Y-75317043D01*
X111184641Y-75333876D01*
X111175954Y-75350745D01*
X111167339Y-75367651D01*
X111158795Y-75384593D01*
X111150322Y-75401572D01*
X111141921Y-75418586D01*
X111133591Y-75435635D01*
X111125334Y-75452720D01*
X111117148Y-75469840D01*
X111109035Y-75486994D01*
X111100994Y-75504182D01*
X111093025Y-75521404D01*
X111085129Y-75538659D01*
X111077306Y-75555948D01*
X111069555Y-75573270D01*
X111061878Y-75590624D01*
X111054274Y-75608011D01*
X111046743Y-75625430D01*
X111039286Y-75642880D01*
X111031902Y-75660361D01*
X111024592Y-75677874D01*
X111020965Y-75686642D01*
X111017356Y-75695418D01*
X111013766Y-75704201D01*
X111010194Y-75712991D01*
X111006641Y-75721789D01*
X111003106Y-75730595D01*
X110999590Y-75739408D01*
X110996092Y-75748229D01*
X110992613Y-75757056D01*
X110989153Y-75765892D01*
X110985711Y-75774734D01*
X110982288Y-75783584D01*
X110978884Y-75792440D01*
X110975498Y-75801304D01*
X110972131Y-75810175D01*
X110968783Y-75819054D01*
X110965453Y-75827939D01*
X110962142Y-75836831D01*
X110958850Y-75845730D01*
X110955577Y-75854636D01*
X110952323Y-75863549D01*
X110949087Y-75872469D01*
X110945870Y-75881395D01*
X110942672Y-75890329D01*
X110939493Y-75899269D01*
X110936332Y-75908215D01*
X110933191Y-75917168D01*
X110930068Y-75926128D01*
X110926964Y-75935095D01*
X110923879Y-75944068D01*
X110920814Y-75953047D01*
X110917767Y-75962033D01*
X110914739Y-75971025D01*
X110911730Y-75980024D01*
X110908740Y-75989028D01*
X110905768Y-75998039D01*
X110902817Y-76007056D01*
X110899883Y-76016080D01*
X110896970Y-76025109D01*
X110894075Y-76034145D01*
X110891199Y-76043187D01*
X110888342Y-76052235D01*
X110885504Y-76061288D01*
X110882686Y-76070348D01*
X110879886Y-76079413D01*
X110877106Y-76088485D01*
X110874345Y-76097562D01*
X110871603Y-76106645D01*
X110868880Y-76115733D01*
X110866176Y-76124828D01*
X110863492Y-76133928D01*
X110860826Y-76143033D01*
X110858180Y-76152144D01*
X110855553Y-76161261D01*
X110852946Y-76170383D01*
X110850357Y-76179511D01*
X110847788Y-76188644D01*
X110845239Y-76197782D01*
X110842708Y-76206925D01*
X110840197Y-76216075D01*
X110837705Y-76225229D01*
X110835232Y-76234388D01*
X110832779Y-76243552D01*
X110830345Y-76252722D01*
X110827930Y-76261897D01*
X110825535Y-76271077D01*
X110823159Y-76280261D01*
X110820803Y-76289451D01*
X110818466Y-76298645D01*
X110816148Y-76307845D01*
X110813850Y-76317049D01*
X110811571Y-76326258D01*
X110809311Y-76335471D01*
X110807071Y-76344690D01*
X110804851Y-76353913D01*
X110802650Y-76363141D01*
X110800468Y-76372373D01*
X110798306Y-76381610D01*
X110796163Y-76390851D01*
X110794040Y-76400097D01*
X110791937Y-76409347D01*
X110789852Y-76418602D01*
X110787788Y-76427860D01*
X110785743Y-76437124D01*
X110783717Y-76446391D01*
X110781711Y-76455663D01*
X110779725Y-76464938D01*
X110777758Y-76474219D01*
X110775811Y-76483502D01*
X110773883Y-76492791D01*
X110771975Y-76502083D01*
X110770087Y-76511379D01*
X110768218Y-76520679D01*
X110766369Y-76529983D01*
X110764540Y-76539290D01*
X110762730Y-76548602D01*
X110760939Y-76557917D01*
X110759169Y-76567237D01*
X110757418Y-76576559D01*
X110755686Y-76585886D01*
X110753975Y-76595215D01*
X110752283Y-76604549D01*
X110750611Y-76613886D01*
X110748958Y-76623227D01*
X110747325Y-76632571D01*
X110745712Y-76641919D01*
X110744119Y-76651269D01*
X110742545Y-76660624D01*
X110740991Y-76669980D01*
X110739457Y-76679342D01*
X110737943Y-76688705D01*
X110736448Y-76698073D01*
X110734973Y-76707442D01*
X110733518Y-76716816D01*
X110732082Y-76726192D01*
X110730667Y-76735572D01*
X110729271Y-76744953D01*
X110727895Y-76754339D01*
X110726539Y-76763727D01*
X110725202Y-76773118D01*
X110723885Y-76782512D01*
X110722589Y-76791909D01*
X110721312Y-76801307D01*
X110720054Y-76810710D01*
X110718817Y-76820114D01*
X110717599Y-76829522D01*
X110716402Y-76838931D01*
X110715224Y-76848344D01*
X110714066Y-76857758D01*
X110712928Y-76867176D01*
X110711809Y-76876596D01*
X110710711Y-76886018D01*
X110709632Y-76895442D01*
X110708574Y-76904870D01*
X110707535Y-76914298D01*
X110706516Y-76923730D01*
X110705517Y-76933163D01*
X110704538Y-76942599D01*
X110703578Y-76952036D01*
X110702639Y-76961477D01*
X110701720Y-76970918D01*
X110700820Y-76980363D01*
X110699940Y-76989808D01*
X110699081Y-76999256D01*
X110698241Y-77008705D01*
X110697421Y-77018158D01*
X110696621Y-77027610D01*
X110695841Y-77037066D01*
X110695081Y-77046522D01*
X110694341Y-77055982D01*
X110693620Y-77065441D01*
X110692920Y-77074904D01*
X110692240Y-77084366D01*
X110691579Y-77093832D01*
X110690939Y-77103298D01*
X110690318Y-77112766D01*
X110689718Y-77122235D01*
X110689137Y-77131707D01*
X110688576Y-77141178D01*
X110688036Y-77150652D01*
X110687515Y-77160126D01*
X110687014Y-77169603D01*
X110686534Y-77179079D01*
X110686073Y-77188558D01*
X110685632Y-77198037D01*
X110685211Y-77207519D01*
X110684810Y-77217000D01*
X110684429Y-77226483D01*
X110684068Y-77235966D01*
X110683727Y-77245452D01*
X110683407Y-77254936D01*
X110683106Y-77264424D01*
X110682825Y-77273910D01*
X110682564Y-77283399D01*
X110682323Y-77292887D01*
X110682102Y-77302378D01*
X110681901Y-77311867D01*
X110681720Y-77321359D01*
X110681559Y-77330850D01*
X110681418Y-77340343D01*
X110681297Y-77349835D01*
X110681196Y-77359329D01*
X110681115Y-77368822D01*
X110681054Y-77378318D01*
X110681013Y-77387811D01*
X110680992Y-77397307D01*
X110680989Y-77402506D01*
X111999013Y-122084483D02*
X112012465Y-122097878D01*
X112025972Y-122111216D01*
X112039534Y-122124495D01*
X112053152Y-122137717D01*
X112066824Y-122150880D01*
X112080551Y-122163985D01*
X112094332Y-122177032D01*
X112108167Y-122190019D01*
X112122057Y-122202948D01*
X112136000Y-122215817D01*
X112149997Y-122228627D01*
X112164047Y-122241377D01*
X112178150Y-122254068D01*
X112192306Y-122266698D01*
X112206515Y-122279269D01*
X112220776Y-122291779D01*
X112235090Y-122304228D01*
X112249455Y-122316617D01*
X112263872Y-122328944D01*
X112278341Y-122341211D01*
X112292861Y-122353416D01*
X112307432Y-122365560D01*
X112322054Y-122377642D01*
X112336727Y-122389662D01*
X112351450Y-122401620D01*
X112366223Y-122413515D01*
X112381046Y-122425349D01*
X112395919Y-122437119D01*
X112410841Y-122448826D01*
X112425812Y-122460471D01*
X112440832Y-122472052D01*
X112455901Y-122483570D01*
X112471018Y-122495024D01*
X112486184Y-122506414D01*
X112501397Y-122517740D01*
X112516658Y-122529002D01*
X112531966Y-122540199D01*
X112547322Y-122551332D01*
X112562724Y-122562400D01*
X112578173Y-122573403D01*
X112593669Y-122584341D01*
X112609210Y-122595214D01*
X112624797Y-122606020D01*
X112640430Y-122616762D01*
X112656108Y-122627437D01*
X112671832Y-122638046D01*
X112687600Y-122648589D01*
X112703412Y-122659066D01*
X112719269Y-122669475D01*
X112735169Y-122679818D01*
X112751113Y-122690094D01*
X112767101Y-122700303D01*
X112783132Y-122710445D01*
X112799205Y-122720518D01*
X112815321Y-122730525D01*
X112831480Y-122740463D01*
X112847680Y-122750333D01*
X112863922Y-122760135D01*
X112880206Y-122769868D01*
X112896530Y-122779533D01*
X112912896Y-122789129D01*
X112929302Y-122798656D01*
X112945748Y-122808114D01*
X112962234Y-122817502D01*
X112978760Y-122826822D01*
X112995325Y-122836071D01*
X113011929Y-122845251D01*
X113028572Y-122854361D01*
X113045254Y-122863400D01*
X113061973Y-122872370D01*
X113078731Y-122881269D01*
X113095526Y-122890097D01*
X113112358Y-122898854D01*
X113129227Y-122907541D01*
X113146133Y-122916156D01*
X113163076Y-122924700D01*
X113180054Y-122933173D01*
X113197068Y-122941574D01*
X113214118Y-122949904D01*
X113231202Y-122958162D01*
X113248322Y-122966347D01*
X113265476Y-122974461D01*
X113282664Y-122982502D01*
X113299886Y-122990470D01*
X113317142Y-122998366D01*
X113334430Y-123006190D01*
X113351752Y-123013940D01*
X113369107Y-123021617D01*
X113386493Y-123029221D01*
X113403912Y-123036752D01*
X113421362Y-123044209D01*
X113438844Y-123051593D01*
X113456356Y-123058903D01*
X113465124Y-123062530D01*
X113473900Y-123066139D01*
X113482683Y-123069729D01*
X113491474Y-123073301D01*
X113500272Y-123076854D01*
X113509077Y-123080389D01*
X113517890Y-123083905D01*
X113526711Y-123087403D01*
X113535539Y-123090882D01*
X113544374Y-123094342D01*
X113553216Y-123097784D01*
X113562066Y-123101207D01*
X113570923Y-123104611D01*
X113579787Y-123107997D01*
X113588658Y-123111364D01*
X113597536Y-123114712D01*
X113606421Y-123118042D01*
X113615313Y-123121353D01*
X113624213Y-123124645D01*
X113633119Y-123127918D01*
X113642031Y-123131173D01*
X113650951Y-123134408D01*
X113659878Y-123137625D01*
X113668811Y-123140823D01*
X113677751Y-123144003D01*
X113686698Y-123147163D01*
X113695651Y-123150305D01*
X113704611Y-123153427D01*
X113713577Y-123156531D01*
X113722550Y-123159616D01*
X113731529Y-123162682D01*
X113740515Y-123165729D01*
X113749507Y-123168757D01*
X113758506Y-123171766D01*
X113767511Y-123174756D01*
X113776522Y-123177727D01*
X113785539Y-123180679D01*
X113794562Y-123183612D01*
X113803592Y-123186526D01*
X113812628Y-123189421D01*
X113821669Y-123192296D01*
X113830717Y-123195153D01*
X113839771Y-123197991D01*
X113848830Y-123200809D01*
X113857896Y-123203609D01*
X113866967Y-123206389D01*
X113876044Y-123209150D01*
X113885127Y-123211892D01*
X113894216Y-123214615D01*
X113903310Y-123217319D01*
X113912410Y-123220003D01*
X113921516Y-123222669D01*
X113930627Y-123225315D01*
X113939744Y-123227942D01*
X113948866Y-123230549D01*
X113957993Y-123233138D01*
X113967126Y-123235707D01*
X113976265Y-123238257D01*
X113985408Y-123240787D01*
X113994557Y-123243298D01*
X114003711Y-123245790D01*
X114012871Y-123248263D01*
X114022035Y-123250716D01*
X114031205Y-123253150D01*
X114040379Y-123255565D01*
X114049559Y-123257960D01*
X114058743Y-123260336D01*
X114067933Y-123262692D01*
X114077127Y-123265029D01*
X114086327Y-123267347D01*
X114095531Y-123269645D01*
X114104740Y-123271924D01*
X114113954Y-123274184D01*
X114123173Y-123276424D01*
X114132395Y-123278644D01*
X114141623Y-123280845D01*
X114150855Y-123283027D01*
X114160092Y-123285189D01*
X114169333Y-123287332D01*
X114178580Y-123289455D01*
X114187829Y-123291558D01*
X114197084Y-123293643D01*
X114206343Y-123295707D01*
X114215606Y-123297752D01*
X114224873Y-123299778D01*
X114234146Y-123301784D01*
X114243421Y-123303770D01*
X114252701Y-123305737D01*
X114261985Y-123307684D01*
X114271274Y-123309612D01*
X114280565Y-123311520D01*
X114289862Y-123313408D01*
X114299161Y-123315277D01*
X114308466Y-123317126D01*
X114317773Y-123318956D01*
X114327085Y-123320766D01*
X114336400Y-123322556D01*
X114345719Y-123324326D01*
X114355042Y-123326077D01*
X114364369Y-123327809D01*
X114373698Y-123329520D01*
X114383032Y-123331212D01*
X114392369Y-123332884D01*
X114401710Y-123334537D01*
X114411053Y-123336170D01*
X114420401Y-123337783D01*
X114429752Y-123339376D01*
X114439106Y-123340950D01*
X114448463Y-123342504D01*
X114457824Y-123344038D01*
X114467188Y-123345552D01*
X114476555Y-123347047D01*
X114485925Y-123348522D01*
X114495299Y-123349977D01*
X114504674Y-123351413D01*
X114514054Y-123352828D01*
X114523436Y-123354224D01*
X114532822Y-123355600D01*
X114542209Y-123356956D01*
X114551601Y-123358293D01*
X114560994Y-123359610D01*
X114570391Y-123360907D01*
X114579790Y-123362183D01*
X114589193Y-123363441D01*
X114598597Y-123364678D01*
X114608005Y-123365896D01*
X114617414Y-123367093D01*
X114626827Y-123368271D01*
X114636241Y-123369429D01*
X114645659Y-123370567D01*
X114655078Y-123371686D01*
X114664501Y-123372784D01*
X114673925Y-123373863D01*
X114683353Y-123374921D01*
X114692781Y-123375960D01*
X114702213Y-123376979D01*
X114711646Y-123377978D01*
X114721082Y-123378957D01*
X114730519Y-123379917D01*
X114739960Y-123380856D01*
X114749401Y-123381775D01*
X114758846Y-123382675D01*
X114768291Y-123383555D01*
X114777739Y-123384414D01*
X114787188Y-123385254D01*
X114796641Y-123386074D01*
X114806093Y-123386874D01*
X114815549Y-123387654D01*
X114825005Y-123388414D01*
X114834464Y-123389154D01*
X114843924Y-123389875D01*
X114853386Y-123390575D01*
X114862849Y-123391255D01*
X114872315Y-123391916D01*
X114881781Y-123392556D01*
X114891249Y-123393177D01*
X114900718Y-123393777D01*
X114910189Y-123394358D01*
X114919661Y-123394919D01*
X114929135Y-123395459D01*
X114938609Y-123395980D01*
X114948086Y-123396481D01*
X114957562Y-123396961D01*
X114967042Y-123397422D01*
X114976520Y-123397863D01*
X114986002Y-123398284D01*
X114995483Y-123398685D01*
X115004966Y-123399066D01*
X115014449Y-123399427D01*
X115023935Y-123399768D01*
X115033419Y-123400088D01*
X115042907Y-123400389D01*
X115052393Y-123400670D01*
X115061882Y-123400931D01*
X115071370Y-123401172D01*
X115080861Y-123401393D01*
X115090350Y-123401594D01*
X115099842Y-123401775D01*
X115109333Y-123401936D01*
X115118826Y-123402077D01*
X115128318Y-123402198D01*
X115137813Y-123402299D01*
X115147306Y-123402380D01*
X115156801Y-123402441D01*
X115166295Y-123402482D01*
X115175791Y-123402503D01*
X115180989Y-123402506D01*
X112180989Y-118802500D02*
X112180989Y-77502497D01*
X112180989Y-118802500D02*
X112181029Y-118818255D01*
X112181149Y-118834009D01*
X112181349Y-118849760D01*
X112181629Y-118865510D01*
X112181988Y-118881256D01*
X112182428Y-118897000D01*
X112182948Y-118912740D01*
X112183547Y-118928477D01*
X112184226Y-118944210D01*
X112184986Y-118959938D01*
X112185825Y-118975662D01*
X112186743Y-118991380D01*
X112187742Y-119007094D01*
X112188820Y-119022801D01*
X112189979Y-119038502D01*
X112191216Y-119054197D01*
X112192534Y-119069885D01*
X112193931Y-119085565D01*
X112195408Y-119101238D01*
X112196964Y-119116904D01*
X112198600Y-119132560D01*
X112200315Y-119148208D01*
X112202110Y-119163847D01*
X112203984Y-119179477D01*
X112205938Y-119195097D01*
X112207971Y-119210706D01*
X112210083Y-119226305D01*
X112212274Y-119241894D01*
X112214545Y-119257470D01*
X112216895Y-119273036D01*
X112219323Y-119288589D01*
X112221831Y-119304129D01*
X112224418Y-119319657D01*
X112227084Y-119335172D01*
X112229828Y-119350673D01*
X112232651Y-119366160D01*
X112235553Y-119381632D01*
X112238533Y-119397090D01*
X112241592Y-119412533D01*
X112244730Y-119427960D01*
X112247946Y-119443371D01*
X112251240Y-119458766D01*
X112254612Y-119474145D01*
X112258062Y-119489506D01*
X112261591Y-119504850D01*
X112265197Y-119520176D01*
X112268882Y-119535483D01*
X112272644Y-119550772D01*
X112276484Y-119566042D01*
X112280401Y-119581293D01*
X112284396Y-119596523D01*
X112288468Y-119611734D01*
X112292618Y-119626924D01*
X112296845Y-119642092D01*
X112301148Y-119657240D01*
X112305529Y-119672365D01*
X112309987Y-119687469D01*
X112314521Y-119702550D01*
X112319132Y-119717607D01*
X112323820Y-119732642D01*
X112328583Y-119747652D01*
X112333423Y-119762639D01*
X112338340Y-119777601D01*
X112343332Y-119792538D01*
X112348400Y-119807449D01*
X112353544Y-119822335D01*
X112358763Y-119837195D01*
X112364058Y-119852028D01*
X112369428Y-119866834D01*
X112374874Y-119881613D01*
X112380394Y-119896365D01*
X112385989Y-119911088D01*
X112391659Y-119925782D01*
X112397404Y-119940448D01*
X112403223Y-119955084D01*
X112409117Y-119969691D01*
X112415084Y-119984268D01*
X112421126Y-119998814D01*
X112424174Y-120006076D01*
X112427241Y-120013330D01*
X112430326Y-120020576D01*
X112433430Y-120027814D01*
X112436552Y-120035044D01*
X112439693Y-120042266D01*
X112442851Y-120049481D01*
X112446028Y-120056687D01*
X112449224Y-120063885D01*
X112452437Y-120071075D01*
X112455669Y-120078257D01*
X112458919Y-120085431D01*
X112462188Y-120092596D01*
X112465474Y-120099753D01*
X112468779Y-120106902D01*
X112472102Y-120114042D01*
X112475443Y-120121174D01*
X112478802Y-120128297D01*
X112482179Y-120135412D01*
X112485574Y-120142518D01*
X112488987Y-120149615D01*
X112492418Y-120156704D01*
X112495867Y-120163784D01*
X112499334Y-120170855D01*
X112502819Y-120177917D01*
X112506322Y-120184971D01*
X112509843Y-120192015D01*
X112513382Y-120199051D01*
X112516939Y-120206077D01*
X112520513Y-120213094D01*
X112524105Y-120220102D01*
X112527715Y-120227102D01*
X112531343Y-120234091D01*
X112534988Y-120241072D01*
X112538651Y-120248043D01*
X112542332Y-120255005D01*
X112546031Y-120261957D01*
X112549747Y-120268901D01*
X112553481Y-120275834D01*
X112557232Y-120282758D01*
X112561001Y-120289672D01*
X112564787Y-120296577D01*
X112568591Y-120303472D01*
X112572413Y-120310358D01*
X112576251Y-120317233D01*
X112580108Y-120324099D01*
X112583981Y-120330955D01*
X112587873Y-120337802D01*
X112591781Y-120344637D01*
X112595707Y-120351464D01*
X112599650Y-120358280D01*
X112603610Y-120365086D01*
X112607588Y-120371882D01*
X112611583Y-120378668D01*
X112615594Y-120385443D01*
X112619624Y-120392209D01*
X112623670Y-120398963D01*
X112627734Y-120405708D01*
X112631814Y-120412442D01*
X112635912Y-120419166D01*
X112640026Y-120425879D01*
X112644158Y-120432583D01*
X112648307Y-120439275D01*
X112652473Y-120445957D01*
X112656655Y-120452628D01*
X112660855Y-120459288D01*
X112665071Y-120465938D01*
X112669305Y-120472577D01*
X112673555Y-120479205D01*
X112677822Y-120485822D01*
X112682105Y-120492428D01*
X112686406Y-120499024D01*
X112690723Y-120505608D01*
X112695057Y-120512182D01*
X112699407Y-120518744D01*
X112703775Y-120525296D01*
X112708158Y-120531835D01*
X112712559Y-120538365D01*
X112716976Y-120544882D01*
X112721409Y-120551389D01*
X112725859Y-120557884D01*
X112730326Y-120564368D01*
X112734809Y-120570840D01*
X112739308Y-120577301D01*
X112743824Y-120583751D01*
X112748356Y-120590189D01*
X112752904Y-120596615D01*
X112757469Y-120603030D01*
X112762050Y-120609433D01*
X112766648Y-120615825D01*
X112771261Y-120622205D01*
X112775891Y-120628573D01*
X112780536Y-120634929D01*
X112785199Y-120641274D01*
X112789876Y-120647606D01*
X112794571Y-120653928D01*
X112799281Y-120660236D01*
X112804007Y-120666533D01*
X112808749Y-120672818D01*
X112813508Y-120679091D01*
X112818282Y-120685351D01*
X112823072Y-120691600D01*
X112827878Y-120697836D01*
X112832700Y-120704061D01*
X112837537Y-120710272D01*
X112842391Y-120716473D01*
X112847260Y-120722659D01*
X112852145Y-120728835D01*
X112857045Y-120734997D01*
X112861962Y-120741148D01*
X112866894Y-120747285D01*
X112871842Y-120753411D01*
X112876804Y-120759523D01*
X112881784Y-120765623D01*
X112886777Y-120771710D01*
X112891788Y-120777786D01*
X112896812Y-120783847D01*
X112901854Y-120789897D01*
X112906909Y-120795933D01*
X112911981Y-120801958D01*
X112917068Y-120807968D01*
X112922170Y-120813967D01*
X112927287Y-120819952D01*
X112932420Y-120825925D01*
X112937568Y-120831884D01*
X112942732Y-120837831D01*
X112947910Y-120843764D01*
X112953104Y-120849685D01*
X112958312Y-120855591D01*
X112963536Y-120861486D01*
X112968774Y-120867366D01*
X112974029Y-120873235D01*
X112979297Y-120879088D01*
X112984581Y-120884930D01*
X112989880Y-120890758D01*
X112995194Y-120896573D01*
X113000522Y-120902373D01*
X113005866Y-120908162D01*
X113011224Y-120913936D01*
X113016597Y-120919697D01*
X113021985Y-120925444D01*
X113027388Y-120931178D01*
X113032804Y-120936898D01*
X113038237Y-120942605D01*
X113043683Y-120948298D01*
X113049145Y-120953978D01*
X113054620Y-120959643D01*
X113060111Y-120965296D01*
X113065615Y-120970933D01*
X113071135Y-120976558D01*
X113076669Y-120982169D01*
X113082218Y-120987766D01*
X113088963Y-120994532D01*
X113088963Y-120994532D02*
X113100132Y-121005644D01*
X113111356Y-121016699D01*
X113122635Y-121027695D01*
X113133970Y-121038634D01*
X113145359Y-121049514D01*
X113156802Y-121060336D01*
X113168299Y-121071098D01*
X113179851Y-121081802D01*
X113191456Y-121092446D01*
X113203114Y-121103031D01*
X113214826Y-121113556D01*
X113226590Y-121124021D01*
X113238407Y-121134426D01*
X113250277Y-121144770D01*
X113262198Y-121155054D01*
X113274171Y-121165276D01*
X113286196Y-121175438D01*
X113298272Y-121185538D01*
X113310398Y-121195576D01*
X113322576Y-121205553D01*
X113334803Y-121215467D01*
X113347081Y-121225319D01*
X113359409Y-121235108D01*
X113371786Y-121244835D01*
X113384212Y-121254498D01*
X113396688Y-121264098D01*
X113409211Y-121273635D01*
X113421783Y-121283108D01*
X113434404Y-121292517D01*
X113447071Y-121301862D01*
X113459786Y-121311142D01*
X113472549Y-121320358D01*
X113485358Y-121329509D01*
X113498213Y-121338594D01*
X113511114Y-121347615D01*
X113524062Y-121356569D01*
X113537055Y-121365458D01*
X113550093Y-121374281D01*
X113563175Y-121383038D01*
X113576303Y-121391728D01*
X113589474Y-121400352D01*
X113602689Y-121408908D01*
X113615948Y-121417398D01*
X113629250Y-121425820D01*
X113642595Y-121434175D01*
X113655982Y-121442462D01*
X113669412Y-121450681D01*
X113682883Y-121458832D01*
X113696396Y-121466914D01*
X113709950Y-121474928D01*
X113723544Y-121482873D01*
X113737179Y-121490749D01*
X113750854Y-121498556D01*
X113764569Y-121506293D01*
X113778323Y-121513961D01*
X113792117Y-121521558D01*
X113805948Y-121529086D01*
X113819819Y-121536544D01*
X113833727Y-121543931D01*
X113847672Y-121551247D01*
X113861655Y-121558493D01*
X113875675Y-121565668D01*
X113889731Y-121572771D01*
X113903823Y-121579803D01*
X113917951Y-121586764D01*
X113932114Y-121593653D01*
X113946312Y-121600469D01*
X113960545Y-121607214D01*
X113974812Y-121613886D01*
X113989113Y-121620486D01*
X114003447Y-121627014D01*
X114017815Y-121633468D01*
X114032215Y-121639849D01*
X114046647Y-121646158D01*
X114061112Y-121652392D01*
X114075607Y-121658554D01*
X114090135Y-121664641D01*
X114097410Y-121667658D01*
X114104692Y-121670655D01*
X114111983Y-121673634D01*
X114119281Y-121676595D01*
X114126586Y-121679537D01*
X114133899Y-121682461D01*
X114141219Y-121685366D01*
X114148547Y-121688252D01*
X114155882Y-121691120D01*
X114163224Y-121693969D01*
X114170573Y-121696800D01*
X114177930Y-121699611D01*
X114185294Y-121702404D01*
X114192665Y-121705179D01*
X114200042Y-121707935D01*
X114207427Y-121710671D01*
X114214819Y-121713390D01*
X114222217Y-121716089D01*
X114229622Y-121718770D01*
X114237035Y-121721431D01*
X114244453Y-121724074D01*
X114251879Y-121726698D01*
X114259311Y-121729303D01*
X114266750Y-121731890D01*
X114274195Y-121734457D01*
X114281647Y-121737006D01*
X114289105Y-121739535D01*
X114296570Y-121742046D01*
X114304040Y-121744537D01*
X114311518Y-121747010D01*
X114319001Y-121749463D01*
X114326490Y-121751898D01*
X114333986Y-121754313D01*
X114341488Y-121756710D01*
X114348995Y-121759087D01*
X114356509Y-121761446D01*
X114364029Y-121763785D01*
X114371555Y-121766105D01*
X114379086Y-121768406D01*
X114386623Y-121770688D01*
X114394166Y-121772950D01*
X114401715Y-121775194D01*
X114409269Y-121777418D01*
X114416829Y-121779623D01*
X114424394Y-121781809D01*
X114431965Y-121783976D01*
X114439541Y-121786123D01*
X114447123Y-121788251D01*
X114454710Y-121790360D01*
X114462303Y-121792450D01*
X114469900Y-121794520D01*
X114477503Y-121796571D01*
X114485111Y-121798602D01*
X114492724Y-121800615D01*
X114500342Y-121802607D01*
X114507965Y-121804581D01*
X114515593Y-121806535D01*
X114523226Y-121808470D01*
X114530863Y-121810385D01*
X114538506Y-121812281D01*
X114546153Y-121814157D01*
X114553806Y-121816015D01*
X114561462Y-121817852D01*
X114569124Y-121819670D01*
X114576789Y-121821469D01*
X114584460Y-121823248D01*
X114592134Y-121825008D01*
X114599814Y-121826748D01*
X114607497Y-121828468D01*
X114615185Y-121830169D01*
X114622877Y-121831851D01*
X114630573Y-121833513D01*
X114638273Y-121835155D01*
X114645978Y-121836778D01*
X114653687Y-121838381D01*
X114661400Y-121839965D01*
X114669116Y-121841529D01*
X114676837Y-121843073D01*
X114684561Y-121844598D01*
X114692290Y-121846103D01*
X114700021Y-121847589D01*
X114707757Y-121849055D01*
X114715496Y-121850501D01*
X114723240Y-121851927D01*
X114730986Y-121853334D01*
X114738736Y-121854721D01*
X114746490Y-121856089D01*
X114754247Y-121857437D01*
X114762007Y-121858764D01*
X114769771Y-121860073D01*
X114777538Y-121861361D01*
X114785309Y-121862630D01*
X114793082Y-121863879D01*
X114800859Y-121865108D01*
X114808638Y-121866318D01*
X114816421Y-121867508D01*
X114824207Y-121868678D01*
X114831996Y-121869828D01*
X114839787Y-121870958D01*
X114847582Y-121872069D01*
X114855379Y-121873160D01*
X114863180Y-121874231D01*
X114870982Y-121875282D01*
X114878788Y-121876313D01*
X114886595Y-121877325D01*
X114894407Y-121878316D01*
X114902219Y-121879288D01*
X114910036Y-121880240D01*
X114917853Y-121881172D01*
X114925674Y-121882084D01*
X114933496Y-121882977D01*
X114941322Y-121883849D01*
X114949149Y-121884702D01*
X114956979Y-121885535D01*
X114964810Y-121886347D01*
X114972645Y-121887140D01*
X114980480Y-121887913D01*
X114988319Y-121888667D01*
X114996158Y-121889400D01*
X115004001Y-121890113D01*
X115011844Y-121890806D01*
X115019690Y-121891480D01*
X115027537Y-121892134D01*
X115035387Y-121892767D01*
X115043237Y-121893381D01*
X115051090Y-121893975D01*
X115058943Y-121894548D01*
X115066800Y-121895102D01*
X115074656Y-121895636D01*
X115082515Y-121896150D01*
X115090375Y-121896644D01*
X115098237Y-121897118D01*
X115106099Y-121897572D01*
X115113964Y-121898006D01*
X115121828Y-121898420D01*
X115129696Y-121898814D01*
X115137563Y-121899189D01*
X115145432Y-121899543D01*
X115153301Y-121899877D01*
X115161173Y-121900191D01*
X115169044Y-121900486D01*
X115176918Y-121900760D01*
X115184791Y-121901014D01*
X115192666Y-121901248D01*
X115200541Y-121901463D01*
X115208418Y-121901657D01*
X115216294Y-121901831D01*
X115224172Y-121901986D01*
X115232050Y-121902120D01*
X115239929Y-121902234D01*
X115247808Y-121902328D01*
X115255688Y-121902403D01*
X115263568Y-121902457D01*
X115271450Y-121902491D01*
X115281010Y-121902506D01*
X113680989Y-118902506D02*
X113680989Y-77402506D01*
X113680989Y-118902506D02*
X113681029Y-118913571D01*
X113681149Y-118924626D01*
X113681348Y-118935671D01*
X113681628Y-118946707D01*
X113681987Y-118957732D01*
X113682425Y-118968747D01*
X113682944Y-118979750D01*
X113683541Y-118990743D01*
X113684218Y-119001724D01*
X113684975Y-119012694D01*
X113685810Y-119023652D01*
X113686725Y-119034597D01*
X113687719Y-119045529D01*
X113688792Y-119056449D01*
X113689944Y-119067355D01*
X113691175Y-119078248D01*
X113692485Y-119089127D01*
X113693873Y-119099991D01*
X113695340Y-119110841D01*
X113696886Y-119121676D01*
X113698510Y-119132495D01*
X113700213Y-119143299D01*
X113701994Y-119154087D01*
X113703854Y-119164859D01*
X113705792Y-119175613D01*
X113707807Y-119186351D01*
X113709901Y-119197071D01*
X113712073Y-119207773D01*
X113714323Y-119218457D01*
X113716650Y-119229122D01*
X113719055Y-119239769D01*
X113721538Y-119250395D01*
X113724098Y-119261003D01*
X113726735Y-119271589D01*
X113729450Y-119282156D01*
X113732241Y-119292701D01*
X113735110Y-119303225D01*
X113738056Y-119313727D01*
X113741078Y-119324206D01*
X113744177Y-119334663D01*
X113747353Y-119345097D01*
X113750605Y-119355507D01*
X113753933Y-119365893D01*
X113757337Y-119376255D01*
X113760817Y-119386592D01*
X113764373Y-119396903D01*
X113768005Y-119407189D01*
X113771712Y-119417449D01*
X113775495Y-119427682D01*
X113779353Y-119437887D01*
X113783285Y-119448065D01*
X113787293Y-119458215D01*
X113791375Y-119468337D01*
X113795532Y-119478429D01*
X113799763Y-119488492D01*
X113804068Y-119498524D01*
X113808447Y-119508527D01*
X113812900Y-119518498D01*
X113817426Y-119528438D01*
X113822026Y-119538346D01*
X113826699Y-119548221D01*
X113831444Y-119558064D01*
X113836263Y-119567873D01*
X113841153Y-119577648D01*
X113846116Y-119587389D01*
X113851151Y-119597095D01*
X113856257Y-119606765D01*
X113861435Y-119616400D01*
X113866684Y-119625998D01*
X113872004Y-119635559D01*
X113877394Y-119645082D01*
X113882855Y-119654568D01*
X113888386Y-119664014D01*
X113893987Y-119673422D01*
X113899658Y-119682791D01*
X113905397Y-119692119D01*
X113911206Y-119701407D01*
X113917083Y-119710653D01*
X113923028Y-119719858D01*
X113929041Y-119729021D01*
X113935122Y-119738141D01*
X113941271Y-119747218D01*
X113947486Y-119756251D01*
X113953768Y-119765240D01*
X113960116Y-119774184D01*
X113966530Y-119783083D01*
X113973010Y-119791937D01*
X113979555Y-119800743D01*
X113986165Y-119809504D01*
X113992839Y-119818216D01*
X113999578Y-119826881D01*
X114006380Y-119835498D01*
X114013245Y-119844066D01*
X114020174Y-119852584D01*
X114027165Y-119861052D01*
X114034218Y-119869470D01*
X114041333Y-119877838D01*
X114048509Y-119886153D01*
X114055746Y-119894417D01*
X114063043Y-119902629D01*
X114070401Y-119910788D01*
X114077818Y-119918893D01*
X114085294Y-119926944D01*
X114092829Y-119934941D01*
X114100422Y-119942884D01*
X114108073Y-119950771D01*
X114115782Y-119958602D01*
X114123547Y-119966377D01*
X114127451Y-119970244D01*
X114131369Y-119974096D01*
X114135301Y-119977933D01*
X114139247Y-119981757D01*
X114143206Y-119985566D01*
X114147180Y-119989360D01*
X114151167Y-119993140D01*
X114155168Y-119996906D01*
X114159183Y-120000657D01*
X114163211Y-120004393D01*
X114167252Y-120008114D01*
X114171308Y-120011821D01*
X114175376Y-120015513D01*
X114179458Y-120019190D01*
X114183553Y-120022851D01*
X114187662Y-120026498D01*
X114191783Y-120030130D01*
X114195918Y-120033747D01*
X114200065Y-120037348D01*
X114204226Y-120040935D01*
X114208400Y-120044506D01*
X114212586Y-120048061D01*
X114216785Y-120051601D01*
X114220997Y-120055126D01*
X114225222Y-120058636D01*
X114229459Y-120062130D01*
X114233708Y-120065608D01*
X114237971Y-120069070D01*
X114242245Y-120072517D01*
X114246532Y-120075948D01*
X114250831Y-120079363D01*
X114255143Y-120082763D01*
X114259466Y-120086146D01*
X114263802Y-120089514D01*
X114268149Y-120092866D01*
X114272509Y-120096201D01*
X114276880Y-120099521D01*
X114281264Y-120102824D01*
X114285658Y-120106111D01*
X114290066Y-120109382D01*
X114294484Y-120112637D01*
X114298914Y-120115875D01*
X114303355Y-120119097D01*
X114307808Y-120122303D01*
X114312272Y-120125492D01*
X114316748Y-120128665D01*
X114321235Y-120131820D01*
X114325733Y-120134960D01*
X114330242Y-120138083D01*
X114334763Y-120141189D01*
X114339294Y-120144278D01*
X114343836Y-120147351D01*
X114348389Y-120150407D01*
X114352953Y-120153446D01*
X114357527Y-120156468D01*
X114362113Y-120159473D01*
X114366708Y-120162461D01*
X114371315Y-120165433D01*
X114375931Y-120168387D01*
X114380559Y-120171324D01*
X114385196Y-120174243D01*
X114389845Y-120177147D01*
X114394502Y-120180032D01*
X114399171Y-120182900D01*
X114403849Y-120185751D01*
X114408537Y-120188585D01*
X114413235Y-120191401D01*
X114417944Y-120194200D01*
X114422661Y-120196981D01*
X114427390Y-120199745D01*
X114432126Y-120202492D01*
X114436874Y-120205221D01*
X114441630Y-120207932D01*
X114446397Y-120210626D01*
X114451172Y-120213301D01*
X114455957Y-120215960D01*
X114460751Y-120218600D01*
X114465555Y-120221224D01*
X114470367Y-120223828D01*
X114475189Y-120226416D01*
X114480019Y-120228985D01*
X114484860Y-120231537D01*
X114489708Y-120234070D01*
X114494566Y-120236586D01*
X114499432Y-120239084D01*
X114504308Y-120241564D01*
X114509191Y-120244025D01*
X114514084Y-120246469D01*
X114518984Y-120248894D01*
X114523894Y-120251302D01*
X114528811Y-120253690D01*
X114533738Y-120256062D01*
X114538672Y-120258414D01*
X114543615Y-120260749D01*
X114548565Y-120263065D01*
X114553525Y-120265363D01*
X114558491Y-120267642D01*
X114563467Y-120269904D01*
X114568449Y-120272146D01*
X114573441Y-120274371D01*
X114578438Y-120276577D01*
X114583445Y-120278765D01*
X114588458Y-120280933D01*
X114593481Y-120283084D01*
X114598509Y-120285216D01*
X114603547Y-120287330D01*
X114608590Y-120289424D01*
X114613642Y-120291501D01*
X114618700Y-120293558D01*
X114623767Y-120295597D01*
X114628839Y-120297617D01*
X114633920Y-120299619D01*
X114639007Y-120301601D01*
X114644102Y-120303566D01*
X114649202Y-120305511D01*
X114654312Y-120307438D01*
X114659426Y-120309345D01*
X114664548Y-120311234D01*
X114669676Y-120313104D01*
X114674812Y-120314956D01*
X114679953Y-120316787D01*
X114685102Y-120318601D01*
X114690256Y-120320395D01*
X114695419Y-120322171D01*
X114700585Y-120323927D01*
X114705760Y-120325665D01*
X114710940Y-120327383D01*
X114716127Y-120329083D01*
X114721319Y-120330763D01*
X114726519Y-120332425D01*
X114731722Y-120334066D01*
X114736934Y-120335690D01*
X114742150Y-120337294D01*
X114747373Y-120338879D01*
X114752601Y-120340444D01*
X114757836Y-120341991D01*
X114763075Y-120343518D01*
X114768321Y-120345027D01*
X114773571Y-120346515D01*
X114778829Y-120347985D01*
X114784090Y-120349436D01*
X114789359Y-120350867D01*
X114794631Y-120352279D01*
X114799910Y-120353672D01*
X114805193Y-120355045D01*
X114810483Y-120356399D01*
X114815776Y-120357734D01*
X114821076Y-120359049D01*
X114826380Y-120360345D01*
X114831690Y-120361622D01*
X114837003Y-120362879D01*
X114842324Y-120364117D01*
X114847647Y-120365335D01*
X114852977Y-120366534D01*
X114858309Y-120367713D01*
X114863649Y-120368874D01*
X114868991Y-120370014D01*
X114874340Y-120371135D01*
X114879691Y-120372237D01*
X114885049Y-120373319D01*
X114890410Y-120374382D01*
X114895777Y-120375425D01*
X114901146Y-120376448D01*
X114906522Y-120377452D01*
X114911900Y-120378437D01*
X114917284Y-120379402D01*
X114922670Y-120380347D01*
X114928063Y-120381273D01*
X114933457Y-120382179D01*
X114938858Y-120383065D01*
X114944261Y-120383932D01*
X114949670Y-120384779D01*
X114955081Y-120385607D01*
X114960497Y-120386415D01*
X114965916Y-120387203D01*
X114971340Y-120387972D01*
X114976766Y-120388720D01*
X114982198Y-120389450D01*
X114987631Y-120390159D01*
X114993070Y-120390849D01*
X114998511Y-120391519D01*
X115003957Y-120392169D01*
X115009405Y-120392800D01*
X115014858Y-120393410D01*
X115020312Y-120394001D01*
X115025773Y-120394573D01*
X115031234Y-120395124D01*
X115036700Y-120395656D01*
X115042168Y-120396168D01*
X115047641Y-120396660D01*
X115053115Y-120397132D01*
X115058595Y-120397585D01*
X115064075Y-120398017D01*
X115069561Y-120398430D01*
X115075047Y-120398823D01*
X115080539Y-120399196D01*
X115086031Y-120399549D01*
X115091529Y-120399882D01*
X115097027Y-120400196D01*
X115102530Y-120400489D01*
X115108034Y-120400763D01*
X115113542Y-120401017D01*
X115119051Y-120401250D01*
X115124566Y-120401464D01*
X115130080Y-120401658D01*
X115135599Y-120401832D01*
X115141119Y-120401986D01*
X115146643Y-120402121D01*
X115152168Y-120402235D01*
X115157698Y-120402329D01*
X115163227Y-120402403D01*
X115168761Y-120402457D01*
X115174295Y-120402491D01*
X115179834Y-120402506D01*
X115180989Y-120402506D01*
X115080998Y-71402506D02*
X189180989Y-71402506D01*
X115080998Y-71405161D02*
X115059279Y-71405201D01*
X115037561Y-71405321D01*
X115015843Y-71405521D01*
X114994125Y-71405801D01*
X114972409Y-71406161D01*
X114950695Y-71406601D01*
X114928982Y-71407121D01*
X114907271Y-71407721D01*
X114885562Y-71408400D01*
X114863856Y-71409160D01*
X114842153Y-71410000D01*
X114820453Y-71410920D01*
X114798757Y-71411919D01*
X114777064Y-71412999D01*
X114755375Y-71414158D01*
X114733691Y-71415397D01*
X114712011Y-71416716D01*
X114690336Y-71418115D01*
X114668667Y-71419594D01*
X114647003Y-71421153D01*
X114625345Y-71422791D01*
X114603692Y-71424509D01*
X114582047Y-71426307D01*
X114560408Y-71428185D01*
X114538776Y-71430142D01*
X114517151Y-71432179D01*
X114495533Y-71434296D01*
X114473924Y-71436492D01*
X114452323Y-71438768D01*
X114430730Y-71441123D01*
X114409146Y-71443558D01*
X114398357Y-71444805D01*
X114387571Y-71446072D01*
X114376787Y-71447359D01*
X114366005Y-71448666D01*
X114355226Y-71449993D01*
X114344449Y-71451339D01*
X114333675Y-71452706D01*
X114322903Y-71454092D01*
X114312134Y-71455498D01*
X114301367Y-71456924D01*
X114290603Y-71458370D01*
X114279842Y-71459835D01*
X114269083Y-71461321D01*
X114258327Y-71462826D01*
X114247574Y-71464351D01*
X114236824Y-71465895D01*
X114226076Y-71467460D01*
X114215331Y-71469044D01*
X114204590Y-71470649D01*
X114193851Y-71472273D01*
X114183115Y-71473916D01*
X114172382Y-71475580D01*
X114161653Y-71477263D01*
X114150926Y-71478966D01*
X114140203Y-71480689D01*
X114129482Y-71482431D01*
X114118765Y-71484194D01*
X114108051Y-71485976D01*
X114097341Y-71487777D01*
X114086633Y-71489599D01*
X114075930Y-71491440D01*
X114065229Y-71493301D01*
X114054532Y-71495181D01*
X114043838Y-71497082D01*
X114033148Y-71499002D01*
X114022461Y-71500941D01*
X114011778Y-71502901D01*
X114001099Y-71504880D01*
X113990423Y-71506878D01*
X113979751Y-71508897D01*
X113969083Y-71510935D01*
X113958418Y-71512992D01*
X113947757Y-71515070D01*
X113937100Y-71517167D01*
X113926447Y-71519283D01*
X113915797Y-71521419D01*
X113905152Y-71523575D01*
X113894511Y-71525751D01*
X113883873Y-71527946D01*
X113873240Y-71530160D01*
X113862611Y-71532394D01*
X113851985Y-71534648D01*
X113841364Y-71536921D01*
X113830747Y-71539214D01*
X113820135Y-71541527D01*
X113809526Y-71543859D01*
X113798922Y-71546210D01*
X113788322Y-71548581D01*
X113771000Y-71552500D01*
X115180989Y-72902506D02*
X115162006Y-72902546D01*
X115143024Y-72902666D01*
X115124044Y-72902866D01*
X115105066Y-72903146D01*
X115086091Y-72903506D01*
X115067118Y-72903945D01*
X115048148Y-72904465D01*
X115029181Y-72905064D01*
X115010218Y-72905744D01*
X114991259Y-72906503D01*
X114972304Y-72907342D01*
X114953354Y-72908262D01*
X114934408Y-72909260D01*
X114915467Y-72910339D01*
X114896531Y-72911498D01*
X114877601Y-72912736D01*
X114858677Y-72914054D01*
X114839760Y-72915452D01*
X114820848Y-72916929D01*
X114801944Y-72918487D01*
X114783046Y-72920123D01*
X114764156Y-72921840D01*
X114745274Y-72923636D01*
X114726399Y-72925512D01*
X114707533Y-72927467D01*
X114688676Y-72929502D01*
X114669827Y-72931616D01*
X114650988Y-72933810D01*
X114632158Y-72936083D01*
X114613338Y-72938435D01*
X114594528Y-72940867D01*
X114575729Y-72943378D01*
X114556940Y-72945968D01*
X114538163Y-72948638D01*
X114519397Y-72951386D01*
X114500642Y-72954214D01*
X114481900Y-72957121D01*
X114463170Y-72960107D01*
X114444453Y-72963172D01*
X114425749Y-72966315D01*
X114407058Y-72969538D01*
X114388380Y-72972840D01*
X114369717Y-72976220D01*
X114351068Y-72979679D01*
X114332433Y-72983216D01*
X114313813Y-72986832D01*
X114295209Y-72990527D01*
X114276620Y-72994300D01*
X114258047Y-72998152D01*
X114239490Y-73002081D01*
X114220950Y-73006089D01*
X114202426Y-73010176D01*
X114183920Y-73014340D01*
X114165431Y-73018583D01*
X114146960Y-73022903D01*
X114128507Y-73027301D01*
X114110072Y-73031778D01*
X114091657Y-73036332D01*
X114073260Y-73040963D01*
X114054883Y-73045672D01*
X114036526Y-73050459D01*
X114018188Y-73055323D01*
X113999871Y-73060265D01*
X113981575Y-73065283D01*
X113963300Y-73070379D01*
X113945046Y-73075552D01*
X113926815Y-73080802D01*
X113908605Y-73086129D01*
X113890417Y-73091532D01*
X113872252Y-73097013D01*
X113854111Y-73102570D01*
X113835992Y-73108203D01*
X113817898Y-73113913D01*
X113799827Y-73119699D01*
X113781781Y-73125561D01*
X113763759Y-73131500D01*
X113745762Y-73137514D01*
X113727791Y-73143604D01*
X113709846Y-73149770D01*
X113691926Y-73156012D01*
X113674033Y-73162329D01*
X113656166Y-73168722D01*
X113638326Y-73175190D01*
X113620514Y-73181733D01*
X113602729Y-73188351D01*
X113584972Y-73195044D01*
X113567243Y-73201813D01*
X113549543Y-73208655D01*
X113531872Y-73215573D01*
X113514230Y-73222564D01*
X113496618Y-73229631D01*
X113479036Y-73236771D01*
X113461484Y-73243985D01*
X113452719Y-73247620D01*
X113443962Y-73251274D01*
X113435213Y-73254946D01*
X113426471Y-73258636D01*
X113417737Y-73262345D01*
X113409011Y-73266072D01*
X113400293Y-73269817D01*
X113391583Y-73273581D01*
X113382881Y-73277364D01*
X113374187Y-73281164D01*
X113365501Y-73284983D01*
X113356822Y-73288820D01*
X113348152Y-73292676D01*
X113339491Y-73296549D01*
X113330837Y-73300441D01*
X113322192Y-73304352D01*
X113313554Y-73308280D01*
X113304926Y-73312227D01*
X113296305Y-73316191D01*
X113287693Y-73320175D01*
X113279089Y-73324176D01*
X113270494Y-73328195D01*
X113261907Y-73332232D01*
X113253329Y-73336288D01*
X113244760Y-73340361D01*
X113236199Y-73344453D01*
X113227646Y-73348562D01*
X113219103Y-73352690D01*
X113210568Y-73356835D01*
X113202042Y-73360999D01*
X113193525Y-73365180D01*
X113185016Y-73369380D01*
X113176517Y-73373597D01*
X113168026Y-73377832D01*
X113159544Y-73382085D01*
X113151072Y-73386356D01*
X113142608Y-73390645D01*
X113134154Y-73394952D01*
X113125708Y-73399276D01*
X113117272Y-73403618D01*
X113108845Y-73407978D01*
X113100427Y-73412356D01*
X113092019Y-73416751D01*
X113083620Y-73421164D01*
X113075230Y-73425595D01*
X113066849Y-73430044D01*
X113058479Y-73434510D01*
X113050117Y-73438994D01*
X113041765Y-73443495D01*
X113033422Y-73448014D01*
X113025090Y-73452550D01*
X113016766Y-73457104D01*
X113008453Y-73461676D01*
X113000149Y-73466265D01*
X112991855Y-73470871D01*
X112983570Y-73475495D01*
X112975296Y-73480136D01*
X112967031Y-73484795D01*
X112958776Y-73489471D01*
X112950531Y-73494165D01*
X112942296Y-73498876D01*
X112934071Y-73503604D01*
X112925856Y-73508350D01*
X112917651Y-73513113D01*
X112909456Y-73517893D01*
X112901271Y-73522690D01*
X112893097Y-73527505D01*
X112884932Y-73532336D01*
X112876778Y-73537185D01*
X112868634Y-73542052D01*
X112860501Y-73546935D01*
X112852377Y-73551835D01*
X112844265Y-73556752D01*
X112836162Y-73561687D01*
X112828071Y-73566639D01*
X112819989Y-73571607D01*
X112811919Y-73576593D01*
X112803858Y-73581596D01*
X112795809Y-73586615D01*
X112787769Y-73591652D01*
X112779741Y-73596705D01*
X112771723Y-73601776D01*
X112763716Y-73606862D01*
X112755720Y-73611967D01*
X112747735Y-73617087D01*
X112739760Y-73622225D01*
X112731797Y-73627380D01*
X112723844Y-73632551D01*
X112715902Y-73637739D01*
X112707971Y-73642944D01*
X112700052Y-73648165D01*
X112692143Y-73653403D01*
X112684246Y-73658658D01*
X112676359Y-73663929D01*
X112668484Y-73669217D01*
X112660619Y-73674522D01*
X112652767Y-73679842D01*
X112644925Y-73685180D01*
X112637095Y-73690534D01*
X112629276Y-73695905D01*
X112621468Y-73701292D01*
X112613672Y-73706696D01*
X112605887Y-73712115D01*
X112598114Y-73717552D01*
X112590352Y-73723004D01*
X112582601Y-73728474D01*
X112574863Y-73733959D01*
X112567135Y-73739461D01*
X112559420Y-73744978D01*
X112551716Y-73750513D01*
X112544024Y-73756063D01*
X112536343Y-73761630D01*
X112528675Y-73767212D01*
X112521018Y-73772812D01*
X112513373Y-73778426D01*
X112505739Y-73784058D01*
X112498119Y-73789705D01*
X112490509Y-73795369D01*
X112482912Y-73801048D01*
X112475326Y-73806744D01*
X112467753Y-73812455D01*
X112460191Y-73818183D01*
X112452642Y-73823926D01*
X112445104Y-73829685D01*
X112437580Y-73835460D01*
X112430066Y-73841252D01*
X112422566Y-73847058D01*
X112415077Y-73852881D01*
X112407601Y-73858719D01*
X112400137Y-73864574D01*
X112392686Y-73870444D01*
X112385246Y-73876330D01*
X112377820Y-73882231D01*
X112370405Y-73888149D01*
X112363003Y-73894081D01*
X112355613Y-73900030D01*
X112348237Y-73905994D01*
X112340872Y-73911974D01*
X112333520Y-73917969D01*
X112326181Y-73923980D01*
X112318854Y-73930006D01*
X112311540Y-73936048D01*
X112304239Y-73942105D01*
X112296950Y-73948178D01*
X112289675Y-73954266D01*
X112282411Y-73960370D01*
X112275161Y-73966488D01*
X112267923Y-73972623D01*
X112260699Y-73978772D01*
X112253487Y-73984938D01*
X112246289Y-73991117D01*
X112239103Y-73997313D01*
X112231930Y-74003523D01*
X112224770Y-74009750D01*
X112217624Y-74015990D01*
X112210490Y-74022247D01*
X112203370Y-74028517D01*
X112196262Y-74034804D01*
X112189168Y-74041105D01*
X112182086Y-74047422D01*
X112175019Y-74053753D01*
X112167964Y-74060100D01*
X112160923Y-74066461D01*
X112153894Y-74072838D01*
X112146880Y-74079229D01*
X112139878Y-74085636D01*
X112132890Y-74092057D01*
X112125915Y-74098493D01*
X112118954Y-74104944D01*
X112112006Y-74111410D01*
X112105072Y-74117890D01*
X112098151Y-74124386D01*
X112091244Y-74130895D01*
X112084350Y-74137420D01*
X112077470Y-74143959D01*
X112070603Y-74150514D01*
X112063751Y-74157082D01*
X112056911Y-74163666D01*
X112050086Y-74170263D01*
X112043274Y-74176876D01*
X112036476Y-74183502D01*
X112029691Y-74190144D01*
X112022921Y-74196800D01*
X112016164Y-74203471D01*
X112009422Y-74210155D01*
X112002692Y-74216855D01*
X111999013Y-74220530D01*
X115180989Y-72902506D02*
X189080998Y-72902506D01*
X115180989Y-75902506D02*
X115169924Y-75902546D01*
X115158869Y-75902666D01*
X115147824Y-75902865D01*
X115136788Y-75903145D01*
X115125763Y-75903504D01*
X115114749Y-75903942D01*
X115103745Y-75904461D01*
X115092752Y-75905058D01*
X115081771Y-75905735D01*
X115070801Y-75906492D01*
X115059843Y-75907327D01*
X115048898Y-75908242D01*
X115037966Y-75909236D01*
X115027046Y-75910309D01*
X115016140Y-75911461D01*
X115005247Y-75912692D01*
X114994368Y-75914002D01*
X114983504Y-75915390D01*
X114972654Y-75916857D01*
X114961819Y-75918403D01*
X114951000Y-75920027D01*
X114940196Y-75921730D01*
X114929408Y-75923511D01*
X114918637Y-75925371D01*
X114907882Y-75927309D01*
X114897144Y-75929324D01*
X114886424Y-75931418D01*
X114875722Y-75933590D01*
X114865038Y-75935840D01*
X114854373Y-75938167D01*
X114843727Y-75940572D01*
X114833100Y-75943055D01*
X114822493Y-75945615D01*
X114811906Y-75948252D01*
X114801340Y-75950967D01*
X114790794Y-75953759D01*
X114780271Y-75956627D01*
X114769769Y-75959573D01*
X114759289Y-75962595D01*
X114748832Y-75965694D01*
X114738398Y-75968870D01*
X114727988Y-75972122D01*
X114717602Y-75975450D01*
X114707240Y-75978854D01*
X114696903Y-75982334D01*
X114686592Y-75985890D01*
X114676306Y-75989522D01*
X114666047Y-75993229D01*
X114655814Y-75997012D01*
X114645608Y-76000870D01*
X114635430Y-76004802D01*
X114625280Y-76008810D01*
X114615159Y-76012892D01*
X114605066Y-76017049D01*
X114595004Y-76021280D01*
X114584971Y-76025585D01*
X114574969Y-76029964D01*
X114564997Y-76034417D01*
X114555057Y-76038944D01*
X114545149Y-76043543D01*
X114535274Y-76048216D01*
X114525431Y-76052961D01*
X114515622Y-76057780D01*
X114505847Y-76062670D01*
X114496106Y-76067633D01*
X114486400Y-76072668D01*
X114476730Y-76077774D01*
X114467096Y-76082952D01*
X114457498Y-76088201D01*
X114447937Y-76093521D01*
X114438413Y-76098912D01*
X114428928Y-76104372D01*
X114419481Y-76109904D01*
X114410073Y-76115504D01*
X114400705Y-76121175D01*
X114391376Y-76126914D01*
X114382089Y-76132723D01*
X114372842Y-76138600D01*
X114363637Y-76144545D01*
X114354474Y-76150559D01*
X114345354Y-76156640D01*
X114336277Y-76162788D01*
X114327244Y-76169003D01*
X114318255Y-76175285D01*
X114309311Y-76181633D01*
X114300412Y-76188048D01*
X114291559Y-76194527D01*
X114282752Y-76201072D01*
X114273992Y-76207682D01*
X114265279Y-76214357D01*
X114256614Y-76221095D01*
X114247997Y-76227897D01*
X114239430Y-76234763D01*
X114230911Y-76241691D01*
X114222443Y-76248682D01*
X114214025Y-76255735D01*
X114205658Y-76262850D01*
X114197342Y-76270026D01*
X114189078Y-76277263D01*
X114180866Y-76284561D01*
X114172708Y-76291918D01*
X114164602Y-76299335D01*
X114156551Y-76306811D01*
X114148554Y-76314346D01*
X114140611Y-76321940D01*
X114132724Y-76329591D01*
X114124893Y-76337299D01*
X114117118Y-76345064D01*
X114113252Y-76348968D01*
X114109399Y-76352886D01*
X114105562Y-76356818D01*
X114101738Y-76360764D01*
X114097929Y-76364723D01*
X114094135Y-76368697D01*
X114090355Y-76372684D01*
X114086589Y-76376685D01*
X114082838Y-76380700D01*
X114079102Y-76384728D01*
X114075381Y-76388770D01*
X114071674Y-76392825D01*
X114067982Y-76396893D01*
X114064305Y-76400976D01*
X114060644Y-76405071D01*
X114056997Y-76409179D01*
X114053365Y-76413300D01*
X114049748Y-76417435D01*
X114046147Y-76421583D01*
X114042560Y-76425744D01*
X114038990Y-76429917D01*
X114035434Y-76434103D01*
X114031894Y-76438302D01*
X114028369Y-76442515D01*
X114024859Y-76446739D01*
X114021366Y-76450976D01*
X114017888Y-76455226D01*
X114014425Y-76459488D01*
X114010978Y-76463762D01*
X114007547Y-76468049D01*
X114004132Y-76472348D01*
X114000732Y-76476660D01*
X113997349Y-76480983D01*
X113993981Y-76485319D01*
X113990629Y-76489666D01*
X113987294Y-76494026D01*
X113983974Y-76498397D01*
X113980671Y-76502781D01*
X113977384Y-76507176D01*
X113974113Y-76511583D01*
X113970858Y-76516001D01*
X113967620Y-76520431D01*
X113964398Y-76524872D01*
X113961192Y-76529326D01*
X113958003Y-76533790D01*
X113954830Y-76538266D01*
X113951675Y-76542752D01*
X113948535Y-76547251D01*
X113945412Y-76551759D01*
X113942306Y-76556280D01*
X113939217Y-76560811D01*
X113936144Y-76565354D01*
X113933088Y-76569906D01*
X113930049Y-76574470D01*
X113927027Y-76579045D01*
X113924022Y-76583630D01*
X113921034Y-76588226D01*
X113918062Y-76592832D01*
X113915108Y-76597449D01*
X113912171Y-76602076D01*
X113909252Y-76606714D01*
X113906348Y-76611362D01*
X113903463Y-76616019D01*
X113900595Y-76620688D01*
X113897744Y-76625366D01*
X113894910Y-76630055D01*
X113892094Y-76634752D01*
X113889295Y-76639461D01*
X113886514Y-76644179D01*
X113883750Y-76648907D01*
X113881003Y-76653644D01*
X113878274Y-76658391D01*
X113875563Y-76663147D01*
X113872869Y-76667914D01*
X113870194Y-76672689D01*
X113867535Y-76677475D01*
X113864895Y-76682268D01*
X113862271Y-76687072D01*
X113859667Y-76691884D01*
X113857079Y-76696707D01*
X113854510Y-76701537D01*
X113851958Y-76706377D01*
X113849425Y-76711225D01*
X113846909Y-76716084D01*
X113844411Y-76720949D01*
X113841931Y-76725825D01*
X113839470Y-76730708D01*
X113837026Y-76735601D01*
X113834601Y-76740501D01*
X113832193Y-76745411D01*
X113829805Y-76750328D01*
X113827433Y-76755255D01*
X113825081Y-76760189D01*
X113822746Y-76765133D01*
X113820430Y-76770083D01*
X113818132Y-76775042D01*
X113815853Y-76780008D01*
X113813591Y-76784984D01*
X113811349Y-76789966D01*
X113809124Y-76794958D01*
X113806918Y-76799956D01*
X113804730Y-76804963D01*
X113802562Y-76809976D01*
X113800411Y-76814998D01*
X113798279Y-76820026D01*
X113796165Y-76825064D01*
X113794071Y-76830107D01*
X113791994Y-76835159D01*
X113789937Y-76840217D01*
X113787898Y-76845284D01*
X113785878Y-76850356D01*
X113783876Y-76855438D01*
X113781894Y-76860524D01*
X113779929Y-76865619D01*
X113777984Y-76870720D01*
X113776057Y-76875829D01*
X113774150Y-76880943D01*
X113772261Y-76886066D01*
X113770391Y-76891193D01*
X113768539Y-76896330D01*
X113766708Y-76901470D01*
X113764894Y-76906620D01*
X113763100Y-76911774D01*
X113761324Y-76916936D01*
X113759568Y-76922103D01*
X113757830Y-76927278D01*
X113756112Y-76932457D01*
X113754412Y-76937645D01*
X113752732Y-76942836D01*
X113751070Y-76948036D01*
X113749429Y-76953240D01*
X113747805Y-76958451D01*
X113746201Y-76963667D01*
X113744616Y-76968891D01*
X113743051Y-76974118D01*
X113741504Y-76979353D01*
X113739977Y-76984592D01*
X113738468Y-76989839D01*
X113736980Y-76995089D01*
X113735510Y-77000346D01*
X113734059Y-77005608D01*
X113732628Y-77010876D01*
X113731216Y-77016148D01*
X113729823Y-77021428D01*
X113728450Y-77026710D01*
X113727096Y-77032000D01*
X113725761Y-77037293D01*
X113724446Y-77042594D01*
X113723150Y-77047897D01*
X113721873Y-77053207D01*
X113720616Y-77058521D01*
X113719378Y-77063841D01*
X113718160Y-77069164D01*
X113716961Y-77074494D01*
X113715782Y-77079827D01*
X113714621Y-77085166D01*
X113713481Y-77090508D01*
X113712359Y-77095857D01*
X113711258Y-77101209D01*
X113710176Y-77106567D01*
X113709113Y-77111927D01*
X113708070Y-77117294D01*
X113707047Y-77122663D01*
X113706042Y-77128039D01*
X113705058Y-77133417D01*
X113704093Y-77138801D01*
X113703148Y-77144187D01*
X113702222Y-77149580D01*
X113701316Y-77154975D01*
X113700430Y-77160376D01*
X113699563Y-77165778D01*
X113698716Y-77171187D01*
X113697888Y-77176598D01*
X113697080Y-77182015D01*
X113696292Y-77187433D01*
X113695523Y-77192857D01*
X113694775Y-77198283D01*
X113694045Y-77203715D01*
X113693336Y-77209148D01*
X113692646Y-77214588D01*
X113691976Y-77220028D01*
X113691326Y-77225474D01*
X113690695Y-77230922D01*
X113690085Y-77236375D01*
X113689494Y-77241830D01*
X113688922Y-77247290D01*
X113688371Y-77252751D01*
X113687839Y-77258218D01*
X113687327Y-77263685D01*
X113686835Y-77269159D01*
X113686363Y-77274633D01*
X113685910Y-77280112D01*
X113685478Y-77285592D01*
X113685065Y-77291078D01*
X113684672Y-77296564D01*
X113684299Y-77302056D01*
X113683946Y-77307548D01*
X113683613Y-77313046D01*
X113683299Y-77318544D01*
X113683006Y-77324047D01*
X113682732Y-77329551D01*
X113682478Y-77335060D01*
X113682245Y-77340569D01*
X113682031Y-77346083D01*
X113681837Y-77351597D01*
X113681663Y-77357117D01*
X113681509Y-77362636D01*
X113681374Y-77368161D01*
X113681260Y-77373685D01*
X113681166Y-77379215D01*
X113681092Y-77384744D01*
X113681038Y-77390278D01*
X113681004Y-77395813D01*
X113680989Y-77401351D01*
X113680989Y-77402506D01*
X115180989Y-75902506D02*
X189180989Y-75902506D01*
X115180989Y-118902506D02*
X115180989Y-77402506D01*
X115280995Y-74402506D02*
X115265085Y-74402546D01*
X115249184Y-74402666D01*
X115233292Y-74402865D01*
X115217411Y-74403145D01*
X115201539Y-74403504D01*
X115185677Y-74403943D01*
X115169826Y-74404461D01*
X115153985Y-74405059D01*
X115138154Y-74405737D01*
X115122335Y-74406495D01*
X115106527Y-74407331D01*
X115090730Y-74408248D01*
X115074945Y-74409243D01*
X115059171Y-74410318D01*
X115043409Y-74411473D01*
X115027660Y-74412706D01*
X115011922Y-74414019D01*
X114996198Y-74415411D01*
X114980486Y-74416882D01*
X114964787Y-74418432D01*
X114949102Y-74420061D01*
X114933430Y-74421769D01*
X114917772Y-74423557D01*
X114902127Y-74425422D01*
X114886497Y-74427367D01*
X114870882Y-74429391D01*
X114855281Y-74431493D01*
X114839694Y-74433674D01*
X114824124Y-74435933D01*
X114808568Y-74438271D01*
X114793028Y-74440687D01*
X114777504Y-74443182D01*
X114761996Y-74445756D01*
X114746504Y-74448407D01*
X114731029Y-74451137D01*
X114715571Y-74453945D01*
X114700130Y-74456831D01*
X114684707Y-74459796D01*
X114669301Y-74462838D01*
X114653913Y-74465958D01*
X114638543Y-74469156D01*
X114623192Y-74472432D01*
X114607860Y-74475786D01*
X114592546Y-74479217D01*
X114577252Y-74482726D01*
X114561977Y-74486313D01*
X114546722Y-74489977D01*
X114531487Y-74493718D01*
X114516273Y-74497537D01*
X114501079Y-74501433D01*
X114485906Y-74505406D01*
X114470755Y-74509456D01*
X114455625Y-74513583D01*
X114440516Y-74517787D01*
X114425430Y-74522068D01*
X114410366Y-74526426D01*
X114395325Y-74530860D01*
X114380307Y-74535371D01*
X114365313Y-74539958D01*
X114350342Y-74544622D01*
X114335394Y-74549362D01*
X114320471Y-74554179D01*
X114305573Y-74559071D01*
X114290699Y-74564039D01*
X114275851Y-74569084D01*
X114261028Y-74574204D01*
X114246230Y-74579399D01*
X114231459Y-74584671D01*
X114216714Y-74590018D01*
X114201996Y-74595440D01*
X114187305Y-74600937D01*
X114172641Y-74606510D01*
X114158005Y-74612158D01*
X114143397Y-74617880D01*
X114128817Y-74623677D01*
X114114266Y-74629549D01*
X114099744Y-74635496D01*
X114085252Y-74641517D01*
X114070789Y-74647612D01*
X114056356Y-74653781D01*
X114041953Y-74660024D01*
X114027581Y-74666341D01*
X114013240Y-74672732D01*
X113998930Y-74679196D01*
X113984652Y-74685734D01*
X113970406Y-74692345D01*
X113956193Y-74699030D01*
X113942012Y-74705787D01*
X113927864Y-74712617D01*
X113913750Y-74719520D01*
X113899669Y-74726495D01*
X113885623Y-74733542D01*
X113871611Y-74740662D01*
X113857634Y-74747854D01*
X113843692Y-74755117D01*
X113829785Y-74762453D01*
X113815915Y-74769859D01*
X113802080Y-74777337D01*
X113788282Y-74784886D01*
X113774521Y-74792507D01*
X113760798Y-74800198D01*
X113747112Y-74807959D01*
X113733464Y-74815791D01*
X113719854Y-74823693D01*
X113706284Y-74831665D01*
X113692752Y-74839707D01*
X113679260Y-74847818D01*
X113665807Y-74855999D01*
X113652395Y-74864249D01*
X113639023Y-74872568D01*
X113625692Y-74880955D01*
X113612402Y-74889412D01*
X113599154Y-74897936D01*
X113585948Y-74906529D01*
X113572785Y-74915189D01*
X113559664Y-74923917D01*
X113546586Y-74932713D01*
X113533551Y-74941576D01*
X113520560Y-74950505D01*
X113507614Y-74959502D01*
X113494712Y-74968565D01*
X113481854Y-74977694D01*
X113469042Y-74986889D01*
X113456276Y-74996150D01*
X113443555Y-75005476D01*
X113430881Y-75014868D01*
X113418254Y-75024324D01*
X113405673Y-75033845D01*
X113393140Y-75043431D01*
X113380654Y-75053081D01*
X113368217Y-75062795D01*
X113355828Y-75072572D01*
X113343488Y-75082413D01*
X113331197Y-75092317D01*
X113318956Y-75102284D01*
X113306764Y-75112313D01*
X113294623Y-75122405D01*
X113282532Y-75132558D01*
X113270492Y-75142774D01*
X113258504Y-75153050D01*
X113246567Y-75163388D01*
X113234681Y-75173787D01*
X113222849Y-75184246D01*
X113211069Y-75194766D01*
X113199341Y-75205345D01*
X113187668Y-75215984D01*
X113176047Y-75226682D01*
X113164481Y-75237440D01*
X113152969Y-75248256D01*
X113141512Y-75259131D01*
X113130110Y-75270063D01*
X113118763Y-75281054D01*
X113107472Y-75292101D01*
X113096237Y-75303206D01*
X113085058Y-75314368D01*
X113079489Y-75319970D01*
X113073935Y-75325586D01*
X113068396Y-75331217D01*
X113062870Y-75336861D01*
X113057359Y-75342519D01*
X113051862Y-75348191D01*
X113046380Y-75353877D01*
X113040911Y-75359577D01*
X113035458Y-75365291D01*
X113030019Y-75371018D01*
X113024595Y-75376759D01*
X113019185Y-75382514D01*
X113013789Y-75388283D01*
X113008409Y-75394065D01*
X113003043Y-75399860D01*
X112997692Y-75405669D01*
X112992356Y-75411492D01*
X112987034Y-75417328D01*
X112981728Y-75423177D01*
X112976436Y-75429040D01*
X112971159Y-75434916D01*
X112965897Y-75440805D01*
X112960651Y-75446707D01*
X112955419Y-75452623D01*
X112950203Y-75458552D01*
X112945001Y-75464494D01*
X112939815Y-75470448D01*
X112934644Y-75476416D01*
X112929488Y-75482397D01*
X112924347Y-75488391D01*
X112919222Y-75494397D01*
X112914112Y-75500417D01*
X112909018Y-75506449D01*
X112903938Y-75512494D01*
X112898875Y-75518551D01*
X112893827Y-75524622D01*
X112888794Y-75530705D01*
X112883777Y-75536800D01*
X112878776Y-75542908D01*
X112873790Y-75549029D01*
X112868820Y-75555161D01*
X112863865Y-75561307D01*
X112858927Y-75567464D01*
X112854004Y-75573634D01*
X112849097Y-75579816D01*
X112844205Y-75586011D01*
X112839330Y-75592217D01*
X112834471Y-75598436D01*
X112829627Y-75604666D01*
X112824800Y-75610909D01*
X112819988Y-75617164D01*
X112815193Y-75623431D01*
X112810414Y-75629709D01*
X112805650Y-75636000D01*
X112800903Y-75642302D01*
X112796172Y-75648616D01*
X112791458Y-75654941D01*
X112786759Y-75661279D01*
X112782077Y-75667628D01*
X112777411Y-75673989D01*
X112772762Y-75680361D01*
X112768128Y-75686745D01*
X112763512Y-75693139D01*
X112758911Y-75699546D01*
X112754328Y-75705964D01*
X112749760Y-75712393D01*
X112745210Y-75718833D01*
X112740675Y-75725286D01*
X112736158Y-75731748D01*
X112731656Y-75738223D01*
X112727172Y-75744707D01*
X112722704Y-75751204D01*
X112718254Y-75757710D01*
X112713819Y-75764229D01*
X112709402Y-75770758D01*
X112705001Y-75777298D01*
X112700618Y-75783848D01*
X112696250Y-75790410D01*
X112691901Y-75796982D01*
X112687567Y-75803565D01*
X112683251Y-75810158D01*
X112678952Y-75816763D01*
X112674670Y-75823377D01*
X112670404Y-75830003D01*
X112666157Y-75836638D01*
X112661925Y-75843285D01*
X112657712Y-75849941D01*
X112653515Y-75856608D01*
X112649335Y-75863284D01*
X112645172Y-75869972D01*
X112641028Y-75876669D01*
X112636899Y-75883377D01*
X112632789Y-75890094D01*
X112628695Y-75896823D01*
X112624620Y-75903560D01*
X112620561Y-75910308D01*
X112616520Y-75917065D01*
X112612495Y-75923833D01*
X112608489Y-75930610D01*
X112604500Y-75937398D01*
X112600529Y-75944194D01*
X112596575Y-75951001D01*
X112592638Y-75957817D01*
X112588719Y-75964643D01*
X112584818Y-75971478D01*
X112580934Y-75978323D01*
X112577068Y-75985177D01*
X112573220Y-75992041D01*
X112569389Y-75998914D01*
X112565576Y-76005797D01*
X112561781Y-76012688D01*
X112558003Y-76019590D01*
X112554244Y-76026499D01*
X112550501Y-76033419D01*
X112546777Y-76040347D01*
X112543071Y-76047285D01*
X112539383Y-76054231D01*
X112535712Y-76061187D01*
X112532059Y-76068151D01*
X112528424Y-76075125D01*
X112524808Y-76082107D01*
X112521209Y-76089098D01*
X112517628Y-76096097D01*
X112514065Y-76103107D01*
X112510521Y-76110123D01*
X112506993Y-76117149D01*
X112503485Y-76124183D01*
X112499994Y-76131227D01*
X112496522Y-76138277D01*
X112493068Y-76145338D01*
X112489632Y-76152405D01*
X112486214Y-76159483D01*
X112482814Y-76166567D01*
X112479432Y-76173661D01*
X112476070Y-76180761D01*
X112472724Y-76187872D01*
X112469398Y-76194988D01*
X112466089Y-76202115D01*
X112462799Y-76209248D01*
X112459527Y-76216391D01*
X112456274Y-76223540D01*
X112453039Y-76230699D01*
X112449823Y-76237863D01*
X112446624Y-76245038D01*
X112443445Y-76252218D01*
X112440283Y-76259408D01*
X112437141Y-76266604D01*
X112434016Y-76273810D01*
X112430910Y-76281021D01*
X112427823Y-76288241D01*
X112424754Y-76295468D01*
X112421703Y-76302703D01*
X112418672Y-76309945D01*
X112415659Y-76317195D01*
X112412665Y-76324451D01*
X112409688Y-76331717D01*
X112406731Y-76338987D01*
X112403792Y-76346267D01*
X112400873Y-76353552D01*
X112397971Y-76360847D01*
X112395089Y-76368146D01*
X112392225Y-76375455D01*
X112389380Y-76382768D01*
X112386553Y-76390091D01*
X112383746Y-76397418D01*
X112380957Y-76404755D01*
X112378187Y-76412096D01*
X112375436Y-76419446D01*
X112372704Y-76426801D01*
X112369990Y-76434165D01*
X112367295Y-76441533D01*
X112364619Y-76448911D01*
X112361962Y-76456292D01*
X112359324Y-76463683D01*
X112356705Y-76471078D01*
X112354104Y-76478481D01*
X112351523Y-76485889D01*
X112348961Y-76493306D01*
X112346418Y-76500726D01*
X112343893Y-76508156D01*
X112341388Y-76515589D01*
X112338901Y-76523031D01*
X112336434Y-76530477D01*
X112333985Y-76537931D01*
X112331556Y-76545389D01*
X112329145Y-76552856D01*
X112326754Y-76560327D01*
X112324382Y-76567805D01*
X112322029Y-76575288D01*
X112319695Y-76582779D01*
X112317380Y-76590273D01*
X112315084Y-76597776D01*
X112312807Y-76605282D01*
X112310550Y-76612796D01*
X112308312Y-76620314D01*
X112306092Y-76627840D01*
X112303892Y-76635369D01*
X112301711Y-76642907D01*
X112299550Y-76650447D01*
X112297407Y-76657996D01*
X112295284Y-76665547D01*
X112293180Y-76673107D01*
X112291096Y-76680670D01*
X112289030Y-76688240D01*
X112286984Y-76695814D01*
X112284957Y-76703395D01*
X112282949Y-76710980D01*
X112280961Y-76718572D01*
X112278992Y-76726167D01*
X112277042Y-76733769D01*
X112275112Y-76741374D01*
X112273201Y-76748987D01*
X112271309Y-76756603D01*
X112269437Y-76764226D01*
X112267584Y-76771852D01*
X112265750Y-76779485D01*
X112263936Y-76787121D01*
X112262141Y-76794764D01*
X112260366Y-76802409D01*
X112258610Y-76810062D01*
X112256873Y-76817718D01*
X112255156Y-76825380D01*
X112253458Y-76833045D01*
X112251780Y-76840717D01*
X112250121Y-76848392D01*
X112248482Y-76856073D01*
X112246862Y-76863757D01*
X112245262Y-76871448D01*
X112243681Y-76879140D01*
X112242119Y-76886840D01*
X112240578Y-76894542D01*
X112239055Y-76902251D01*
X112237552Y-76909962D01*
X112236069Y-76917680D01*
X112234605Y-76925399D01*
X112233161Y-76933126D01*
X112231736Y-76940854D01*
X112230331Y-76948589D01*
X112228946Y-76956326D01*
X112227579Y-76964069D01*
X112226233Y-76971814D01*
X112224906Y-76979566D01*
X112223599Y-76987320D01*
X112222311Y-76995080D01*
X112221044Y-77002841D01*
X112219795Y-77010609D01*
X112218566Y-77018379D01*
X112217357Y-77026155D01*
X112216168Y-77033933D01*
X112214998Y-77041716D01*
X112213848Y-77049502D01*
X112212717Y-77057293D01*
X112211607Y-77065086D01*
X112210515Y-77072885D01*
X112209444Y-77080686D01*
X112208392Y-77088492D01*
X112207360Y-77096300D01*
X112206348Y-77104114D01*
X112205355Y-77111929D01*
X112204382Y-77119750D01*
X112203429Y-77127573D01*
X112202495Y-77135401D01*
X112201582Y-77143230D01*
X112200688Y-77151066D01*
X112199814Y-77158902D01*
X112198959Y-77166744D01*
X112198124Y-77174587D01*
X112197309Y-77182436D01*
X112196514Y-77190286D01*
X112195739Y-77198141D01*
X112194983Y-77205997D01*
X112194247Y-77213859D01*
X112193531Y-77221722D01*
X112192835Y-77229591D01*
X112192159Y-77237460D01*
X112191502Y-77245335D01*
X112190866Y-77253210D01*
X112190249Y-77261091D01*
X112189652Y-77268973D01*
X112189074Y-77276860D01*
X112188517Y-77284747D01*
X112187979Y-77292640D01*
X112187462Y-77300534D01*
X112186964Y-77308432D01*
X112186486Y-77316332D01*
X112186028Y-77324236D01*
X112185590Y-77332141D01*
X112185171Y-77340052D01*
X112184773Y-77347962D01*
X112184394Y-77355878D01*
X112184036Y-77363794D01*
X112183697Y-77371716D01*
X112183378Y-77379637D01*
X112183080Y-77387564D01*
X112182801Y-77395490D01*
X112182542Y-77403422D01*
X112182303Y-77411354D01*
X112182084Y-77419291D01*
X112181885Y-77427228D01*
X112181705Y-77435170D01*
X112181546Y-77443112D01*
X112181407Y-77451059D01*
X112181288Y-77459006D01*
X112181188Y-77466958D01*
X112181109Y-77474910D01*
X112181050Y-77482867D01*
X112181010Y-77490823D01*
X112180991Y-77498784D01*
X112180989Y-77502482D01*
X115280995Y-74402506D02*
X189180989Y-74402506D01*
X189080998Y-121902506D02*
X115280995Y-121902506D01*
X189080998Y-121902506D02*
X189096908Y-121902466D01*
X189112809Y-121902346D01*
X189128701Y-121902146D01*
X189144583Y-121901867D01*
X189160455Y-121901508D01*
X189176317Y-121901069D01*
X189192168Y-121900550D01*
X189208009Y-121899951D01*
X189223840Y-121899274D01*
X189239659Y-121898516D01*
X189255467Y-121897679D01*
X189271264Y-121896763D01*
X189287050Y-121895767D01*
X189302824Y-121894692D01*
X189318586Y-121893537D01*
X189334335Y-121892304D01*
X189350072Y-121890991D01*
X189365797Y-121889598D01*
X189381509Y-121888127D01*
X189397208Y-121886577D01*
X189412893Y-121884948D01*
X189428565Y-121883239D01*
X189444224Y-121881452D01*
X189459868Y-121879586D01*
X189475498Y-121877641D01*
X189491114Y-121875618D01*
X189506715Y-121873516D01*
X189522301Y-121871335D01*
X189537872Y-121869075D01*
X189553428Y-121866737D01*
X189568968Y-121864320D01*
X189584492Y-121861825D01*
X189600000Y-121859252D01*
X189615492Y-121856600D01*
X189630967Y-121853870D01*
X189646425Y-121851062D01*
X189661866Y-121848176D01*
X189677289Y-121845211D01*
X189692695Y-121842169D01*
X189708083Y-121839048D01*
X189723453Y-121835850D01*
X189738804Y-121832574D01*
X189754137Y-121829220D01*
X189769451Y-121825789D01*
X189784745Y-121822280D01*
X189800020Y-121818693D01*
X189815275Y-121815029D01*
X189830510Y-121811288D01*
X189845724Y-121807469D01*
X189860918Y-121803573D01*
X189876091Y-121799600D01*
X189891242Y-121795549D01*
X189906372Y-121791422D01*
X189921481Y-121787218D01*
X189936567Y-121782937D01*
X189951631Y-121778579D01*
X189966672Y-121774144D01*
X189981690Y-121769633D01*
X189996684Y-121765046D01*
X190011656Y-121760382D01*
X190026603Y-121755642D01*
X190041526Y-121750825D01*
X190056424Y-121745933D01*
X190071298Y-121740964D01*
X190086147Y-121735920D01*
X190100970Y-121730800D01*
X190115767Y-121725604D01*
X190130538Y-121720332D01*
X190145283Y-121714985D01*
X190160001Y-121709563D01*
X190174692Y-121704065D01*
X190189356Y-121698493D01*
X190203992Y-121692845D01*
X190218600Y-121687122D01*
X190233180Y-121681325D01*
X190247731Y-121675453D01*
X190262253Y-121669506D01*
X190276746Y-121663485D01*
X190291209Y-121657390D01*
X190305642Y-121651221D01*
X190320045Y-121644977D01*
X190334417Y-121638660D01*
X190348758Y-121632269D01*
X190363067Y-121625805D01*
X190377345Y-121619267D01*
X190391591Y-121612656D01*
X190405805Y-121605971D01*
X190419985Y-121599214D01*
X190434133Y-121592384D01*
X190448248Y-121585481D01*
X190462328Y-121578506D01*
X190476375Y-121571458D01*
X190490387Y-121564338D01*
X190504364Y-121557146D01*
X190518306Y-121549883D01*
X190532212Y-121542547D01*
X190546083Y-121535140D01*
X190559917Y-121527662D01*
X190573715Y-121520113D01*
X190587476Y-121512493D01*
X190601200Y-121504802D01*
X190614885Y-121497040D01*
X190628533Y-121489208D01*
X190642143Y-121481306D01*
X190655714Y-121473334D01*
X190669245Y-121465292D01*
X190682738Y-121457181D01*
X190696190Y-121449000D01*
X190709602Y-121440750D01*
X190722974Y-121432431D01*
X190736305Y-121424043D01*
X190749595Y-121415586D01*
X190762843Y-121407062D01*
X190776049Y-121398469D01*
X190789213Y-121389809D01*
X190802334Y-121381080D01*
X190815411Y-121372285D01*
X190828446Y-121363422D01*
X190841437Y-121354492D01*
X190854383Y-121345495D01*
X190867285Y-121336432D01*
X190880143Y-121327303D01*
X190892955Y-121318108D01*
X190905721Y-121308847D01*
X190918442Y-121299521D01*
X190931116Y-121290129D01*
X190943743Y-121280672D01*
X190956324Y-121271151D01*
X190968857Y-121261565D01*
X190981342Y-121251915D01*
X190993780Y-121242201D01*
X191006169Y-121232424D01*
X191018509Y-121222583D01*
X191030800Y-121212679D01*
X191043041Y-121202712D01*
X191055232Y-121192682D01*
X191067374Y-121182591D01*
X191079465Y-121172437D01*
X191091504Y-121162222D01*
X191103493Y-121151945D01*
X191115430Y-121141607D01*
X191127315Y-121131208D01*
X191139148Y-121120749D01*
X191150928Y-121110229D01*
X191162655Y-121099650D01*
X191174329Y-121089010D01*
X191185949Y-121078312D01*
X191197515Y-121067555D01*
X191209027Y-121056738D01*
X191220484Y-121045864D01*
X191231886Y-121034931D01*
X191243233Y-121023941D01*
X191254525Y-121012893D01*
X191265760Y-121001787D01*
X191276939Y-120990626D01*
X191282507Y-120985023D01*
X191288061Y-120979407D01*
X191293601Y-120973777D01*
X191299126Y-120968133D01*
X191304637Y-120962474D01*
X191310134Y-120956802D01*
X191315617Y-120951116D01*
X191321085Y-120945416D01*
X191326538Y-120939702D01*
X191331977Y-120933975D01*
X191337402Y-120928234D01*
X191342811Y-120922479D01*
X191348207Y-120916711D01*
X191353587Y-120910928D01*
X191358953Y-120905133D01*
X191364304Y-120899324D01*
X191369640Y-120893501D01*
X191374962Y-120887665D01*
X191380268Y-120881816D01*
X191385560Y-120875953D01*
X191390837Y-120870077D01*
X191396099Y-120864188D01*
X191401345Y-120858285D01*
X191406577Y-120852369D01*
X191411793Y-120846441D01*
X191416995Y-120840499D01*
X191422181Y-120834544D01*
X191427352Y-120828576D01*
X191432508Y-120822595D01*
X191437649Y-120816601D01*
X191442774Y-120810595D01*
X191447884Y-120804575D01*
X191452978Y-120798543D01*
X191458057Y-120792498D01*
X191463121Y-120786441D01*
X191468169Y-120780370D01*
X191473202Y-120774287D01*
X191478219Y-120768192D01*
X191483220Y-120762084D01*
X191488206Y-120755963D01*
X191493176Y-120749831D01*
X191498130Y-120743685D01*
X191503069Y-120737528D01*
X191507992Y-120731357D01*
X191512899Y-120725175D01*
X191517790Y-120718981D01*
X191522665Y-120712774D01*
X191527525Y-120706556D01*
X191532368Y-120700325D01*
X191537196Y-120694082D01*
X191542007Y-120687827D01*
X191546803Y-120681560D01*
X191551582Y-120675282D01*
X191556345Y-120668991D01*
X191561092Y-120662689D01*
X191565823Y-120656375D01*
X191570538Y-120650049D01*
X191575237Y-120643712D01*
X191579918Y-120637363D01*
X191584585Y-120631002D01*
X191589234Y-120624630D01*
X191593867Y-120618246D01*
X191598484Y-120611851D01*
X191603084Y-120605444D01*
X191607668Y-120599027D01*
X191612235Y-120592597D01*
X191616786Y-120586157D01*
X191621320Y-120579705D01*
X191625838Y-120573242D01*
X191630339Y-120566768D01*
X191634823Y-120560283D01*
X191639291Y-120553786D01*
X191643742Y-120547280D01*
X191648176Y-120540761D01*
X191652593Y-120534232D01*
X191656994Y-120527692D01*
X191661378Y-120521142D01*
X191665745Y-120514580D01*
X191670095Y-120508008D01*
X191674428Y-120501424D01*
X191678744Y-120494831D01*
X191683043Y-120488227D01*
X191687325Y-120481612D01*
X191691591Y-120474987D01*
X191695839Y-120468351D01*
X191700070Y-120461705D01*
X191704284Y-120455049D01*
X191708481Y-120448381D01*
X191712660Y-120441705D01*
X191716823Y-120435017D01*
X191720967Y-120428320D01*
X191725096Y-120421612D01*
X191729206Y-120414895D01*
X191733300Y-120408166D01*
X191737375Y-120401429D01*
X191741434Y-120394681D01*
X191745475Y-120387924D01*
X191749500Y-120381156D01*
X191753506Y-120374379D01*
X191757495Y-120367591D01*
X191761466Y-120360795D01*
X191765420Y-120353987D01*
X191769357Y-120347172D01*
X191773276Y-120340345D01*
X191777177Y-120333511D01*
X191781061Y-120326665D01*
X191784927Y-120319811D01*
X191788775Y-120312947D01*
X191792606Y-120306074D01*
X191796419Y-120299191D01*
X191800214Y-120292300D01*
X191803992Y-120285398D01*
X191807751Y-120278489D01*
X191811494Y-120271569D01*
X191815218Y-120264641D01*
X191818924Y-120257703D01*
X191822612Y-120250757D01*
X191826283Y-120243800D01*
X191829936Y-120236837D01*
X191833571Y-120229862D01*
X191837187Y-120222881D01*
X191840786Y-120215889D01*
X191844367Y-120208890D01*
X191847930Y-120201881D01*
X191851474Y-120194864D01*
X191855001Y-120187838D01*
X191858510Y-120180804D01*
X191862000Y-120173761D01*
X191865472Y-120166710D01*
X191868927Y-120159649D01*
X191872363Y-120152582D01*
X191875781Y-120145504D01*
X191879180Y-120138420D01*
X191882562Y-120131326D01*
X191885925Y-120124226D01*
X191889270Y-120117115D01*
X191892597Y-120109998D01*
X191895905Y-120102871D01*
X191899195Y-120095738D01*
X191902467Y-120088596D01*
X191905720Y-120081446D01*
X191908956Y-120074288D01*
X191912172Y-120067123D01*
X191915370Y-120059948D01*
X191918550Y-120052768D01*
X191921712Y-120045578D01*
X191924854Y-120038382D01*
X191927979Y-120031176D01*
X191931084Y-120023965D01*
X191934172Y-120016745D01*
X191937240Y-120009518D01*
X191940291Y-120002282D01*
X191943322Y-119995041D01*
X191946336Y-119987790D01*
X191949330Y-119980534D01*
X191952306Y-119973269D01*
X191955263Y-119965998D01*
X191958202Y-119958718D01*
X191961122Y-119951433D01*
X191964023Y-119944139D01*
X191966905Y-119936839D01*
X191969770Y-119929531D01*
X191972614Y-119922217D01*
X191975441Y-119914894D01*
X191978248Y-119907567D01*
X191981038Y-119900230D01*
X191983807Y-119892889D01*
X191986559Y-119885539D01*
X191989291Y-119878184D01*
X191992005Y-119870820D01*
X191994699Y-119863451D01*
X191997375Y-119856074D01*
X192000032Y-119848692D01*
X192002670Y-119841302D01*
X192005289Y-119833907D01*
X192007890Y-119826503D01*
X192010471Y-119819095D01*
X192013034Y-119811679D01*
X192015577Y-119804258D01*
X192018101Y-119796829D01*
X192020607Y-119789395D01*
X192023093Y-119781953D01*
X192025560Y-119774507D01*
X192028009Y-119767053D01*
X192030438Y-119759595D01*
X192032849Y-119752128D01*
X192035240Y-119744657D01*
X192037613Y-119737179D01*
X192039965Y-119729696D01*
X192042300Y-119722205D01*
X192044614Y-119714711D01*
X192046910Y-119707208D01*
X192049187Y-119699702D01*
X192051445Y-119692187D01*
X192053683Y-119684669D01*
X192055902Y-119677143D01*
X192058102Y-119669614D01*
X192060283Y-119662077D01*
X192062444Y-119654536D01*
X192064587Y-119646988D01*
X192066710Y-119639436D01*
X192068814Y-119631876D01*
X192070898Y-119624313D01*
X192072964Y-119616743D01*
X192075010Y-119609169D01*
X192077037Y-119601588D01*
X192079045Y-119594003D01*
X192081033Y-119586411D01*
X192083002Y-119578816D01*
X192084952Y-119571214D01*
X192086882Y-119563608D01*
X192088793Y-119555995D01*
X192090685Y-119548380D01*
X192092557Y-119540757D01*
X192094410Y-119533131D01*
X192096244Y-119525498D01*
X192098058Y-119517862D01*
X192099853Y-119510219D01*
X192101628Y-119502573D01*
X192103384Y-119494920D01*
X192105121Y-119487264D01*
X192106838Y-119479602D01*
X192108535Y-119471937D01*
X192110214Y-119464265D01*
X192111872Y-119456590D01*
X192113512Y-119448909D01*
X192115132Y-119441225D01*
X192116732Y-119433534D01*
X192118313Y-119425841D01*
X192119875Y-119418141D01*
X192121416Y-119410439D01*
X192122939Y-119402730D01*
X192124441Y-119395020D01*
X192125925Y-119387302D01*
X192127389Y-119379582D01*
X192128833Y-119371856D01*
X192130258Y-119364127D01*
X192131663Y-119356392D01*
X192133048Y-119348655D01*
X192134414Y-119340912D01*
X192135761Y-119333167D01*
X192137088Y-119325415D01*
X192138395Y-119317661D01*
X192139682Y-119309901D01*
X192140950Y-119302140D01*
X192142199Y-119294371D01*
X192143427Y-119286602D01*
X192144636Y-119278826D01*
X192145826Y-119271048D01*
X192146996Y-119263264D01*
X192148146Y-119255479D01*
X192149276Y-119247687D01*
X192150387Y-119239894D01*
X192151478Y-119232095D01*
X192152550Y-119224295D01*
X192153601Y-119216488D01*
X192154633Y-119208680D01*
X192155646Y-119200866D01*
X192156638Y-119193051D01*
X192157611Y-119185230D01*
X192158564Y-119177407D01*
X192159498Y-119169579D01*
X192160412Y-119161750D01*
X192161306Y-119153914D01*
X192162180Y-119146078D01*
X192163034Y-119138236D01*
X192163869Y-119130393D01*
X192164684Y-119122544D01*
X192165479Y-119114694D01*
X192166255Y-119106839D01*
X192167010Y-119098982D01*
X192167746Y-119091120D01*
X192168462Y-119083257D01*
X192169158Y-119075389D01*
X192169834Y-119067519D01*
X192170491Y-119059645D01*
X192171128Y-119051769D01*
X192171745Y-119043888D01*
X192172342Y-119036007D01*
X192172919Y-119028120D01*
X192173476Y-119020232D01*
X192174014Y-119012339D01*
X192174532Y-119004445D01*
X192175029Y-118996546D01*
X192175507Y-118988647D01*
X192175965Y-118980742D01*
X192176404Y-118972837D01*
X192176822Y-118964927D01*
X192177220Y-118957016D01*
X192177599Y-118949100D01*
X192177957Y-118941184D01*
X192178296Y-118933263D01*
X192178615Y-118925341D01*
X192178914Y-118917415D01*
X192179192Y-118909488D01*
X192179451Y-118901556D01*
X192179690Y-118893624D01*
X192179909Y-118885687D01*
X192180109Y-118877750D01*
X192180288Y-118869808D01*
X192180447Y-118861866D01*
X192180586Y-118853919D01*
X192180705Y-118845972D01*
X192180805Y-118838020D01*
X192180884Y-118830068D01*
X192180943Y-118822111D01*
X192180983Y-118814155D01*
X192181002Y-118806194D01*
X192181004Y-118802500D01*
X189180989Y-75902506D02*
X189180989Y-118902506D01*
X189180989Y-118902506D02*
X115180989Y-118902506D01*
X189180989Y-120402506D02*
X115180989Y-120402506D01*
X189180989Y-120402506D02*
X189191947Y-120402466D01*
X189202904Y-120402346D01*
X189213858Y-120402146D01*
X189224810Y-120401867D01*
X189235758Y-120401507D01*
X189246702Y-120401067D01*
X189257643Y-120400548D01*
X189268578Y-120399949D01*
X189279509Y-120399270D01*
X189290433Y-120398511D01*
X189301352Y-120397673D01*
X189312263Y-120396755D01*
X189323168Y-120395757D01*
X189334064Y-120394680D01*
X189344952Y-120393523D01*
X189355831Y-120392287D01*
X189366701Y-120390971D01*
X189377561Y-120389576D01*
X189388410Y-120388102D01*
X189399248Y-120386548D01*
X189410075Y-120384916D01*
X189420889Y-120383204D01*
X189431691Y-120381413D01*
X189442480Y-120379544D01*
X189453255Y-120377596D01*
X189464015Y-120375569D01*
X189474761Y-120373463D01*
X189485491Y-120371279D01*
X189496205Y-120369017D01*
X189506903Y-120366677D01*
X189517583Y-120364258D01*
X189528246Y-120361761D01*
X189538891Y-120359187D01*
X189549517Y-120356535D01*
X189560123Y-120353805D01*
X189570709Y-120350997D01*
X189581275Y-120348113D01*
X189591820Y-120345151D01*
X189602344Y-120342112D01*
X189612845Y-120338997D01*
X189623323Y-120335804D01*
X189633778Y-120332535D01*
X189644209Y-120329190D01*
X189654616Y-120325769D01*
X189664997Y-120322272D01*
X189675353Y-120318699D01*
X189685683Y-120315050D01*
X189695986Y-120311326D01*
X189706262Y-120307527D01*
X189716510Y-120303653D01*
X189726729Y-120299704D01*
X189736920Y-120295680D01*
X189747081Y-120291582D01*
X189757212Y-120287410D01*
X189762266Y-120285297D01*
X189767312Y-120283165D01*
X189772350Y-120281014D01*
X189777381Y-120278845D01*
X189782403Y-120276658D01*
X189787418Y-120274452D01*
X189792424Y-120272228D01*
X189797423Y-120269986D01*
X189802413Y-120267725D01*
X189807395Y-120265447D01*
X189812368Y-120263150D01*
X189817333Y-120260835D01*
X189822290Y-120258502D01*
X189827238Y-120256151D01*
X189832177Y-120253782D01*
X189837108Y-120251394D01*
X189842030Y-120248989D01*
X189846943Y-120246566D01*
X189851847Y-120244125D01*
X189856743Y-120241666D01*
X189861629Y-120239189D01*
X189866506Y-120236695D01*
X189871374Y-120234182D01*
X189876233Y-120231652D01*
X189881082Y-120229104D01*
X189885923Y-120226539D01*
X189890753Y-120223956D01*
X189895575Y-120221355D01*
X189900386Y-120218737D01*
X189905188Y-120216101D01*
X189909980Y-120213447D01*
X189914763Y-120210776D01*
X189919536Y-120208088D01*
X189924299Y-120205382D01*
X189929052Y-120202659D01*
X189933795Y-120199919D01*
X189938527Y-120197161D01*
X189943251Y-120194386D01*
X189947963Y-120191594D01*
X189952665Y-120188785D01*
X189957357Y-120185959D01*
X189962039Y-120183115D01*
X189966710Y-120180254D01*
X189971371Y-120177377D01*
X189976021Y-120174482D01*
X189980660Y-120171570D01*
X189985289Y-120168642D01*
X189989907Y-120165697D01*
X189994514Y-120162735D01*
X189999111Y-120159755D01*
X190003696Y-120156760D01*
X190008270Y-120153747D01*
X190012833Y-120150718D01*
X190017386Y-120147672D01*
X190021927Y-120144610D01*
X190026457Y-120141531D01*
X190030975Y-120138436D01*
X190035483Y-120135324D01*
X190039978Y-120132196D01*
X190044463Y-120129051D01*
X190048935Y-120125890D01*
X190053397Y-120122712D01*
X190057846Y-120119519D01*
X190062284Y-120116309D01*
X190066710Y-120113083D01*
X190071125Y-120109840D01*
X190075527Y-120106582D01*
X190079918Y-120103307D01*
X190084296Y-120100017D01*
X190088663Y-120096710D01*
X190093017Y-120093388D01*
X190097360Y-120090050D01*
X190101689Y-120086696D01*
X190106008Y-120083325D01*
X190110313Y-120079940D01*
X190114606Y-120076538D01*
X190118887Y-120073121D01*
X190123156Y-120069688D01*
X190127411Y-120066240D01*
X190131655Y-120062775D01*
X190135885Y-120059296D01*
X190140104Y-120055800D01*
X190144308Y-120052290D01*
X190148501Y-120048764D01*
X190152681Y-120045223D01*
X190156848Y-120041666D01*
X190161001Y-120038094D01*
X190165143Y-120034507D01*
X190169270Y-120030905D01*
X190173386Y-120027287D01*
X190177487Y-120023654D01*
X190181576Y-120020006D01*
X190185651Y-120016344D01*
X190189713Y-120012666D01*
X190193762Y-120008973D01*
X190197798Y-120005265D01*
X190201819Y-120001543D01*
X190205828Y-119997806D01*
X190209823Y-119994054D01*
X190213805Y-119990287D01*
X190217772Y-119986506D01*
X190221727Y-119982709D01*
X190225667Y-119978899D01*
X190229595Y-119975073D01*
X190233507Y-119971234D01*
X190237407Y-119967379D01*
X190241643Y-119963160D01*
X189180989Y-123402506D02*
X115180989Y-123402506D01*
X189180989Y-123402506D02*
X189199972Y-123402466D01*
X189218954Y-123402346D01*
X189237934Y-123402146D01*
X189256912Y-123401866D01*
X189275887Y-123401506D01*
X189294860Y-123401067D01*
X189313830Y-123400547D01*
X189332796Y-123399948D01*
X189351759Y-123399268D01*
X189370719Y-123398509D01*
X189389674Y-123397670D01*
X189408624Y-123396750D01*
X189427570Y-123395752D01*
X189446511Y-123394673D01*
X189465446Y-123393514D01*
X189484376Y-123392276D01*
X189503300Y-123390958D01*
X189522218Y-123389560D01*
X189541130Y-123388083D01*
X189560034Y-123386525D01*
X189578932Y-123384889D01*
X189597822Y-123383172D01*
X189616704Y-123381376D01*
X189635579Y-123379500D01*
X189654445Y-123377545D01*
X189673302Y-123375510D01*
X189692151Y-123373396D01*
X189710990Y-123371202D01*
X189729820Y-123368929D01*
X189748640Y-123366577D01*
X189767449Y-123364145D01*
X189786249Y-123361634D01*
X189805037Y-123359044D01*
X189823815Y-123356374D01*
X189842581Y-123353626D01*
X189861335Y-123350798D01*
X189880077Y-123347891D01*
X189898807Y-123344905D01*
X189917525Y-123341840D01*
X189936229Y-123338697D01*
X189954920Y-123335474D01*
X189973597Y-123332172D01*
X189992261Y-123328792D01*
X190010910Y-123325333D01*
X190029545Y-123321796D01*
X190048164Y-123318180D01*
X190066769Y-123314485D01*
X190085358Y-123310712D01*
X190103931Y-123306860D01*
X190122488Y-123302931D01*
X190141028Y-123298922D01*
X190159552Y-123294836D01*
X190178058Y-123290672D01*
X190196547Y-123286429D01*
X190215018Y-123282109D01*
X190233471Y-123277711D01*
X190251905Y-123273234D01*
X190270321Y-123268680D01*
X190288718Y-123264049D01*
X190307095Y-123259340D01*
X190325452Y-123254553D01*
X190343789Y-123249689D01*
X190362106Y-123244747D01*
X190380402Y-123239729D01*
X190398678Y-123234633D01*
X190416931Y-123229460D01*
X190435163Y-123224210D01*
X190453373Y-123218883D01*
X190471561Y-123213480D01*
X190489725Y-123207999D01*
X190507867Y-123202442D01*
X190525985Y-123196809D01*
X190544080Y-123191099D01*
X190562151Y-123185313D01*
X190580197Y-123179451D01*
X190598219Y-123173512D01*
X190616215Y-123167498D01*
X190634187Y-123161408D01*
X190652132Y-123155242D01*
X190670052Y-123149000D01*
X190687945Y-123142683D01*
X190705812Y-123136290D01*
X190723652Y-123129822D01*
X190741464Y-123123279D01*
X190759249Y-123116661D01*
X190777006Y-123109967D01*
X190794734Y-123103199D01*
X190812435Y-123096357D01*
X190830106Y-123089439D01*
X190847748Y-123082447D01*
X190865360Y-123075381D01*
X190882942Y-123068241D01*
X190900495Y-123061026D01*
X190909259Y-123057391D01*
X190918016Y-123053738D01*
X190926766Y-123050066D01*
X190935507Y-123046376D01*
X190944241Y-123042667D01*
X190952967Y-123038940D01*
X190961685Y-123035194D01*
X190970395Y-123031430D01*
X190979097Y-123027648D01*
X190987791Y-123023848D01*
X190996478Y-123020029D01*
X191005156Y-123016192D01*
X191013826Y-123012336D01*
X191022488Y-123008462D01*
X191031141Y-123004570D01*
X191039787Y-123000660D01*
X191048424Y-122996732D01*
X191057053Y-122992785D01*
X191065673Y-122988820D01*
X191074285Y-122984837D01*
X191082889Y-122980836D01*
X191091484Y-122976817D01*
X191100071Y-122972780D01*
X191108649Y-122968724D01*
X191117219Y-122964651D01*
X191125780Y-122960559D01*
X191134332Y-122956450D01*
X191142876Y-122952322D01*
X191151410Y-122948177D01*
X191159937Y-122944013D01*
X191168454Y-122939832D01*
X191176962Y-122935632D01*
X191185462Y-122931415D01*
X191193952Y-122927179D01*
X191202434Y-122922926D01*
X191210907Y-122918655D01*
X191219370Y-122914367D01*
X191227825Y-122910060D01*
X191236270Y-122905736D01*
X191244706Y-122901393D01*
X191253133Y-122897034D01*
X191261551Y-122892656D01*
X191269959Y-122888260D01*
X191278359Y-122883847D01*
X191286748Y-122879416D01*
X191295129Y-122874968D01*
X191303500Y-122870502D01*
X191311862Y-122866018D01*
X191320213Y-122861517D01*
X191328556Y-122856998D01*
X191336889Y-122852462D01*
X191345212Y-122847907D01*
X191353526Y-122843336D01*
X191361830Y-122838747D01*
X191370124Y-122834141D01*
X191378408Y-122829516D01*
X191386683Y-122824875D01*
X191394948Y-122820216D01*
X191403203Y-122815540D01*
X191411448Y-122810846D01*
X191419683Y-122806136D01*
X191427908Y-122801407D01*
X191436123Y-122796662D01*
X191444328Y-122791899D01*
X191452523Y-122787119D01*
X191460708Y-122782321D01*
X191468882Y-122777507D01*
X191477047Y-122772675D01*
X191485200Y-122767826D01*
X191493345Y-122762960D01*
X191501478Y-122758077D01*
X191509601Y-122753176D01*
X191517714Y-122748259D01*
X191525816Y-122743324D01*
X191533908Y-122738373D01*
X191541990Y-122733404D01*
X191550060Y-122728419D01*
X191558121Y-122723416D01*
X191566170Y-122718396D01*
X191574210Y-122713360D01*
X191582238Y-122708307D01*
X191590256Y-122703236D01*
X191598262Y-122698149D01*
X191606259Y-122693045D01*
X191614244Y-122687924D01*
X191622219Y-122682786D01*
X191630182Y-122677632D01*
X191638135Y-122672460D01*
X191646076Y-122667273D01*
X191654008Y-122662068D01*
X191661927Y-122656847D01*
X191669836Y-122651608D01*
X191677733Y-122646354D01*
X191685620Y-122641082D01*
X191693495Y-122635795D01*
X191701359Y-122630490D01*
X191709212Y-122625169D01*
X191717054Y-122619831D01*
X191724884Y-122614477D01*
X191732703Y-122609106D01*
X191740511Y-122603720D01*
X191748307Y-122598316D01*
X191756092Y-122592896D01*
X191763865Y-122587460D01*
X191771627Y-122582007D01*
X191779378Y-122576538D01*
X191787116Y-122571053D01*
X191794844Y-122565551D01*
X191802559Y-122560033D01*
X191810263Y-122554499D01*
X191817955Y-122548948D01*
X191825636Y-122543381D01*
X191833304Y-122537799D01*
X191840961Y-122532200D01*
X191848606Y-122526585D01*
X191856240Y-122520953D01*
X191863861Y-122515306D01*
X191871471Y-122509642D01*
X191879068Y-122503963D01*
X191886654Y-122498268D01*
X191894227Y-122492556D01*
X191901789Y-122486829D01*
X191909337Y-122481086D01*
X191916875Y-122475326D01*
X191924400Y-122469551D01*
X191931913Y-122463760D01*
X191939413Y-122457953D01*
X191946902Y-122452130D01*
X191954378Y-122446292D01*
X191961843Y-122440437D01*
X191969294Y-122434567D01*
X191976733Y-122428681D01*
X191984160Y-122422780D01*
X191991575Y-122416862D01*
X191998976Y-122410930D01*
X192006366Y-122404981D01*
X192013743Y-122399017D01*
X192021108Y-122393037D01*
X192028459Y-122387042D01*
X192035799Y-122381031D01*
X192043125Y-122375005D01*
X192050440Y-122368963D01*
X192057740Y-122362906D01*
X192065030Y-122356833D01*
X192072305Y-122350745D01*
X192079569Y-122344641D01*
X192086818Y-122338523D01*
X192094056Y-122332388D01*
X192101280Y-122326239D01*
X192108492Y-122320074D01*
X192115691Y-122313894D01*
X192122877Y-122307698D01*
X192130049Y-122301488D01*
X192137210Y-122295262D01*
X192144356Y-122289021D01*
X192151490Y-122282764D01*
X192158610Y-122276494D01*
X192165718Y-122270207D01*
X192172812Y-122263906D01*
X192179894Y-122257589D01*
X192186961Y-122251258D01*
X192194016Y-122244911D01*
X192201057Y-122238550D01*
X192208086Y-122232173D01*
X192215100Y-122225782D01*
X192222102Y-122219375D01*
X192229090Y-122212954D01*
X192236065Y-122206518D01*
X192243026Y-122200067D01*
X192249974Y-122193601D01*
X192256908Y-122187121D01*
X192263829Y-122180625D01*
X192270736Y-122174116D01*
X192277630Y-122167591D01*
X192284510Y-122161052D01*
X192291377Y-122154497D01*
X192298229Y-122147929D01*
X192305069Y-122141345D01*
X192311894Y-122134748D01*
X192318706Y-122128135D01*
X192325504Y-122121509D01*
X192332289Y-122114867D01*
X192339059Y-122108211D01*
X192345816Y-122101540D01*
X192352558Y-122094856D01*
X192359288Y-122088156D01*
X192362965Y-122084483D01*
X190241643Y-74841853D02*
X190233866Y-74834132D01*
X190226033Y-74826469D01*
X190218146Y-74818864D01*
X190210203Y-74811318D01*
X190202207Y-74803830D01*
X190194157Y-74796401D01*
X190186053Y-74789032D01*
X190177897Y-74781723D01*
X190169687Y-74774474D01*
X190161426Y-74767285D01*
X190153112Y-74760157D01*
X190144747Y-74753090D01*
X190136331Y-74746085D01*
X190127864Y-74739142D01*
X190119346Y-74732260D01*
X190110779Y-74725441D01*
X190102162Y-74718685D01*
X190093497Y-74711992D01*
X190084782Y-74705363D01*
X190076020Y-74698797D01*
X190067209Y-74692296D01*
X190058352Y-74685859D01*
X190049447Y-74679487D01*
X190040497Y-74673180D01*
X190031500Y-74666938D01*
X190022457Y-74660762D01*
X190013370Y-74654652D01*
X190004238Y-74648609D01*
X189995062Y-74642632D01*
X189985843Y-74636723D01*
X189976580Y-74630880D01*
X189967275Y-74625106D01*
X189957927Y-74619399D01*
X189948538Y-74613761D01*
X189939107Y-74608191D01*
X189929636Y-74602690D01*
X189920125Y-74597258D01*
X189910574Y-74591896D01*
X189900985Y-74586603D01*
X189891356Y-74581381D01*
X189881689Y-74576229D01*
X189871985Y-74571147D01*
X189862244Y-74566136D01*
X189852466Y-74561197D01*
X189842652Y-74556329D01*
X189832803Y-74551532D01*
X189822918Y-74546808D01*
X189813000Y-74542156D01*
X189803047Y-74537576D01*
X189793061Y-74533069D01*
X189783043Y-74528635D01*
X189772992Y-74524274D01*
X189762909Y-74519987D01*
X189752796Y-74515773D01*
X189747728Y-74513694D01*
X189742652Y-74511633D01*
X189737568Y-74509591D01*
X189732478Y-74507568D01*
X189727379Y-74505563D01*
X189722274Y-74503576D01*
X189717161Y-74501609D01*
X189712041Y-74499660D01*
X189706915Y-74497730D01*
X189701781Y-74495818D01*
X189696640Y-74493925D01*
X189691492Y-74492051D01*
X189686338Y-74490196D01*
X189681176Y-74488360D01*
X189676008Y-74486543D01*
X189670834Y-74484744D01*
X189665653Y-74482964D01*
X189660465Y-74481203D01*
X189655272Y-74479462D01*
X189650071Y-74477739D01*
X189644865Y-74476035D01*
X189639652Y-74474350D01*
X189634434Y-74472685D01*
X189629209Y-74471038D01*
X189623979Y-74469411D01*
X189618742Y-74467802D01*
X189613500Y-74466213D01*
X189608252Y-74464643D01*
X189602998Y-74463092D01*
X189597739Y-74461560D01*
X189592474Y-74460048D01*
X189587203Y-74458554D01*
X189581928Y-74457080D01*
X189576647Y-74455626D01*
X189571361Y-74454190D01*
X189566069Y-74452774D01*
X189560773Y-74451378D01*
X189555471Y-74450000D01*
X189550165Y-74448642D01*
X189544853Y-74447304D01*
X189539537Y-74445985D01*
X189534216Y-74444685D01*
X189528891Y-74443405D01*
X189523560Y-74442144D01*
X189518226Y-74440902D01*
X189512886Y-74439680D01*
X189507543Y-74438478D01*
X189502195Y-74437295D01*
X189496843Y-74436132D01*
X189491486Y-74434989D01*
X189486126Y-74433865D01*
X189480761Y-74432760D01*
X189475393Y-74431675D01*
X189470020Y-74430610D01*
X189464644Y-74429564D01*
X189459264Y-74428538D01*
X189453881Y-74427532D01*
X189448493Y-74426545D01*
X189443102Y-74425579D01*
X189437708Y-74424631D01*
X189432310Y-74423704D01*
X189426909Y-74422796D01*
X189421505Y-74421908D01*
X189416097Y-74421040D01*
X189410686Y-74420191D01*
X189405272Y-74419362D01*
X189399856Y-74418553D01*
X189394435Y-74417764D01*
X189389013Y-74416995D01*
X189383587Y-74416245D01*
X189378160Y-74415515D01*
X189372728Y-74414805D01*
X189367295Y-74414115D01*
X189361859Y-74413445D01*
X189356421Y-74412795D01*
X189350980Y-74412164D01*
X189345537Y-74411554D01*
X189340091Y-74410963D01*
X189334644Y-74410392D01*
X189329194Y-74409841D01*
X189323743Y-74409310D01*
X189318288Y-74408799D01*
X189312833Y-74408307D01*
X189307375Y-74407836D01*
X189301916Y-74407385D01*
X189296454Y-74406953D01*
X189290992Y-74406542D01*
X189285527Y-74406150D01*
X189280062Y-74405779D01*
X189274594Y-74405427D01*
X189269126Y-74405095D01*
X189263655Y-74404783D01*
X189258184Y-74404492D01*
X189252711Y-74404220D01*
X189247238Y-74403968D01*
X189241762Y-74403736D01*
X189236287Y-74403525D01*
X189230809Y-74403333D01*
X189225332Y-74403161D01*
X189219853Y-74403009D01*
X189214374Y-74402877D01*
X189208893Y-74402765D01*
X189203413Y-74402673D01*
X189197931Y-74402602D01*
X189192450Y-74402550D01*
X189186967Y-74402518D01*
X189180989Y-74402506D01*
X190241643Y-119963160D02*
X190249364Y-119955383D01*
X190257027Y-119947550D01*
X190264632Y-119939663D01*
X190272178Y-119931720D01*
X190279666Y-119923724D01*
X190287094Y-119915674D01*
X190294464Y-119907570D01*
X190301773Y-119899414D01*
X190309022Y-119891204D01*
X190316211Y-119882943D01*
X190323339Y-119874629D01*
X190330405Y-119866264D01*
X190337411Y-119857848D01*
X190344354Y-119849381D01*
X190351236Y-119840863D01*
X190358054Y-119832296D01*
X190364810Y-119823680D01*
X190371503Y-119815014D01*
X190378133Y-119806300D01*
X190384698Y-119797537D01*
X190391200Y-119788727D01*
X190397637Y-119779869D01*
X190404009Y-119770965D01*
X190410316Y-119762014D01*
X190416558Y-119753017D01*
X190422734Y-119743975D01*
X190428843Y-119734888D01*
X190434887Y-119725756D01*
X190440863Y-119716580D01*
X190446773Y-119707360D01*
X190452615Y-119698097D01*
X190458390Y-119688792D01*
X190464096Y-119679445D01*
X190469735Y-119670055D01*
X190475304Y-119660625D01*
X190480805Y-119651154D01*
X190486237Y-119641643D01*
X190491599Y-119632092D01*
X190496892Y-119622502D01*
X190502114Y-119612874D01*
X190507267Y-119603207D01*
X190512348Y-119593503D01*
X190517359Y-119583761D01*
X190522298Y-119573983D01*
X190527166Y-119564170D01*
X190531963Y-119554320D01*
X190536687Y-119544436D01*
X190541340Y-119534517D01*
X190545919Y-119524565D01*
X190550426Y-119514579D01*
X190554860Y-119504560D01*
X190559221Y-119494510D01*
X190563509Y-119484427D01*
X190567722Y-119474314D01*
X190569801Y-119469245D01*
X190571862Y-119464169D01*
X190573904Y-119459086D01*
X190575928Y-119453995D01*
X190577932Y-119448897D01*
X190579919Y-119443792D01*
X190581886Y-119438679D01*
X190583835Y-119433559D01*
X190585765Y-119428432D01*
X190587677Y-119423298D01*
X190589570Y-119418158D01*
X190591444Y-119413010D01*
X190593299Y-119407855D01*
X190595135Y-119402694D01*
X190596953Y-119397526D01*
X190598751Y-119392352D01*
X190600531Y-119387171D01*
X190602292Y-119381983D01*
X190604033Y-119376789D01*
X190605756Y-119371589D01*
X190607460Y-119366383D01*
X190609145Y-119361170D01*
X190610810Y-119355952D01*
X190612457Y-119350727D01*
X190614085Y-119345496D01*
X190615693Y-119340260D01*
X190617282Y-119335018D01*
X190618852Y-119329769D01*
X190620403Y-119324516D01*
X190621935Y-119319256D01*
X190623447Y-119313992D01*
X190624941Y-119308721D01*
X190626415Y-119303446D01*
X190627869Y-119298164D01*
X190629305Y-119292879D01*
X190630721Y-119287587D01*
X190632117Y-119282291D01*
X190633495Y-119276989D01*
X190634853Y-119271683D01*
X190636191Y-119266371D01*
X190637511Y-119261055D01*
X190638810Y-119255734D01*
X190640091Y-119250408D01*
X190641351Y-119245078D01*
X190642593Y-119239743D01*
X190643815Y-119234404D01*
X190645017Y-119229061D01*
X190646200Y-119223712D01*
X190647363Y-119218360D01*
X190648507Y-119213004D01*
X190649630Y-119207644D01*
X190650735Y-119202279D01*
X190651820Y-119196911D01*
X190652885Y-119191538D01*
X190653931Y-119186162D01*
X190654957Y-119180781D01*
X190655963Y-119175398D01*
X190656950Y-119170010D01*
X190657917Y-119164620D01*
X190658864Y-119159225D01*
X190659791Y-119153828D01*
X190660699Y-119148426D01*
X190661587Y-119143022D01*
X190662455Y-119137614D01*
X190663304Y-119132204D01*
X190664133Y-119126789D01*
X190664942Y-119121373D01*
X190665731Y-119115953D01*
X190666500Y-119110531D01*
X190667250Y-119105105D01*
X190667980Y-119099677D01*
X190668690Y-119094246D01*
X190669380Y-119088813D01*
X190670050Y-119083376D01*
X190670700Y-119077938D01*
X190671331Y-119072497D01*
X190671941Y-119067054D01*
X190672532Y-119061608D01*
X190673103Y-119056161D01*
X190673654Y-119050711D01*
X190674185Y-119045260D01*
X190674696Y-119039805D01*
X190675188Y-119034350D01*
X190675659Y-119028892D01*
X190676110Y-119023433D01*
X190676542Y-119017971D01*
X190676953Y-119012509D01*
X190677345Y-119007044D01*
X190677716Y-119001579D01*
X190678068Y-118996111D01*
X190678400Y-118990643D01*
X190678712Y-118985172D01*
X190679003Y-118979701D01*
X190679275Y-118974228D01*
X190679527Y-118968755D01*
X190679759Y-118963279D01*
X190679970Y-118957804D01*
X190680162Y-118952326D01*
X190680334Y-118946849D01*
X190680486Y-118941370D01*
X190680618Y-118935891D01*
X190680730Y-118930410D01*
X190680822Y-118924930D01*
X190680893Y-118919448D01*
X190680945Y-118913967D01*
X190680977Y-118908484D01*
X190680989Y-118902506D01*
X190680989Y-75902506D02*
X190680949Y-75891548D01*
X190680829Y-75880591D01*
X190680629Y-75869637D01*
X190680350Y-75858685D01*
X190679990Y-75847737D01*
X190679550Y-75836793D01*
X190679031Y-75825852D01*
X190678432Y-75814917D01*
X190677753Y-75803986D01*
X190676994Y-75793062D01*
X190676156Y-75782143D01*
X190675238Y-75771232D01*
X190674240Y-75760327D01*
X190673163Y-75749431D01*
X190672006Y-75738543D01*
X190670770Y-75727664D01*
X190669454Y-75716794D01*
X190668059Y-75705934D01*
X190666585Y-75695085D01*
X190665031Y-75684247D01*
X190663399Y-75673420D01*
X190661687Y-75662606D01*
X190659896Y-75651804D01*
X190658027Y-75641015D01*
X190656079Y-75630241D01*
X190654052Y-75619480D01*
X190651946Y-75608734D01*
X190649762Y-75598004D01*
X190647500Y-75587290D01*
X190645160Y-75576593D01*
X190642741Y-75565912D01*
X190640244Y-75555249D01*
X190637670Y-75544605D01*
X190635018Y-75533979D01*
X190632288Y-75523372D01*
X190629480Y-75512786D01*
X190626596Y-75502220D01*
X190623634Y-75491675D01*
X190620595Y-75481152D01*
X190617480Y-75470651D01*
X190614287Y-75460172D01*
X190611018Y-75449717D01*
X190607673Y-75439286D01*
X190604252Y-75428880D01*
X190600755Y-75418498D01*
X190597182Y-75408142D01*
X190593533Y-75397812D01*
X190589809Y-75387509D01*
X190586010Y-75377234D01*
X190582136Y-75366986D01*
X190578187Y-75356766D01*
X190574163Y-75346576D01*
X190570065Y-75336415D01*
X190565893Y-75326284D01*
X190563780Y-75321230D01*
X190561648Y-75316184D01*
X190559497Y-75311145D01*
X190557328Y-75306115D01*
X190555141Y-75301092D01*
X190552935Y-75296078D01*
X190550711Y-75291071D01*
X190548469Y-75286073D01*
X190546209Y-75281083D01*
X190543930Y-75276101D01*
X190541633Y-75271127D01*
X190539318Y-75266162D01*
X190536985Y-75261206D01*
X190534634Y-75256258D01*
X190532265Y-75251318D01*
X190529877Y-75246387D01*
X190527472Y-75241466D01*
X190525049Y-75236552D01*
X190522608Y-75231648D01*
X190520149Y-75226753D01*
X190517672Y-75221867D01*
X190515178Y-75216989D01*
X190512665Y-75212122D01*
X190510135Y-75207263D01*
X190507587Y-75202413D01*
X190505022Y-75197573D01*
X190502439Y-75192743D01*
X190499838Y-75187921D01*
X190497220Y-75183110D01*
X190494584Y-75178307D01*
X190491930Y-75173515D01*
X190489259Y-75168733D01*
X190486571Y-75163960D01*
X190483865Y-75159197D01*
X190481142Y-75154444D01*
X190478402Y-75149701D01*
X190475644Y-75144968D01*
X190472869Y-75140245D01*
X190470077Y-75135533D01*
X190467268Y-75130830D01*
X190464442Y-75126139D01*
X190461598Y-75121457D01*
X190458737Y-75116786D01*
X190455860Y-75112125D01*
X190452965Y-75107475D01*
X190450053Y-75102835D01*
X190447125Y-75098207D01*
X190444180Y-75093589D01*
X190441218Y-75088982D01*
X190438238Y-75084385D01*
X190435243Y-75079800D01*
X190432230Y-75075225D01*
X190429201Y-75070662D01*
X190426155Y-75066110D01*
X190423093Y-75061569D01*
X190420014Y-75057039D01*
X190416919Y-75052521D01*
X190413807Y-75048013D01*
X190410679Y-75043518D01*
X190407534Y-75039033D01*
X190404373Y-75034561D01*
X190401195Y-75030099D01*
X190398002Y-75025650D01*
X190394792Y-75021212D01*
X190391566Y-75016786D01*
X190388323Y-75012371D01*
X190385065Y-75007969D01*
X190381790Y-75003578D01*
X190378500Y-74999200D01*
X190375193Y-74994833D01*
X190371871Y-74990479D01*
X190368532Y-74986136D01*
X190365179Y-74981807D01*
X190361808Y-74977488D01*
X190358423Y-74973183D01*
X190355021Y-74968889D01*
X190351604Y-74964609D01*
X190348171Y-74960340D01*
X190344723Y-74956085D01*
X190341258Y-74951841D01*
X190337779Y-74947611D01*
X190334283Y-74943392D01*
X190330773Y-74939187D01*
X190327247Y-74934994D01*
X190323706Y-74930815D01*
X190320149Y-74926648D01*
X190316577Y-74922494D01*
X190312989Y-74918353D01*
X190309387Y-74914226D01*
X190305769Y-74910110D01*
X190302137Y-74906009D01*
X190298489Y-74901920D01*
X190294827Y-74897845D01*
X190291148Y-74893782D01*
X190287456Y-74889734D01*
X190283748Y-74885698D01*
X190280026Y-74881677D01*
X190276288Y-74877667D01*
X190272537Y-74873673D01*
X190268770Y-74869691D01*
X190264989Y-74865723D01*
X190261192Y-74861769D01*
X190257382Y-74857829D01*
X190253556Y-74853901D01*
X190249717Y-74849989D01*
X190245862Y-74846089D01*
X190241643Y-74841853D01*
X190680989Y-75902506D02*
X190680989Y-118902506D01*
X192180989Y-76002497D02*
X192180949Y-75986587D01*
X192180829Y-75970686D01*
X192180630Y-75954794D01*
X192180350Y-75938913D01*
X192179991Y-75923041D01*
X192179552Y-75907179D01*
X192179034Y-75891328D01*
X192178436Y-75875487D01*
X192177758Y-75859657D01*
X192177000Y-75843837D01*
X192176164Y-75828029D01*
X192175247Y-75812232D01*
X192174252Y-75796447D01*
X192173177Y-75780673D01*
X192172022Y-75764911D01*
X192170789Y-75749162D01*
X192169476Y-75733425D01*
X192168084Y-75717700D01*
X192166613Y-75701988D01*
X192165063Y-75686289D01*
X192163434Y-75670604D01*
X192161726Y-75654932D01*
X192159938Y-75639274D01*
X192158073Y-75623630D01*
X192156128Y-75608000D01*
X192154104Y-75592384D01*
X192152002Y-75576783D01*
X192149821Y-75561197D01*
X192147562Y-75545626D01*
X192145224Y-75530070D01*
X192142808Y-75514531D01*
X192140313Y-75499006D01*
X192137739Y-75483499D01*
X192135088Y-75468007D01*
X192132358Y-75452532D01*
X192129550Y-75437074D01*
X192126664Y-75421633D01*
X192123699Y-75406210D01*
X192120657Y-75390804D01*
X192117537Y-75375416D01*
X192114339Y-75360046D01*
X192111063Y-75344695D01*
X192107709Y-75329363D01*
X192104278Y-75314049D01*
X192100769Y-75298755D01*
X192097182Y-75283480D01*
X192093519Y-75268225D01*
X192089777Y-75252990D01*
X192085958Y-75237776D01*
X192082063Y-75222582D01*
X192078089Y-75207410D01*
X192074039Y-75192258D01*
X192069912Y-75177128D01*
X192065708Y-75162020D01*
X192061427Y-75146934D01*
X192057069Y-75131870D01*
X192052635Y-75116829D01*
X192048124Y-75101811D01*
X192043537Y-75086816D01*
X192038873Y-75071845D01*
X192034133Y-75056898D01*
X192029317Y-75041975D01*
X192024424Y-75027077D01*
X192019456Y-75012203D01*
X192014412Y-74997355D01*
X192009292Y-74982532D01*
X192004096Y-74967734D01*
X191998824Y-74952963D01*
X191993478Y-74938218D01*
X191988055Y-74923500D01*
X191982558Y-74908809D01*
X191976985Y-74894146D01*
X191971338Y-74879510D01*
X191965615Y-74864902D01*
X191959818Y-74850322D01*
X191953946Y-74835771D01*
X191948000Y-74821249D01*
X191941979Y-74806756D01*
X191935884Y-74792293D01*
X191929714Y-74777861D01*
X191923471Y-74763458D01*
X191917154Y-74749086D01*
X191910763Y-74734745D01*
X191904299Y-74720435D01*
X191897761Y-74706157D01*
X191891150Y-74691912D01*
X191884466Y-74677698D01*
X191877709Y-74663517D01*
X191870878Y-74649370D01*
X191863976Y-74635255D01*
X191857001Y-74621175D01*
X191849953Y-74607128D01*
X191842833Y-74593116D01*
X191835642Y-74579139D01*
X191828378Y-74565197D01*
X191821043Y-74551291D01*
X191813636Y-74537420D01*
X191806158Y-74523586D01*
X191798609Y-74509788D01*
X191790989Y-74496027D01*
X191783298Y-74482304D01*
X191775536Y-74468618D01*
X191767705Y-74454970D01*
X191759803Y-74441361D01*
X191751831Y-74427790D01*
X191743789Y-74414258D01*
X191735677Y-74400766D01*
X191727497Y-74387313D01*
X191719247Y-74373901D01*
X191710928Y-74360529D01*
X191702540Y-74347199D01*
X191694084Y-74333909D01*
X191685559Y-74320661D01*
X191676967Y-74307455D01*
X191668306Y-74294291D01*
X191659578Y-74281170D01*
X191650783Y-74268092D01*
X191641920Y-74255058D01*
X191632990Y-74242067D01*
X191623994Y-74229121D01*
X191614931Y-74216218D01*
X191605802Y-74203361D01*
X191596607Y-74190549D01*
X191587346Y-74177783D01*
X191578019Y-74165062D01*
X191568628Y-74152388D01*
X191559171Y-74139761D01*
X191549650Y-74127180D01*
X191540064Y-74114647D01*
X191530414Y-74102162D01*
X191520701Y-74089724D01*
X191510923Y-74077335D01*
X191501082Y-74064995D01*
X191491178Y-74052705D01*
X191481212Y-74040463D01*
X191471182Y-74028272D01*
X191461091Y-74016130D01*
X191450937Y-74004039D01*
X191440722Y-73992000D01*
X191430445Y-73980011D01*
X191420107Y-73968074D01*
X191409708Y-73956189D01*
X191399249Y-73944356D01*
X191388730Y-73932576D01*
X191378150Y-73920849D01*
X191367511Y-73909175D01*
X191356813Y-73897555D01*
X191346055Y-73885989D01*
X191335239Y-73874477D01*
X191324365Y-73863020D01*
X191313432Y-73851618D01*
X191302442Y-73840271D01*
X191291394Y-73828979D01*
X191280289Y-73817744D01*
X191269127Y-73806565D01*
X191263525Y-73800997D01*
X191257909Y-73795443D01*
X191252278Y-73789903D01*
X191246634Y-73784378D01*
X191240976Y-73778867D01*
X191235304Y-73773370D01*
X191229618Y-73767887D01*
X191223918Y-73762419D01*
X191218204Y-73756966D01*
X191212477Y-73751527D01*
X191206736Y-73746102D01*
X191200981Y-73740692D01*
X191195212Y-73735297D01*
X191189430Y-73729917D01*
X191183635Y-73724551D01*
X191177826Y-73719200D01*
X191172003Y-73713864D01*
X191166167Y-73708542D01*
X191160318Y-73703235D01*
X191154455Y-73697944D01*
X191148579Y-73692667D01*
X191142690Y-73687405D01*
X191136787Y-73682159D01*
X191130872Y-73676927D01*
X191124943Y-73671710D01*
X191119001Y-73666509D01*
X191113046Y-73661323D01*
X191107078Y-73656151D01*
X191101098Y-73650996D01*
X191095104Y-73645855D01*
X191089097Y-73640730D01*
X191083078Y-73635620D01*
X191077046Y-73630525D01*
X191071001Y-73625446D01*
X191064943Y-73620383D01*
X191058873Y-73615334D01*
X191052790Y-73610302D01*
X191046694Y-73605285D01*
X191040587Y-73600284D01*
X191034466Y-73595298D01*
X191028333Y-73590328D01*
X191022188Y-73585373D01*
X191016030Y-73580435D01*
X191009860Y-73575511D01*
X191003678Y-73570605D01*
X190997484Y-73565713D01*
X190991277Y-73560838D01*
X190985058Y-73555978D01*
X190978828Y-73551135D01*
X190972585Y-73546307D01*
X190966330Y-73541496D01*
X190960063Y-73536700D01*
X190953785Y-73531921D01*
X190947494Y-73527158D01*
X190941192Y-73522411D01*
X190934878Y-73517680D01*
X190928553Y-73512965D01*
X190922215Y-73508267D01*
X190915866Y-73503585D01*
X190909505Y-73498919D01*
X190903133Y-73494269D01*
X190896749Y-73489636D01*
X190890354Y-73485020D01*
X190883947Y-73480419D01*
X190877530Y-73475835D01*
X190871100Y-73471268D01*
X190864660Y-73466717D01*
X190858208Y-73462183D01*
X190851746Y-73457665D01*
X190845271Y-73453164D01*
X190838786Y-73448680D01*
X190832290Y-73444212D01*
X190825783Y-73439761D01*
X190819264Y-73435327D01*
X190812736Y-73430910D01*
X190806195Y-73426509D01*
X190799645Y-73422125D01*
X190793083Y-73417758D01*
X190786511Y-73413408D01*
X190779928Y-73409075D01*
X190773335Y-73404759D01*
X190766730Y-73400459D01*
X190760116Y-73396177D01*
X190753490Y-73391912D01*
X190746855Y-73387664D01*
X190740209Y-73383433D01*
X190733553Y-73379219D01*
X190726885Y-73375022D01*
X190720209Y-73370843D01*
X190713521Y-73366680D01*
X190706824Y-73362535D01*
X190700116Y-73358407D01*
X190693399Y-73354296D01*
X190686670Y-73350203D01*
X190679933Y-73346127D01*
X190673185Y-73342068D01*
X190666428Y-73338027D01*
X190659659Y-73334003D01*
X190652883Y-73329997D01*
X190646095Y-73326007D01*
X190639299Y-73322036D01*
X190632491Y-73318082D01*
X190625676Y-73314146D01*
X190618849Y-73310226D01*
X190612015Y-73306325D01*
X190605169Y-73302441D01*
X190598315Y-73298576D01*
X190591451Y-73294727D01*
X190584578Y-73290896D01*
X190577695Y-73287083D01*
X190570804Y-73283288D01*
X190563902Y-73279510D01*
X190556993Y-73275751D01*
X190550073Y-73272008D01*
X190543145Y-73268284D01*
X190536207Y-73264578D01*
X190529261Y-73260890D01*
X190522305Y-73257219D01*
X190515341Y-73253566D01*
X190508367Y-73249931D01*
X190501385Y-73246315D01*
X190494393Y-73242715D01*
X190487394Y-73239135D01*
X190480385Y-73235572D01*
X190473369Y-73232027D01*
X190466342Y-73228500D01*
X190459309Y-73224992D01*
X190452265Y-73221501D01*
X190445214Y-73218029D01*
X190438154Y-73214574D01*
X190431086Y-73211139D01*
X190424009Y-73207720D01*
X190416925Y-73204321D01*
X190409831Y-73200939D01*
X190402730Y-73197576D01*
X190395619Y-73194231D01*
X190388502Y-73190905D01*
X190381376Y-73187596D01*
X190374243Y-73184306D01*
X190367100Y-73181034D01*
X190359951Y-73177781D01*
X190352792Y-73174545D01*
X190345627Y-73171329D01*
X190338453Y-73168131D01*
X190331272Y-73164951D01*
X190324082Y-73161789D01*
X190316886Y-73158647D01*
X190309681Y-73155522D01*
X190302470Y-73152417D01*
X190295249Y-73149329D01*
X190288022Y-73146260D01*
X190280787Y-73143210D01*
X190273545Y-73140178D01*
X190266295Y-73137165D01*
X190259039Y-73134171D01*
X190251773Y-73131194D01*
X190244503Y-73128238D01*
X190237223Y-73125299D01*
X190229937Y-73122379D01*
X190222643Y-73119477D01*
X190215344Y-73116595D01*
X190208035Y-73113731D01*
X190200721Y-73110886D01*
X190193399Y-73108059D01*
X190186071Y-73105252D01*
X190178735Y-73102463D01*
X190171393Y-73099693D01*
X190164043Y-73096942D01*
X190156688Y-73094209D01*
X190149324Y-73091495D01*
X190141956Y-73088801D01*
X190134578Y-73086125D01*
X190127197Y-73083468D01*
X190119806Y-73080830D01*
X190112411Y-73078211D01*
X190105008Y-73075610D01*
X190097600Y-73073029D01*
X190090183Y-73070466D01*
X190082762Y-73067923D01*
X190075333Y-73065398D01*
X190067900Y-73062893D01*
X190060458Y-73060406D01*
X190053012Y-73057939D01*
X190045557Y-73055490D01*
X190038099Y-73053061D01*
X190030632Y-73050651D01*
X190023162Y-73048260D01*
X190015683Y-73045887D01*
X190008200Y-73043534D01*
X190000709Y-73041200D01*
X189993215Y-73038885D01*
X189985712Y-73036589D01*
X189978206Y-73034313D01*
X189970691Y-73032055D01*
X189963173Y-73029817D01*
X189955648Y-73027597D01*
X189948118Y-73025398D01*
X189940581Y-73023216D01*
X189933040Y-73021055D01*
X189925492Y-73018912D01*
X189917940Y-73016789D01*
X189910380Y-73014685D01*
X189902817Y-73012601D01*
X189895247Y-73010535D01*
X189887673Y-73008489D01*
X189880092Y-73006462D01*
X189872507Y-73004454D01*
X189864915Y-73002466D01*
X189857320Y-73000497D01*
X189849718Y-72998547D01*
X189842112Y-72996617D01*
X189834499Y-72994705D01*
X189826884Y-72992814D01*
X189819260Y-72990941D01*
X189811635Y-72989089D01*
X189804001Y-72987255D01*
X189796366Y-72985441D01*
X189788722Y-72983646D01*
X189781077Y-72981871D01*
X189773424Y-72980114D01*
X189765768Y-72978378D01*
X189758106Y-72976660D01*
X189750441Y-72974963D01*
X189742768Y-72973284D01*
X189735094Y-72971626D01*
X189727412Y-72969986D01*
X189719729Y-72968367D01*
X189712038Y-72966766D01*
X189704345Y-72965185D01*
X189696645Y-72963624D01*
X189688943Y-72962082D01*
X189681234Y-72960559D01*
X189673523Y-72959057D01*
X189665805Y-72957573D01*
X189658086Y-72956109D01*
X189650359Y-72954665D01*
X189642631Y-72953240D01*
X189634896Y-72951835D01*
X189627159Y-72950450D01*
X189619415Y-72949083D01*
X189611670Y-72947737D01*
X189603918Y-72946410D01*
X189596165Y-72945103D01*
X189588404Y-72943815D01*
X189580643Y-72942547D01*
X189572875Y-72941299D01*
X189565105Y-72940070D01*
X189557329Y-72938861D01*
X189549551Y-72937672D01*
X189541767Y-72936502D01*
X189533982Y-72935352D01*
X189526190Y-72934221D01*
X189518397Y-72933110D01*
X189510598Y-72932019D01*
X189502798Y-72930948D01*
X189494991Y-72929896D01*
X189487183Y-72928864D01*
X189479369Y-72927851D01*
X189471554Y-72926859D01*
X189463733Y-72925886D01*
X189455910Y-72924932D01*
X189448082Y-72923999D01*
X189440252Y-72923085D01*
X189432417Y-72922191D01*
X189424581Y-72921317D01*
X189416739Y-72920462D01*
X189408895Y-72919628D01*
X189401047Y-72918813D01*
X189393197Y-72918017D01*
X189385341Y-72917242D01*
X189377485Y-72916486D01*
X189369623Y-72915750D01*
X189361760Y-72915035D01*
X189353891Y-72914338D01*
X189346022Y-72913662D01*
X189338147Y-72913005D01*
X189330272Y-72912368D01*
X189322391Y-72911751D01*
X189314509Y-72911154D01*
X189306622Y-72910577D01*
X189298734Y-72910020D01*
X189290841Y-72909482D01*
X189282948Y-72908964D01*
X189275049Y-72908467D01*
X189267149Y-72907989D01*
X189259245Y-72907530D01*
X189251339Y-72907092D01*
X189243429Y-72906674D01*
X189235518Y-72906276D01*
X189227602Y-72905897D01*
X189219686Y-72905538D01*
X189211765Y-72905200D01*
X189203843Y-72904881D01*
X189195917Y-72904582D01*
X189187990Y-72904303D01*
X189180058Y-72904044D01*
X189172126Y-72903805D01*
X189164189Y-72903586D01*
X189156251Y-72903387D01*
X189148309Y-72903208D01*
X189140367Y-72903048D01*
X189132420Y-72902909D01*
X189124473Y-72902790D01*
X189116521Y-72902690D01*
X189108569Y-72902611D01*
X189100613Y-72902552D01*
X189092656Y-72902513D01*
X189084695Y-72902493D01*
X189081013Y-72902491D01*
X192180989Y-76002497D02*
X192180989Y-118802500D01*
X192362965Y-72720530D02*
X192349513Y-72707135D01*
X192336006Y-72693797D01*
X192322444Y-72680518D01*
X192308826Y-72667296D01*
X192295154Y-72654133D01*
X192281427Y-72641028D01*
X192267646Y-72627981D01*
X192253811Y-72614994D01*
X192239921Y-72602065D01*
X192225978Y-72589196D01*
X192211981Y-72576386D01*
X192197931Y-72563636D01*
X192183828Y-72550945D01*
X192169672Y-72538315D01*
X192155463Y-72525744D01*
X192141202Y-72513234D01*
X192126888Y-72500785D01*
X192112523Y-72488396D01*
X192098105Y-72476068D01*
X192083637Y-72463802D01*
X192069117Y-72451596D01*
X192054545Y-72439453D01*
X192039923Y-72427371D01*
X192025251Y-72415351D01*
X192010528Y-72403393D01*
X191995755Y-72391497D01*
X191980931Y-72379664D01*
X191966059Y-72367894D01*
X191951137Y-72356186D01*
X191936165Y-72344542D01*
X191921145Y-72332961D01*
X191906076Y-72321443D01*
X191890959Y-72309989D01*
X191875794Y-72298599D01*
X191860581Y-72287273D01*
X191845320Y-72276011D01*
X191830011Y-72264813D01*
X191814656Y-72253681D01*
X191799253Y-72242612D01*
X191783804Y-72231609D01*
X191768309Y-72220672D01*
X191752767Y-72209799D01*
X191737180Y-72198992D01*
X191721547Y-72188251D01*
X191705869Y-72177575D01*
X191690146Y-72166966D01*
X191674378Y-72156423D01*
X191658566Y-72145947D01*
X191642709Y-72135537D01*
X191626808Y-72125194D01*
X191610864Y-72114918D01*
X191594876Y-72104709D01*
X191578846Y-72094568D01*
X191562772Y-72084494D01*
X191546656Y-72074488D01*
X191530498Y-72064550D01*
X191514297Y-72054680D01*
X191498055Y-72044878D01*
X191481772Y-72035144D01*
X191465447Y-72025479D01*
X191449082Y-72015883D01*
X191432676Y-72006356D01*
X191416230Y-71996898D01*
X191399743Y-71987510D01*
X191383218Y-71978191D01*
X191366653Y-71968941D01*
X191350048Y-71959761D01*
X191333405Y-71950652D01*
X191316724Y-71941612D01*
X191300004Y-71932643D01*
X191283247Y-71923744D01*
X191266452Y-71914915D01*
X191249619Y-71906158D01*
X191232750Y-71897471D01*
X191215844Y-71888856D01*
X191198902Y-71880312D01*
X191181923Y-71871839D01*
X191164909Y-71863438D01*
X191147860Y-71855108D01*
X191130775Y-71846851D01*
X191113655Y-71838665D01*
X191096501Y-71830552D01*
X191079313Y-71822511D01*
X191062091Y-71814542D01*
X191044836Y-71806646D01*
X191027547Y-71798823D01*
X191010225Y-71791072D01*
X190992871Y-71783395D01*
X190975484Y-71775791D01*
X190958065Y-71768260D01*
X190940615Y-71760803D01*
X190923134Y-71753419D01*
X190905621Y-71746109D01*
X190896853Y-71742482D01*
X190888077Y-71738873D01*
X190879294Y-71735283D01*
X190870504Y-71731711D01*
X190861706Y-71728158D01*
X190852900Y-71724623D01*
X190844087Y-71721107D01*
X190835266Y-71717609D01*
X190826439Y-71714130D01*
X190817603Y-71710670D01*
X190808761Y-71707228D01*
X190799911Y-71703805D01*
X190791055Y-71700401D01*
X190782191Y-71697015D01*
X190773320Y-71693648D01*
X190764441Y-71690300D01*
X190755556Y-71686970D01*
X190746664Y-71683659D01*
X190737765Y-71680367D01*
X190728859Y-71677094D01*
X190719946Y-71673840D01*
X190711026Y-71670604D01*
X190702100Y-71667387D01*
X190693166Y-71664189D01*
X190684226Y-71661010D01*
X190675280Y-71657849D01*
X190666327Y-71654708D01*
X190657367Y-71651585D01*
X190648400Y-71648481D01*
X190639427Y-71645396D01*
X190630448Y-71642331D01*
X190621462Y-71639284D01*
X190612470Y-71636256D01*
X190603471Y-71633247D01*
X190594467Y-71630257D01*
X190585456Y-71627285D01*
X190576439Y-71624334D01*
X190567415Y-71621400D01*
X190558386Y-71618487D01*
X190549350Y-71615592D01*
X190540308Y-71612716D01*
X190531260Y-71609859D01*
X190522207Y-71607021D01*
X190513147Y-71604203D01*
X190504082Y-71601403D01*
X190495010Y-71598623D01*
X190485933Y-71595862D01*
X190476850Y-71593120D01*
X190467762Y-71590397D01*
X190458667Y-71587693D01*
X190449567Y-71585009D01*
X190440462Y-71582343D01*
X190431351Y-71579697D01*
X190422234Y-71577070D01*
X190413112Y-71574463D01*
X190403984Y-71571874D01*
X190394851Y-71569305D01*
X190385713Y-71566756D01*
X190376570Y-71564225D01*
X190367420Y-71561714D01*
X190358266Y-71559222D01*
X190349107Y-71556749D01*
X190339943Y-71554296D01*
X190330773Y-71551862D01*
X190321598Y-71549447D01*
X190312418Y-71547052D01*
X190303234Y-71544676D01*
X190294044Y-71542320D01*
X190284850Y-71539983D01*
X190275650Y-71537665D01*
X190266446Y-71535367D01*
X190257237Y-71533088D01*
X190248024Y-71530828D01*
X190238805Y-71528588D01*
X190229582Y-71526368D01*
X190220354Y-71524167D01*
X190211122Y-71521985D01*
X190201885Y-71519823D01*
X190192644Y-71517680D01*
X190183398Y-71515557D01*
X190174148Y-71513454D01*
X190164893Y-71511369D01*
X190155635Y-71509305D01*
X190146371Y-71507260D01*
X190137104Y-71505234D01*
X190127832Y-71503228D01*
X190118557Y-71501242D01*
X190109276Y-71499275D01*
X190099993Y-71497328D01*
X190090704Y-71495400D01*
X190081412Y-71493492D01*
X190072116Y-71491604D01*
X190062816Y-71489735D01*
X190053512Y-71487886D01*
X190044205Y-71486057D01*
X190034893Y-71484247D01*
X190025578Y-71482456D01*
X190016258Y-71480686D01*
X190006936Y-71478935D01*
X189997609Y-71477203D01*
X189988280Y-71475492D01*
X189978946Y-71473800D01*
X189969609Y-71472128D01*
X189960268Y-71470475D01*
X189950924Y-71468842D01*
X189941576Y-71467229D01*
X189932226Y-71465636D01*
X189922871Y-71464062D01*
X189913515Y-71462508D01*
X189904153Y-71460974D01*
X189894790Y-71459460D01*
X189885422Y-71457965D01*
X189876053Y-71456490D01*
X189866679Y-71455035D01*
X189857303Y-71453599D01*
X189847923Y-71452184D01*
X189838542Y-71450788D01*
X189829156Y-71449412D01*
X189819768Y-71448056D01*
X189810377Y-71446719D01*
X189800983Y-71445402D01*
X189791586Y-71444106D01*
X189782188Y-71442829D01*
X189772785Y-71441571D01*
X189763381Y-71440334D01*
X189753973Y-71439116D01*
X189744564Y-71437919D01*
X189735151Y-71436741D01*
X189725737Y-71435583D01*
X189716319Y-71434445D01*
X189706899Y-71433326D01*
X189697477Y-71432228D01*
X189688053Y-71431149D01*
X189678625Y-71430091D01*
X189669197Y-71429052D01*
X189659765Y-71428033D01*
X189650332Y-71427034D01*
X189640896Y-71426055D01*
X189631459Y-71425095D01*
X189622018Y-71424156D01*
X189612577Y-71423237D01*
X189603132Y-71422337D01*
X189593687Y-71421457D01*
X189584239Y-71420598D01*
X189574790Y-71419758D01*
X189565337Y-71418938D01*
X189555885Y-71418138D01*
X189546429Y-71417358D01*
X189536973Y-71416598D01*
X189527513Y-71415858D01*
X189518054Y-71415137D01*
X189508591Y-71414437D01*
X189499129Y-71413757D01*
X189489663Y-71413096D01*
X189480197Y-71412456D01*
X189470729Y-71411835D01*
X189461260Y-71411235D01*
X189451788Y-71410654D01*
X189442317Y-71410093D01*
X189432843Y-71409553D01*
X189423369Y-71409032D01*
X189413892Y-71408531D01*
X189404416Y-71408051D01*
X189394937Y-71407590D01*
X189385458Y-71407149D01*
X189375976Y-71406728D01*
X189366495Y-71406327D01*
X189357012Y-71405946D01*
X189347529Y-71405585D01*
X189338043Y-71405244D01*
X189328559Y-71404924D01*
X189319071Y-71404623D01*
X189309585Y-71404342D01*
X189300096Y-71404081D01*
X189290608Y-71403840D01*
X189281117Y-71403619D01*
X189271628Y-71403418D01*
X189262136Y-71403237D01*
X189252645Y-71403076D01*
X189243152Y-71402935D01*
X189233660Y-71402814D01*
X189224166Y-71402713D01*
X189214673Y-71402632D01*
X189205177Y-71402571D01*
X189195684Y-71402530D01*
X189186188Y-71402509D01*
X189180989Y-71402506D01*
X192362965Y-122084483D02*
X192376360Y-122071031D01*
X192389698Y-122057524D01*
X192402977Y-122043962D01*
X192416199Y-122030344D01*
X192429362Y-122016672D01*
X192442467Y-122002945D01*
X192455514Y-121989164D01*
X192468501Y-121975329D01*
X192481430Y-121961439D01*
X192494299Y-121947496D01*
X192507109Y-121933499D01*
X192519859Y-121919449D01*
X192532550Y-121905346D01*
X192545180Y-121891190D01*
X192557751Y-121876981D01*
X192570261Y-121862720D01*
X192582710Y-121848406D01*
X192595099Y-121834041D01*
X192607427Y-121819623D01*
X192619693Y-121805155D01*
X192631899Y-121790635D01*
X192644042Y-121776063D01*
X192656124Y-121761441D01*
X192668144Y-121746769D01*
X192680102Y-121732046D01*
X192691998Y-121717273D01*
X192703831Y-121702450D01*
X192715601Y-121687577D01*
X192727309Y-121672655D01*
X192738953Y-121657683D01*
X192750534Y-121642663D01*
X192762052Y-121627595D01*
X192773506Y-121612477D01*
X192784896Y-121597312D01*
X192796222Y-121582099D01*
X192807484Y-121566838D01*
X192818682Y-121551529D01*
X192829814Y-121536174D01*
X192840883Y-121520771D01*
X192851886Y-121505322D01*
X192862823Y-121489827D01*
X192873696Y-121474285D01*
X192884503Y-121458698D01*
X192895244Y-121443065D01*
X192905920Y-121427387D01*
X192916529Y-121411664D01*
X192927072Y-121395896D01*
X192937548Y-121380084D01*
X192947958Y-121364227D01*
X192958301Y-121348326D01*
X192968577Y-121332382D01*
X192978786Y-121316394D01*
X192988927Y-121300364D01*
X192999001Y-121284290D01*
X193009007Y-121268174D01*
X193018945Y-121252016D01*
X193028815Y-121235815D01*
X193038617Y-121219573D01*
X193048351Y-121203290D01*
X193058015Y-121186965D01*
X193067611Y-121170600D01*
X193077139Y-121154194D01*
X193086596Y-121137748D01*
X193095985Y-121121262D01*
X193105304Y-121104736D01*
X193114554Y-121088171D01*
X193123734Y-121071566D01*
X193132843Y-121054923D01*
X193141883Y-121038242D01*
X193150852Y-121021522D01*
X193159751Y-121004765D01*
X193168579Y-120987970D01*
X193177337Y-120971137D01*
X193186024Y-120954268D01*
X193194639Y-120937362D01*
X193203183Y-120920420D01*
X193211656Y-120903441D01*
X193220057Y-120886427D01*
X193228387Y-120869378D01*
X193236644Y-120852293D01*
X193244830Y-120835174D01*
X193252943Y-120818020D01*
X193260984Y-120800831D01*
X193268953Y-120783609D01*
X193276849Y-120766354D01*
X193284672Y-120749065D01*
X193292423Y-120731743D01*
X193300100Y-120714389D01*
X193307704Y-120697002D01*
X193315235Y-120679584D01*
X193322692Y-120662133D01*
X193330076Y-120644652D01*
X193337386Y-120627139D01*
X193341013Y-120618371D01*
X193344622Y-120609596D01*
X193348212Y-120600812D01*
X193351784Y-120592022D01*
X193355337Y-120583224D01*
X193358872Y-120574418D01*
X193362388Y-120565605D01*
X193365886Y-120556784D01*
X193369365Y-120547957D01*
X193372825Y-120539122D01*
X193376267Y-120530279D01*
X193379690Y-120521429D01*
X193383094Y-120512573D01*
X193386480Y-120503709D01*
X193389847Y-120494838D01*
X193393195Y-120485959D01*
X193396525Y-120477074D01*
X193399835Y-120468182D01*
X193403128Y-120459283D01*
X193406401Y-120450377D01*
X193409655Y-120441464D01*
X193412891Y-120432544D01*
X193416108Y-120423618D01*
X193419306Y-120414684D01*
X193422485Y-120405744D01*
X193425646Y-120396798D01*
X193428787Y-120387845D01*
X193431910Y-120378885D01*
X193435014Y-120369918D01*
X193438099Y-120360945D01*
X193441164Y-120351966D01*
X193444211Y-120342980D01*
X193447239Y-120333988D01*
X193450248Y-120324990D01*
X193453238Y-120315985D01*
X193456209Y-120306974D01*
X193459161Y-120297957D01*
X193462094Y-120288933D01*
X193465008Y-120279904D01*
X193467903Y-120270868D01*
X193470779Y-120261826D01*
X193473636Y-120252778D01*
X193476474Y-120243725D01*
X193479292Y-120234665D01*
X193482092Y-120225600D01*
X193484872Y-120216528D01*
X193487633Y-120207451D01*
X193490375Y-120198368D01*
X193493098Y-120189280D01*
X193495802Y-120180185D01*
X193498486Y-120171085D01*
X193501152Y-120161980D01*
X193503798Y-120152869D01*
X193506424Y-120143752D01*
X193509032Y-120134630D01*
X193511620Y-120125502D01*
X193514189Y-120116369D01*
X193516739Y-120107231D01*
X193519270Y-120098088D01*
X193521781Y-120088938D01*
X193524273Y-120079785D01*
X193526746Y-120070625D01*
X193529199Y-120061461D01*
X193531633Y-120052291D01*
X193534048Y-120043117D01*
X193536443Y-120033937D01*
X193538819Y-120024752D01*
X193541175Y-120015562D01*
X193543512Y-120006368D01*
X193545830Y-119997168D01*
X193548128Y-119987964D01*
X193550407Y-119978755D01*
X193552667Y-119969542D01*
X193554907Y-119960323D01*
X193557127Y-119951100D01*
X193559328Y-119941872D01*
X193561510Y-119932640D01*
X193563672Y-119923403D01*
X193565815Y-119914162D01*
X193567938Y-119904916D01*
X193570041Y-119895666D01*
X193572125Y-119886411D01*
X193574190Y-119877153D01*
X193576235Y-119867889D01*
X193578260Y-119858622D01*
X193580267Y-119849350D01*
X193582253Y-119840075D01*
X193584220Y-119830794D01*
X193586167Y-119821511D01*
X193588095Y-119812222D01*
X193590002Y-119802930D01*
X193591891Y-119793634D01*
X193593760Y-119784334D01*
X193595609Y-119775030D01*
X193597438Y-119765723D01*
X193599248Y-119756411D01*
X193601039Y-119747096D01*
X193602809Y-119737776D01*
X193604560Y-119728454D01*
X193606292Y-119719127D01*
X193608003Y-119709798D01*
X193609695Y-119700463D01*
X193611367Y-119691127D01*
X193613020Y-119681786D01*
X193614653Y-119672442D01*
X193616266Y-119663094D01*
X193617859Y-119653744D01*
X193619433Y-119644389D01*
X193620987Y-119635033D01*
X193622521Y-119625671D01*
X193624035Y-119616308D01*
X193625530Y-119606940D01*
X193627005Y-119597571D01*
X193628460Y-119588197D01*
X193629896Y-119578821D01*
X193631311Y-119569441D01*
X193632707Y-119560060D01*
X193634083Y-119550674D01*
X193635439Y-119541286D01*
X193636776Y-119531895D01*
X193638092Y-119522501D01*
X193639389Y-119513104D01*
X193640666Y-119503706D01*
X193641924Y-119494303D01*
X193643161Y-119484899D01*
X193644379Y-119475491D01*
X193645576Y-119466082D01*
X193646754Y-119456669D01*
X193647912Y-119447254D01*
X193649050Y-119437836D01*
X193650169Y-119428417D01*
X193651267Y-119418994D01*
X193652346Y-119409571D01*
X193653404Y-119400143D01*
X193654443Y-119390715D01*
X193655462Y-119381283D01*
X193656461Y-119371850D01*
X193657440Y-119362413D01*
X193658399Y-119352976D01*
X193659339Y-119343536D01*
X193660258Y-119334095D01*
X193661158Y-119324650D01*
X193662038Y-119315205D01*
X193662897Y-119305756D01*
X193663737Y-119296307D01*
X193664557Y-119286855D01*
X193665357Y-119277402D01*
X193666137Y-119267947D01*
X193666897Y-119258491D01*
X193667637Y-119249031D01*
X193668358Y-119239572D01*
X193669058Y-119230109D01*
X193669738Y-119220647D01*
X193670399Y-119211181D01*
X193671039Y-119201715D01*
X193671660Y-119192246D01*
X193672260Y-119182778D01*
X193672841Y-119173306D01*
X193673402Y-119163835D01*
X193673942Y-119154361D01*
X193674463Y-119144887D01*
X193674964Y-119135410D01*
X193675444Y-119125933D01*
X193675905Y-119116454D01*
X193676346Y-119106975D01*
X193676767Y-119097494D01*
X193677168Y-119088013D01*
X193677549Y-119078530D01*
X193677910Y-119069047D01*
X193678251Y-119059561D01*
X193678571Y-119050076D01*
X193678872Y-119040589D01*
X193679153Y-119031102D01*
X193679414Y-119021613D01*
X193679655Y-119012125D01*
X193679876Y-119002635D01*
X193680077Y-118993145D01*
X193680258Y-118983653D01*
X193680419Y-118974163D01*
X193680560Y-118964669D01*
X193680681Y-118955177D01*
X193680782Y-118945683D01*
X193680863Y-118936190D01*
X193680924Y-118926695D01*
X193680965Y-118917201D01*
X193680986Y-118907705D01*
X193680989Y-118902506D01*
X193680989Y-75902506D02*
X193680949Y-75883523D01*
X193680829Y-75864541D01*
X193680629Y-75845561D01*
X193680349Y-75826583D01*
X193679989Y-75807608D01*
X193679550Y-75788635D01*
X193679030Y-75769665D01*
X193678431Y-75750699D01*
X193677751Y-75731736D01*
X193676992Y-75712776D01*
X193676153Y-75693821D01*
X193675233Y-75674871D01*
X193674235Y-75655925D01*
X193673156Y-75636984D01*
X193671997Y-75618049D01*
X193670759Y-75599119D01*
X193669441Y-75580195D01*
X193668043Y-75561277D01*
X193666566Y-75542365D01*
X193665008Y-75523461D01*
X193663372Y-75504563D01*
X193661655Y-75485673D01*
X193659859Y-75466791D01*
X193657983Y-75447916D01*
X193656028Y-75429050D01*
X193653993Y-75410193D01*
X193651879Y-75391344D01*
X193649685Y-75372505D01*
X193647412Y-75353675D01*
X193645060Y-75334855D01*
X193642628Y-75316046D01*
X193640117Y-75297246D01*
X193637527Y-75278458D01*
X193634857Y-75259680D01*
X193632109Y-75240914D01*
X193629281Y-75222160D01*
X193626374Y-75203418D01*
X193623388Y-75184688D01*
X193620323Y-75165970D01*
X193617180Y-75147266D01*
X193613957Y-75128575D01*
X193610655Y-75109898D01*
X193607275Y-75091234D01*
X193603816Y-75072585D01*
X193600279Y-75053951D01*
X193596663Y-75035331D01*
X193592968Y-75016726D01*
X193589195Y-74998137D01*
X193585343Y-74979564D01*
X193581414Y-74961008D01*
X193577406Y-74942467D01*
X193573319Y-74923944D01*
X193569155Y-74905437D01*
X193564912Y-74886948D01*
X193560592Y-74868477D01*
X193556194Y-74850024D01*
X193551717Y-74831590D01*
X193547163Y-74813174D01*
X193542532Y-74794778D01*
X193537823Y-74776400D01*
X193533036Y-74758043D01*
X193528172Y-74739706D01*
X193523230Y-74721389D01*
X193518212Y-74703093D01*
X193513116Y-74684818D01*
X193507943Y-74666564D01*
X193502693Y-74648332D01*
X193497366Y-74630122D01*
X193491963Y-74611935D01*
X193486482Y-74593770D01*
X193480925Y-74575628D01*
X193475292Y-74557510D01*
X193469582Y-74539415D01*
X193463796Y-74521345D01*
X193457934Y-74503298D01*
X193451995Y-74485277D01*
X193445981Y-74467280D01*
X193439891Y-74449309D01*
X193433725Y-74431363D01*
X193427483Y-74413443D01*
X193421166Y-74395550D01*
X193414773Y-74377683D01*
X193408305Y-74359844D01*
X193401762Y-74342031D01*
X193395144Y-74324246D01*
X193388450Y-74306490D01*
X193381682Y-74288761D01*
X193374840Y-74271061D01*
X193367922Y-74253390D01*
X193360930Y-74235748D01*
X193353864Y-74218136D01*
X193346724Y-74200553D01*
X193339509Y-74183001D01*
X193335875Y-74174236D01*
X193332221Y-74165479D01*
X193328549Y-74156730D01*
X193324859Y-74147988D01*
X193321150Y-74139255D01*
X193317423Y-74130529D01*
X193313677Y-74121811D01*
X193309914Y-74113100D01*
X193306131Y-74104398D01*
X193302331Y-74095704D01*
X193298512Y-74087018D01*
X193294675Y-74078340D01*
X193290819Y-74069670D01*
X193286945Y-74061008D01*
X193283053Y-74052354D01*
X193279143Y-74043709D01*
X193275215Y-74035072D01*
X193271268Y-74026443D01*
X193267303Y-74017822D01*
X193263320Y-74009210D01*
X193259319Y-74000607D01*
X193255300Y-73992011D01*
X193251263Y-73983425D01*
X193247207Y-73974846D01*
X193243134Y-73966277D01*
X193239042Y-73957716D01*
X193234933Y-73949164D01*
X193230805Y-73940620D01*
X193226660Y-73932085D01*
X193222496Y-73923559D01*
X193218315Y-73915042D01*
X193214115Y-73906533D01*
X193209898Y-73898034D01*
X193205663Y-73889543D01*
X193201410Y-73881062D01*
X193197138Y-73872589D01*
X193192850Y-73864125D01*
X193188543Y-73855671D01*
X193184219Y-73847226D01*
X193179876Y-73838789D01*
X193175517Y-73830362D01*
X193171139Y-73821944D01*
X193166743Y-73813536D01*
X193162330Y-73805137D01*
X193157900Y-73796747D01*
X193153451Y-73788367D01*
X193148985Y-73779996D01*
X193144501Y-73771634D01*
X193140000Y-73763282D01*
X193135481Y-73754940D01*
X193130945Y-73746607D01*
X193126390Y-73738283D01*
X193121819Y-73729970D01*
X193117230Y-73721666D01*
X193112624Y-73713372D01*
X193108000Y-73705087D01*
X193103358Y-73696813D01*
X193098699Y-73688548D01*
X193094023Y-73680293D01*
X193089330Y-73672048D01*
X193084619Y-73663813D01*
X193079890Y-73655588D01*
X193075145Y-73647373D01*
X193070382Y-73639168D01*
X193065602Y-73630973D01*
X193060805Y-73622788D01*
X193055990Y-73614614D01*
X193051158Y-73606449D01*
X193046309Y-73598295D01*
X193041443Y-73590151D01*
X193036560Y-73582018D01*
X193031659Y-73573895D01*
X193026742Y-73565782D01*
X193021807Y-73557679D01*
X193016856Y-73549588D01*
X193011887Y-73541506D01*
X193006902Y-73533436D01*
X193001899Y-73525375D01*
X192996880Y-73517326D01*
X192991843Y-73509286D01*
X192986790Y-73501258D01*
X192981719Y-73493240D01*
X192976632Y-73485233D01*
X192971528Y-73477237D01*
X192966407Y-73469252D01*
X192961269Y-73461277D01*
X192956115Y-73453314D01*
X192950944Y-73445361D01*
X192945756Y-73437419D01*
X192940551Y-73429488D01*
X192935330Y-73421569D01*
X192930091Y-73413660D01*
X192924837Y-73405763D01*
X192919565Y-73397876D01*
X192914278Y-73390001D01*
X192908973Y-73382136D01*
X192903652Y-73374284D01*
X192898314Y-73366442D01*
X192892960Y-73358612D01*
X192887589Y-73350792D01*
X192882203Y-73342985D01*
X192876799Y-73335189D01*
X192871379Y-73327404D01*
X192865943Y-73319630D01*
X192860490Y-73311869D01*
X192855021Y-73304118D01*
X192849536Y-73296380D01*
X192844034Y-73288652D01*
X192838516Y-73280937D01*
X192832982Y-73273233D01*
X192827432Y-73265541D01*
X192821865Y-73257860D01*
X192816282Y-73250192D01*
X192810683Y-73242534D01*
X192805068Y-73234890D01*
X192799436Y-73227256D01*
X192793789Y-73219635D01*
X192788126Y-73212025D01*
X192782447Y-73204428D01*
X192776751Y-73196842D01*
X192771040Y-73189269D01*
X192765312Y-73181707D01*
X192759569Y-73174159D01*
X192753809Y-73166621D01*
X192748034Y-73159096D01*
X192742243Y-73151583D01*
X192736436Y-73144083D01*
X192730613Y-73136594D01*
X192724775Y-73129118D01*
X192718920Y-73121653D01*
X192713051Y-73114202D01*
X192707164Y-73106762D01*
X192701263Y-73099336D01*
X192695346Y-73091921D01*
X192689413Y-73084520D01*
X192683464Y-73077130D01*
X192677500Y-73069753D01*
X192671520Y-73062388D01*
X192665525Y-73055037D01*
X192659514Y-73047697D01*
X192653488Y-73040371D01*
X192647446Y-73033056D01*
X192641389Y-73025756D01*
X192635316Y-73018466D01*
X192629228Y-73011191D01*
X192623124Y-73003928D01*
X192617006Y-72996678D01*
X192610871Y-72989440D01*
X192604722Y-72982216D01*
X192598557Y-72975004D01*
X192592377Y-72967805D01*
X192586181Y-72960619D01*
X192579971Y-72953447D01*
X192573745Y-72946286D01*
X192567504Y-72939140D01*
X192561248Y-72932006D01*
X192554977Y-72924886D01*
X192548690Y-72917778D01*
X192542389Y-72910684D01*
X192536072Y-72903603D01*
X192529741Y-72896535D01*
X192523394Y-72889480D01*
X192517033Y-72882439D01*
X192510656Y-72875410D01*
X192504265Y-72868396D01*
X192497858Y-72861394D01*
X192491437Y-72854406D01*
X192485001Y-72847431D01*
X192478551Y-72840470D01*
X192472084Y-72833522D01*
X192465604Y-72826588D01*
X192459109Y-72819667D01*
X192452599Y-72812760D01*
X192446074Y-72805866D01*
X192439535Y-72798986D01*
X192432980Y-72792119D01*
X192426412Y-72785267D01*
X192419829Y-72778427D01*
X192413231Y-72771602D01*
X192406618Y-72764790D01*
X192399992Y-72757992D01*
X192393350Y-72751207D01*
X192386694Y-72744437D01*
X192380023Y-72737680D01*
X192373339Y-72730938D01*
X192366639Y-72724208D01*
X192362965Y-72720530D01*
X193680989Y-75902506D02*
X193680989Y-118902506D01*
D12*
%TO.C,LED2*%
X130095453Y-116219388D03*
X128945453Y-116222944D03*
%TD*%
D13*
%TO.C,C4*%
X122667339Y-95041911D03*
X123346161Y-94363089D03*
%TD*%
D14*
%TO.C,R4*%
X126956000Y-99937500D03*
X126956000Y-100957500D03*
%TD*%
D15*
%TO.C,Q1*%
X124756000Y-91762500D03*
X124756000Y-92212500D03*
D16*
X125456000Y-91987500D03*
%TD*%
D17*
%TO.C,U1*%
X124361025Y-94921154D03*
X124078183Y-95203997D03*
X123795430Y-95486750D03*
X123512497Y-95769683D03*
X123229494Y-96052686D03*
D18*
X123229654Y-97042475D03*
X123512497Y-97325317D03*
X123795250Y-97608070D03*
X124078183Y-97891003D03*
X124361025Y-98173846D03*
D19*
X125350975Y-98173846D03*
X125633817Y-97891003D03*
X125916750Y-97608070D03*
X126199503Y-97325317D03*
X126482346Y-97042475D03*
D20*
X126482147Y-96052327D03*
X126199269Y-95769448D03*
X125916570Y-95486750D03*
X125633692Y-95203872D03*
X125349737Y-94919916D03*
D21*
X124855658Y-96547338D03*
%TD*%
D12*
%TO.C,LED10*%
X152780453Y-116219388D03*
X151630453Y-116222944D03*
%TD*%
%TO.C,LED1*%
X118826000Y-116219388D03*
X117676000Y-116222944D03*
%TD*%
%TO.C,LED11*%
X186881000Y-78761166D03*
X185731000Y-78764722D03*
%TD*%
D14*
%TO.C,R5*%
X125956000Y-99937500D03*
X125956000Y-100957500D03*
%TD*%
%TO.C,R6*%
X124956000Y-99937500D03*
X124956000Y-100957500D03*
%TD*%
D12*
%TO.C,LED7*%
X118826000Y-106935555D03*
X117676000Y-106939111D03*
%TD*%
%TO.C,LED3*%
X186881000Y-97490277D03*
X185731000Y-97493833D03*
%TD*%
%TO.C,LED19*%
X186881000Y-116219388D03*
X185731000Y-116222944D03*
%TD*%
D22*
%TO.C,C2*%
X118780063Y-84840000D03*
X117820063Y-84840000D03*
%TD*%
D14*
%TO.C,R1*%
X122956000Y-99937500D03*
X122956000Y-100957500D03*
%TD*%
D12*
%TO.C,LED14*%
X118826000Y-88151444D03*
X117676000Y-88155000D03*
%TD*%
%TO.C,LED4*%
X186881000Y-88125722D03*
X185731000Y-88129278D03*
%TD*%
%TO.C,LED17*%
X164283226Y-78761166D03*
X163133226Y-78764722D03*
%TD*%
%TO.C,LED18*%
X152984340Y-78761166D03*
X151834340Y-78764722D03*
%TD*%
%TO.C,LED9*%
X141437953Y-116219388D03*
X140287953Y-116222944D03*
%TD*%
%TO.C,LED16*%
X175465453Y-116219388D03*
X174315453Y-116222944D03*
%TD*%
D23*
%TO.C,LED22*%
X125203142Y-109151070D03*
X125210000Y-110750000D03*
%TD*%
D12*
%TO.C,LED15*%
X164122953Y-116219388D03*
X162972953Y-116222944D03*
%TD*%
D14*
%TO.C,R7*%
X123956000Y-99937500D03*
X123956000Y-100957500D03*
%TD*%
%TO.C,R2*%
X126956000Y-92567500D03*
X126956000Y-93587500D03*
%TD*%
D12*
%TO.C,LED12*%
X175582113Y-78761166D03*
X174432113Y-78764722D03*
%TD*%
D24*
%TO.C,D1*%
X125416000Y-81647500D03*
X124766268Y-81647500D03*
%TD*%
D22*
%TO.C,C3*%
X125586000Y-90757500D03*
X124626000Y-90757500D03*
%TD*%
D12*
%TO.C,LED6*%
X130386566Y-78761166D03*
X129236566Y-78764722D03*
%TD*%
%TO.C,LED13*%
X118826000Y-78759388D03*
X117676000Y-78762944D03*
%TD*%
D25*
%TO.C,R8*%
X127610000Y-98300000D03*
X127610000Y-97280000D03*
%TD*%
D26*
%TO.C,AE1*%
X115181001Y-77402501D03*
X113771000Y-71552500D03*
%TD*%
D27*
%TO.C,U3*%
X117700063Y-82308502D03*
D28*
X117700063Y-82808374D03*
X117700063Y-83308246D03*
D29*
X118300063Y-83408374D03*
D28*
X118900063Y-83308500D03*
X118900063Y-82808374D03*
X118900063Y-82308502D03*
D29*
X118300063Y-82208374D03*
%TD*%
D30*
%TO.C,R3*%
X124596000Y-89477500D03*
X125616000Y-89477500D03*
%TD*%
D22*
%TO.C,C1*%
X117970000Y-80990000D03*
X117010000Y-80990000D03*
%TD*%
D12*
%TO.C,LED8*%
X118826000Y-97543499D03*
X117676000Y-97547055D03*
%TD*%
%TO.C,LED20*%
X186881000Y-106854833D03*
X185731000Y-106858389D03*
%TD*%
%TO.C,LED5*%
X141685453Y-78761166D03*
X140535453Y-78764722D03*
%TD*%
M02*
