%TF.GenerationSoftware,KiCad,Pcbnew,10.0.3*%
%TF.CreationDate,2026-09-18T14:11:51+09:00*%
%TF.ProjectId,Business Card v2,42757369-6e65-4737-9320-436172642076,2*%
%TF.SameCoordinates,Original*%
%TF.FileFunction,Copper,L1,Top*%
%TF.FilePolarity,Positive*%
%FSLAX46Y46*%
G04 Gerber Fmt 4.6, Leading zero omitted, Abs format (unit mm)*
G04 Created by KiCad (PCBNEW 10.0.3) date 2026-09-18 14:11:51*
%MOMM*%
%LPD*%
G01*
G04 APERTURE LIST*
G04 Aperture macros list*
%AMRoundRect*
0 Rectangle with rounded corners*
0 $1 Rounding radius*
0 $2 $3 $4 $5 $6 $7 $8 $9 X,Y pos of 4 corners*
0 Add a 4 corners polygon primitive as box body*
4,1,4,$2,$3,$4,$5,$6,$7,$8,$9,$2,$3,0*
0 Add four circle primitives for the rounded corners*
1,1,$1+$1,$2,$3*
1,1,$1+$1,$4,$5*
1,1,$1+$1,$6,$7*
1,1,$1+$1,$8,$9*
0 Add four rect primitives between the rounded corners*
20,1,$1+$1,$2,$3,$4,$5,0*
20,1,$1+$1,$4,$5,$6,$7,0*
20,1,$1+$1,$6,$7,$8,$9,0*
20,1,$1+$1,$8,$9,$2,$3,0*%
%AMRotRect*
0 Rectangle, with rotation*
0 The origin of the aperture is its center*
0 $1 length*
0 $2 width*
0 $3 Rotation angle, in degrees counterclockwise*
0 Add horizontal line*
21,1,$1,$2,0,0,$3*%
%AMFreePoly0*
4,1,6,0.850000,-0.850000,-0.550000,-0.849833,-0.850000,-0.549808,-0.850000,0.850000,0.850000,0.850000,0.850000,-0.850000,0.850000,-0.850000,$1*%
G04 Aperture macros list end*
%TA.AperFunction,EtchedComponent*%
%ADD10C,1.000000*%
%TD*%
%TA.AperFunction,SMDPad,CuDef*%
%ADD11R,0.650000X1.000000*%
%TD*%
%TA.AperFunction,SMDPad,CuDef*%
%ADD12RoundRect,0.140000X0.021213X-0.219203X0.219203X-0.021213X-0.021213X0.219203X-0.219203X0.021213X0*%
%TD*%
%TA.AperFunction,SMDPad,CuDef*%
%ADD13RoundRect,0.135000X-0.185000X0.135000X-0.185000X-0.135000X0.185000X-0.135000X0.185000X0.135000X0*%
%TD*%
%TA.AperFunction,SMDPad,CuDef*%
%ADD14R,0.450000X0.250000*%
%TD*%
%TA.AperFunction,SMDPad,CuDef*%
%ADD15R,0.450000X0.700000*%
%TD*%
%TA.AperFunction,SMDPad,CuDef*%
%ADD16RotRect,0.200000X0.800000X225.000000*%
%TD*%
%TA.AperFunction,SMDPad,CuDef*%
%ADD17RotRect,0.200000X0.800000X315.000000*%
%TD*%
%TA.AperFunction,SMDPad,CuDef*%
%ADD18RotRect,0.200000X0.800000X45.000000*%
%TD*%
%TA.AperFunction,SMDPad,CuDef*%
%ADD19RotRect,0.200000X0.800000X135.000000*%
%TD*%
%TA.AperFunction,SMDPad,CuDef*%
%ADD20FreePoly0,225.000000*%
%TD*%
%TA.AperFunction,SMDPad,CuDef*%
%ADD21RoundRect,0.140000X0.140000X0.170000X-0.140000X0.170000X-0.140000X-0.170000X0.140000X-0.170000X0*%
%TD*%
%TA.AperFunction,SMDPad,CuDef*%
%ADD22R,0.800000X0.800000*%
%TD*%
%TA.AperFunction,SMDPad,CuDef*%
%ADD23R,0.400000X0.600000*%
%TD*%
%TA.AperFunction,SMDPad,CuDef*%
%ADD24RoundRect,0.135000X0.185000X-0.135000X0.185000X0.135000X-0.185000X0.135000X-0.185000X-0.135000X0*%
%TD*%
%TA.AperFunction,SMDPad,CuDef*%
%ADD25C,1.000000*%
%TD*%
%TA.AperFunction,SMDPad,CuDef*%
%ADD26R,0.400000X0.280000*%
%TD*%
%TA.AperFunction,SMDPad,CuDef*%
%ADD27R,0.400000X0.220000*%
%TD*%
%TA.AperFunction,SMDPad,CuDef*%
%ADD28R,0.220000X0.400000*%
%TD*%
%TA.AperFunction,SMDPad,CuDef*%
%ADD29RoundRect,0.135000X-0.135000X-0.185000X0.135000X-0.185000X0.135000X0.185000X-0.135000X0.185000X0*%
%TD*%
%TA.AperFunction,ViaPad*%
%ADD30C,0.450000*%
%TD*%
%TA.AperFunction,ViaPad*%
%ADD31C,1.000000*%
%TD*%
%TA.AperFunction,Conductor*%
%ADD32C,0.152000*%
%TD*%
%TA.AperFunction,Conductor*%
%ADD33C,0.500000*%
%TD*%
%TA.AperFunction,Conductor*%
%ADD34C,0.300000*%
%TD*%
G04 APERTURE END LIST*
%TO.C,AE1*%
D10*
X110681000Y-118902500D02*
X110681000Y-77402500D01*
X112181000Y-118802500D02*
X112181000Y-77502500D01*
X113681000Y-118902500D02*
X113681000Y-77402500D01*
X115081000Y-71402500D02*
X189181000Y-71402500D01*
X115181000Y-72902500D02*
X189081000Y-72902500D01*
X115181000Y-75902500D02*
X189181000Y-75902500D01*
X115181000Y-118902500D02*
X115181000Y-77402500D01*
X115281000Y-74402500D02*
X189181000Y-74402500D01*
X189081000Y-121902500D02*
X115281000Y-121902500D01*
X189181000Y-75902500D02*
X189181000Y-118902500D01*
X189181000Y-118902500D02*
X115181000Y-118902500D01*
X189181000Y-120402500D02*
X115181000Y-120402500D01*
X189181000Y-123402500D02*
X115181000Y-123402500D01*
X190681000Y-75902500D02*
X190681000Y-118902500D01*
X192181000Y-76002500D02*
X192181000Y-118802500D01*
X193681000Y-75902500D02*
X193681000Y-118902500D01*
X110681000Y-77402500D02*
G75*
G02*
X115181000Y-72902500I4499998J2D01*
G01*
X112181000Y-77502500D02*
G75*
G02*
X115281000Y-74402500I3100000J0D01*
G01*
X113681000Y-77402500D02*
G75*
G02*
X115181000Y-75902500I1500000J0D01*
G01*
X113771000Y-71552500D02*
G75*
G02*
X115081000Y-71405162I1310000J-5750000D01*
G01*
X115181000Y-120402500D02*
G75*
G02*
X113681000Y-118902500I0J1500000D01*
G01*
X115181000Y-123402500D02*
G75*
G02*
X110681000Y-118902500I0J4500000D01*
G01*
X115281000Y-121902500D02*
G75*
G02*
X112181000Y-118802500I0J3100000D01*
G01*
X189081000Y-72902500D02*
G75*
G02*
X192181000Y-76002500I0J-3100000D01*
G01*
X189181000Y-71402500D02*
G75*
G02*
X193681000Y-75902500I0J-4500000D01*
G01*
X189181000Y-74402500D02*
G75*
G02*
X190681000Y-75902500I0J-1500000D01*
G01*
X190681000Y-118902500D02*
G75*
G02*
X189181000Y-120402500I-1500000J0D01*
G01*
X192181000Y-118802500D02*
G75*
G02*
X189081000Y-121902500I-3100000J0D01*
G01*
X193681000Y-118902500D02*
G75*
G02*
X189181000Y-123402500I-4500000J0D01*
G01*
%TD*%
D11*
%TO.P,LED2,1,A*%
%TO.N,Net-(LED1-C)*%
X130095453Y-116219388D03*
%TO.P,LED2,2,C*%
%TO.N,Net-(LED1-A)*%
X128945453Y-116222944D03*
%TD*%
D12*
%TO.P,C4,1*%
%TO.N,VCC*%
X122667339Y-95041911D03*
%TO.P,C4,2*%
%TO.N,GND*%
X123346161Y-94363089D03*
%TD*%
D13*
%TO.P,R4,1*%
%TO.N,/LEDS_A*%
X126956000Y-99937500D03*
%TO.P,R4,2*%
%TO.N,Net-(LED1-A)*%
X126956000Y-100957500D03*
%TD*%
D14*
%TO.P,Q1,1,G*%
%TO.N,/GATE*%
X124756000Y-91762500D03*
%TO.P,Q1,2,S*%
%TO.N,VCC*%
X124756000Y-92212500D03*
D15*
%TO.P,Q1,3,D*%
%TO.N,Net-(Q1-D)*%
X125456000Y-91987500D03*
%TD*%
D16*
%TO.P,U1,1,PA2*%
%TO.N,unconnected-(U1-PA2-Pad1)*%
X124361025Y-94921154D03*
%TO.P,U1,2,EXTCLK/PA3*%
%TO.N,unconnected-(U1-EXTCLK{slash}PA3-Pad2)*%
X124078183Y-95203997D03*
%TO.P,U1,3,GND*%
%TO.N,GND*%
X123795430Y-95486750D03*
%TO.P,U1,4,VDD*%
%TO.N,VCC*%
X123512497Y-95769683D03*
%TO.P,U1,5,PA4*%
%TO.N,unconnected-(U1-PA4-Pad5)*%
X123229494Y-96052686D03*
D17*
%TO.P,U1,6,PA5*%
%TO.N,unconnected-(U1-PA5-Pad6)*%
X123229654Y-97042475D03*
%TO.P,U1,7,PA6*%
%TO.N,unconnected-(U1-PA6-Pad7)*%
X123512497Y-97325317D03*
%TO.P,U1,8,PA7*%
%TO.N,unconnected-(U1-PA7-Pad8)*%
X123795250Y-97608070D03*
%TO.P,U1,9,PB5*%
%TO.N,/LEDS_E*%
X124078183Y-97891003D03*
%TO.P,U1,10,PB4*%
%TO.N,/LEDS_D*%
X124361025Y-98173846D03*
D18*
%TO.P,U1,11,PB3/TOSC1*%
%TO.N,/LEDS_C*%
X125350975Y-98173846D03*
%TO.P,U1,12,PB2/TOSC2*%
%TO.N,/LEDS_B*%
X125633817Y-97891003D03*
%TO.P,U1,13,PB1*%
%TO.N,/LEDS_A*%
X125916750Y-97608070D03*
%TO.P,U1,14,PB0*%
%TO.N,/INDICATOR_LED*%
X126199503Y-97325317D03*
%TO.P,U1,15,PC0*%
%TO.N,/GATE*%
X126482346Y-97042475D03*
D19*
%TO.P,U1,16,PC1*%
%TO.N,unconnected-(U1-PC1-Pad16)*%
X126482147Y-96052327D03*
%TO.P,U1,17,PC2*%
%TO.N,unconnected-(U1-PC2-Pad17)*%
X126199269Y-95769448D03*
%TO.P,U1,18,PC3*%
%TO.N,unconnected-(U1-PC3-Pad18)*%
X125916570Y-95486750D03*
%TO.P,U1,19,PA0/RESET#/UPDI*%
%TO.N,/UPDI_PAD*%
X125633692Y-95203872D03*
%TO.P,U1,20,PA1*%
%TO.N,unconnected-(U1-PA1-Pad20)*%
X125349737Y-94919916D03*
D20*
%TO.P,U1,21,GND*%
%TO.N,GND*%
X124855658Y-96547338D03*
%TD*%
D11*
%TO.P,LED10,1,A*%
%TO.N,Net-(LED10-A)*%
X152780453Y-116219388D03*
%TO.P,LED10,2,C*%
%TO.N,Net-(LED1-C)*%
X151630453Y-116222944D03*
%TD*%
%TO.P,LED1,1,A*%
%TO.N,Net-(LED1-A)*%
X118826000Y-116219388D03*
%TO.P,LED1,2,C*%
%TO.N,Net-(LED1-C)*%
X117676000Y-116222944D03*
%TD*%
%TO.P,LED11,1,A*%
%TO.N,Net-(LED1-C)*%
X186881000Y-78761166D03*
%TO.P,LED11,2,C*%
%TO.N,Net-(LED11-C)*%
X185731000Y-78764722D03*
%TD*%
D13*
%TO.P,R5,1*%
%TO.N,/LEDS_B*%
X125956000Y-99937500D03*
%TO.P,R5,2*%
%TO.N,Net-(LED1-C)*%
X125956000Y-100957500D03*
%TD*%
%TO.P,R6,1*%
%TO.N,/LEDS_C*%
X124956000Y-99937500D03*
%TO.P,R6,2*%
%TO.N,Net-(LED10-A)*%
X124956000Y-100957500D03*
%TD*%
D11*
%TO.P,LED7,1,A*%
%TO.N,Net-(LED13-C)*%
X118826000Y-106935555D03*
%TO.P,LED7,2,C*%
%TO.N,Net-(LED1-A)*%
X117676000Y-106939111D03*
%TD*%
%TO.P,LED3,1,A*%
%TO.N,Net-(LED1-A)*%
X186881000Y-97490277D03*
%TO.P,LED3,2,C*%
%TO.N,Net-(LED10-A)*%
X185731000Y-97493833D03*
%TD*%
%TO.P,LED19,1,A*%
%TO.N,Net-(LED11-C)*%
X186881000Y-116219388D03*
%TO.P,LED19,2,C*%
%TO.N,Net-(LED13-C)*%
X185731000Y-116222944D03*
%TD*%
D21*
%TO.P,C2,1*%
%TO.N,VCC*%
X118780063Y-84840000D03*
%TO.P,C2,2*%
%TO.N,GND*%
X117820063Y-84840000D03*
%TD*%
D13*
%TO.P,R1,1*%
%TO.N,/LEDS_E*%
X122956000Y-99937500D03*
%TO.P,R1,2*%
%TO.N,Net-(LED13-C)*%
X122956000Y-100957500D03*
%TD*%
D11*
%TO.P,LED14,1,A*%
%TO.N,Net-(LED13-C)*%
X118826000Y-88151444D03*
%TO.P,LED14,2,C*%
%TO.N,Net-(LED1-C)*%
X117676000Y-88155000D03*
%TD*%
%TO.P,LED4,1,A*%
%TO.N,Net-(LED10-A)*%
X186881000Y-88125722D03*
%TO.P,LED4,2,C*%
%TO.N,Net-(LED1-A)*%
X185731000Y-88129278D03*
%TD*%
%TO.P,LED17,1,A*%
%TO.N,Net-(LED10-A)*%
X164283226Y-78761166D03*
%TO.P,LED17,2,C*%
%TO.N,Net-(LED13-C)*%
X163133226Y-78764722D03*
%TD*%
%TO.P,LED18,1,A*%
%TO.N,Net-(LED13-C)*%
X152984340Y-78761166D03*
%TO.P,LED18,2,C*%
%TO.N,Net-(LED10-A)*%
X151834340Y-78764722D03*
%TD*%
%TO.P,LED9,1,A*%
%TO.N,Net-(LED1-C)*%
X141437953Y-116219388D03*
%TO.P,LED9,2,C*%
%TO.N,Net-(LED10-A)*%
X140287953Y-116222944D03*
%TD*%
%TO.P,LED16,1,A*%
%TO.N,Net-(LED11-C)*%
X175465453Y-116219388D03*
%TO.P,LED16,2,C*%
%TO.N,Net-(LED10-A)*%
X174315453Y-116222944D03*
%TD*%
D22*
%TO.P,LED22,1,K*%
%TO.N,GND*%
X125203142Y-109151070D03*
%TO.P,LED22,2,A*%
%TO.N,Net-(LED22-A)*%
X125210000Y-110750000D03*
%TD*%
D11*
%TO.P,LED15,1,A*%
%TO.N,Net-(LED10-A)*%
X164122953Y-116219388D03*
%TO.P,LED15,2,C*%
%TO.N,Net-(LED11-C)*%
X162972953Y-116222944D03*
%TD*%
D13*
%TO.P,R7,1*%
%TO.N,/LEDS_D*%
X123956000Y-99937500D03*
%TO.P,R7,2*%
%TO.N,Net-(LED11-C)*%
X123956000Y-100957500D03*
%TD*%
%TO.P,R2,1*%
%TO.N,VCC*%
X126956000Y-92567500D03*
%TO.P,R2,2*%
%TO.N,/GATE*%
X126956000Y-93587500D03*
%TD*%
D11*
%TO.P,LED12,1,A*%
%TO.N,Net-(LED11-C)*%
X175582113Y-78761166D03*
%TO.P,LED12,2,C*%
%TO.N,Net-(LED1-C)*%
X174432113Y-78764722D03*
%TD*%
D23*
%TO.P,D1,1,1*%
%TO.N,/UPDI_PAD*%
X125416000Y-81647500D03*
%TO.P,D1,2,2*%
%TO.N,GND*%
X124766268Y-81647500D03*
%TD*%
D21*
%TO.P,C3,1*%
%TO.N,Net-(Q1-D)*%
X125586000Y-90757500D03*
%TO.P,C3,2*%
%TO.N,GND*%
X124626000Y-90757500D03*
%TD*%
D11*
%TO.P,LED6,1,A*%
%TO.N,Net-(LED11-C)*%
X130386566Y-78761166D03*
%TO.P,LED6,2,C*%
%TO.N,Net-(LED1-A)*%
X129236566Y-78764722D03*
%TD*%
%TO.P,LED13,1,A*%
%TO.N,Net-(LED1-C)*%
X118826000Y-78759388D03*
%TO.P,LED13,2,C*%
%TO.N,Net-(LED13-C)*%
X117676000Y-78762944D03*
%TD*%
D24*
%TO.P,R8,1*%
%TO.N,/INDICATOR_LED*%
X127610000Y-98300000D03*
%TO.P,R8,2*%
%TO.N,Net-(LED22-A)*%
X127610000Y-97280000D03*
%TD*%
D25*
%TO.P,AE1,1*%
%TO.N,/ANT_A*%
X115181001Y-77402501D03*
%TO.P,AE1,2*%
%TO.N,/ANT_B*%
X113771000Y-71552500D03*
%TD*%
D26*
%TO.P,U3,1,LA*%
%TO.N,/ANT_A*%
X117700063Y-82308502D03*
D27*
%TO.P,U3,2,VSS*%
%TO.N,GND*%
X117700063Y-82808374D03*
%TO.P,U3,3,SCL*%
%TO.N,unconnected-(U3-SCL-Pad3)*%
X117700063Y-83308246D03*
D28*
%TO.P,U3,4,FD*%
%TO.N,unconnected-(U3-FD-Pad4)*%
X118300063Y-83408374D03*
D27*
%TO.P,U3,5,SDA*%
%TO.N,unconnected-(U3-SDA-Pad5)*%
X118900063Y-83308500D03*
%TO.P,U3,6,VCC*%
%TO.N,unconnected-(U3-VCC-Pad6)*%
X118900063Y-82808374D03*
%TO.P,U3,7,VOUT*%
%TO.N,VCC*%
X118900063Y-82308502D03*
D28*
%TO.P,U3,8,LB*%
%TO.N,/ANT_B*%
X118300063Y-82208374D03*
%TD*%
D29*
%TO.P,R3,1*%
%TO.N,VCC*%
X124596000Y-89477500D03*
%TO.P,R3,2*%
%TO.N,Net-(Q1-D)*%
X125616000Y-89477500D03*
%TD*%
D21*
%TO.P,C1,1*%
%TO.N,/ANT_B*%
X117970000Y-80990000D03*
%TO.P,C1,2*%
%TO.N,/ANT_A*%
X117010000Y-80990000D03*
%TD*%
D11*
%TO.P,LED8,1,A*%
%TO.N,Net-(LED1-A)*%
X118826000Y-97543499D03*
%TO.P,LED8,2,C*%
%TO.N,Net-(LED13-C)*%
X117676000Y-97547055D03*
%TD*%
%TO.P,LED20,1,A*%
%TO.N,Net-(LED13-C)*%
X186881000Y-106854833D03*
%TO.P,LED20,2,C*%
%TO.N,Net-(LED11-C)*%
X185731000Y-106858389D03*
%TD*%
%TO.P,LED5,1,A*%
%TO.N,Net-(LED1-A)*%
X141685453Y-78761166D03*
%TO.P,LED5,2,C*%
%TO.N,Net-(LED11-C)*%
X140535453Y-78764722D03*
%TD*%
D30*
%TO.N,Net-(LED1-C)*%
X177706000Y-81807500D03*
X144706000Y-113187500D03*
X130956000Y-113187500D03*
X120434000Y-90639347D03*
X125956000Y-103437500D03*
%TO.N,Net-(LED1-A)*%
X181916000Y-91764000D03*
X130956000Y-112437500D03*
X126956000Y-103437500D03*
X125956000Y-107437500D03*
%TO.N,VCC*%
X119296000Y-85647500D03*
X123211727Y-89563227D03*
X121896000Y-94267500D03*
X124716000Y-93147500D03*
%TO.N,GND*%
X123820000Y-90790000D03*
X121466000Y-81647500D03*
X118732103Y-86283521D03*
X127846175Y-104782240D03*
%TO.N,/UPDI_PAD*%
X126974250Y-94625750D03*
X126506000Y-81607500D03*
%TO.N,Net-(LED10-A)*%
X161706000Y-81057500D03*
X124956000Y-103437500D03*
X183398727Y-91235034D03*
X142333420Y-113944920D03*
X172030009Y-113937500D03*
%TO.N,Net-(LED11-C)*%
X123956000Y-103437500D03*
X177706000Y-80307500D03*
X174076000Y-114687500D03*
X184156000Y-110457500D03*
%TO.N,Net-(LED13-C)*%
X184910000Y-110457500D03*
X122956000Y-103437500D03*
X124246999Y-107438500D03*
X161706000Y-80187500D03*
%TO.N,Net-(LED22-A)*%
X127590000Y-96250000D03*
X128496027Y-104768219D03*
D31*
%TO.N,/ANT_A*%
X116490000Y-80040000D03*
X115181001Y-77402501D03*
%TO.N,/ANT_B*%
X113771000Y-71552500D03*
X117810535Y-80059465D03*
%TD*%
%TO.N,Net-(LED1-C)*%
D32*
X117676000Y-88155000D02*
X117676000Y-88366000D01*
X131105000Y-115885000D02*
X130770612Y-116219388D01*
X126706000Y-112437500D02*
X130095453Y-115826953D01*
X117676000Y-88155000D02*
X117676000Y-87554750D01*
X118826000Y-78807500D02*
X118826000Y-78759388D01*
X184436000Y-81807500D02*
X186881000Y-79362500D01*
X120009347Y-90639347D02*
X120434000Y-90639347D01*
X142690356Y-114297920D02*
X143359421Y-114297920D01*
X119923000Y-78976606D02*
X119705782Y-78759388D01*
X174432113Y-78764722D02*
X174432113Y-78852113D01*
X145103000Y-112790500D02*
X149027347Y-112790500D01*
X131105000Y-113336500D02*
X131105000Y-115885000D01*
X177387500Y-81807500D02*
X177706000Y-81807500D01*
X117676000Y-88306000D02*
X120009347Y-90639347D01*
X144469842Y-113187500D02*
X144706000Y-113187500D01*
X121228888Y-112437500D02*
X126706000Y-112437500D01*
X141437953Y-115550323D02*
X142690356Y-114297920D01*
X117676000Y-87554750D02*
X117856306Y-87374444D01*
X174432113Y-78852113D02*
X177387500Y-81807500D01*
X151630453Y-115393606D02*
X151630453Y-116222944D01*
X125956000Y-100957500D02*
X125956000Y-103437500D01*
X130095453Y-115826953D02*
X130095453Y-116219388D01*
X117676000Y-116222944D02*
X117676000Y-115990388D01*
X143359421Y-114297920D02*
X144469842Y-113187500D01*
X119705782Y-78759388D02*
X118826000Y-78759388D01*
X141437953Y-116219388D02*
X141437953Y-115550323D01*
X117676000Y-115990388D02*
X121228888Y-112437500D01*
X119923000Y-85907212D02*
X119923000Y-78976606D01*
X130956000Y-113187500D02*
X131105000Y-113336500D01*
X186881000Y-79362500D02*
X186881000Y-78761166D01*
X117676000Y-88155000D02*
X117676000Y-88306000D01*
X177706000Y-81807500D02*
X184436000Y-81807500D01*
X144706000Y-113187500D02*
X145103000Y-112790500D01*
X118455768Y-87374444D02*
X119923000Y-85907212D01*
X149027347Y-112790500D02*
X151630453Y-115393606D01*
X130770612Y-116219388D02*
X130095453Y-116219388D01*
X117856306Y-87374444D02*
X118455768Y-87374444D01*
%TO.N,Net-(LED1-A)*%
X127165154Y-106228346D02*
X125956000Y-107437500D01*
X117676000Y-106939111D02*
X117676000Y-107164555D01*
X127165154Y-104437500D02*
X127165154Y-106228346D01*
X127559000Y-91049000D02*
X128740000Y-92230000D01*
X129543897Y-116996388D02*
X128945453Y-116397944D01*
X117676000Y-107164555D02*
X118450945Y-107939500D01*
X126559782Y-112790500D02*
X128945453Y-115176171D01*
X125454000Y-107939500D02*
X125956000Y-107437500D01*
X128740000Y-102862654D02*
X127165154Y-104437500D01*
X185731000Y-88329000D02*
X183374500Y-90685500D01*
X121603000Y-100495499D02*
X118826000Y-97718499D01*
X129236566Y-78939722D02*
X131236844Y-80940000D01*
X141685453Y-79208047D02*
X141685453Y-78761166D01*
X183374500Y-90685500D02*
X183198064Y-90685500D01*
X131236844Y-80940000D02*
X139953500Y-80940000D01*
X181916000Y-91764000D02*
X181916000Y-92337500D01*
X118826000Y-115339606D02*
X121375106Y-112790500D01*
X186881000Y-97302500D02*
X186881000Y-97490277D01*
X118826000Y-116219388D02*
X118826000Y-115339606D01*
X128740000Y-92230000D02*
X128740000Y-102862654D01*
X129236566Y-78764722D02*
X129236566Y-78939722D01*
X131458000Y-116235841D02*
X130697453Y-116996388D01*
X130697453Y-116996388D02*
X129543897Y-116996388D01*
X182296000Y-91764000D02*
X181916000Y-91764000D01*
X128945453Y-115176171D02*
X128945453Y-116222944D01*
X118826000Y-97718499D02*
X118826000Y-97543499D01*
X181916000Y-92337500D02*
X186881000Y-97302500D01*
X185731000Y-88129278D02*
X185731000Y-88329000D01*
X183198064Y-90685500D02*
X182904000Y-90979564D01*
X128945453Y-116397944D02*
X128945453Y-116222944D01*
X118450945Y-107939500D02*
X125454000Y-107939500D01*
X128356784Y-78764722D02*
X127559000Y-79562506D01*
X139953500Y-80940000D02*
X141685453Y-79208047D01*
X127559000Y-79562506D02*
X127559000Y-91049000D01*
X130956000Y-112437500D02*
X131458000Y-112939500D01*
X121375106Y-112790500D02*
X126559782Y-112790500D01*
X182904000Y-91156000D02*
X182296000Y-91764000D01*
X129236566Y-78764722D02*
X128356784Y-78764722D01*
X182904000Y-90979564D02*
X182904000Y-91156000D01*
X131458000Y-112939500D02*
X131458000Y-116235841D01*
X126956000Y-100957500D02*
X126956000Y-103437500D01*
X121603000Y-102779555D02*
X121603000Y-100495499D01*
X117676000Y-106939111D02*
X117676000Y-106706555D01*
X117676000Y-106706555D02*
X121603000Y-102779555D01*
%TO.N,VCC*%
D33*
X124716000Y-92338500D02*
X124756000Y-92338500D01*
D32*
X123512497Y-95769683D02*
X122784725Y-95041911D01*
X122784725Y-95041911D02*
X122667339Y-95041911D01*
D34*
X124510273Y-89563227D02*
X124596000Y-89477500D01*
D32*
X126456000Y-92567500D02*
X126956000Y-92567500D01*
D33*
X123211727Y-89563227D02*
X123280273Y-89563227D01*
D34*
X123211727Y-89563227D02*
X124510273Y-89563227D01*
X122667339Y-95038839D02*
X121896000Y-94267500D01*
X118780063Y-84638374D02*
X118780063Y-84840000D01*
X122667339Y-95041911D02*
X122667339Y-95038839D01*
D33*
X118780063Y-84840000D02*
X118780063Y-85131563D01*
D32*
X124716000Y-93147500D02*
X125876000Y-93147500D01*
D33*
X123211727Y-89563227D02*
X123211727Y-89631773D01*
D34*
X119412191Y-82308502D02*
X119451063Y-82347374D01*
D33*
X123211727Y-89631773D02*
X121896000Y-90947500D01*
X121896000Y-90947500D02*
X121896000Y-94267500D01*
D34*
X118900063Y-82308502D02*
X119412191Y-82308502D01*
D33*
X124716000Y-93147500D02*
X124716000Y-92338500D01*
X118780063Y-85131563D02*
X119296000Y-85647500D01*
D34*
X119451063Y-82347374D02*
X119451063Y-83967374D01*
X124730000Y-92238500D02*
X124756000Y-92238500D01*
D33*
X124586000Y-89487500D02*
X124596000Y-89477500D01*
D34*
X119451063Y-83967374D02*
X118780063Y-84638374D01*
D32*
X125876000Y-93147500D02*
X126456000Y-92567500D01*
D34*
X124716000Y-92252500D02*
X124730000Y-92238500D01*
X123297454Y-89477500D02*
X123211727Y-89563227D01*
%TO.N,GND*%
D32*
X127850000Y-107440000D02*
X126138930Y-109151070D01*
D34*
X116910063Y-83208374D02*
X117270063Y-82848374D01*
X117618437Y-84638374D02*
X117560063Y-84638374D01*
D33*
X124593500Y-90790000D02*
X124626000Y-90757500D01*
X123820000Y-90790000D02*
X124593500Y-90790000D01*
D32*
X123795430Y-95486750D02*
X123795430Y-95487110D01*
D33*
X117820063Y-85371481D02*
X118732103Y-86283521D01*
X122220000Y-81647500D02*
X124765000Y-81647500D01*
D32*
X123795430Y-95486750D02*
X123346161Y-95037481D01*
X117310063Y-82808374D02*
X117270063Y-82848374D01*
X126138930Y-109151070D02*
X125203142Y-109151070D01*
D33*
X123346161Y-91263839D02*
X123820000Y-90790000D01*
D34*
X116910063Y-83988374D02*
X116910063Y-83208374D01*
D33*
X117820063Y-84840000D02*
X117820063Y-85371481D01*
X123346161Y-92260000D02*
X123346161Y-91263839D01*
X121466000Y-81647500D02*
X122220000Y-81647500D01*
D32*
X127846175Y-104782240D02*
X127850000Y-104786065D01*
X117700063Y-82808374D02*
X117310063Y-82808374D01*
D34*
X117560063Y-84638374D02*
X116910063Y-83988374D01*
X117820063Y-84840000D02*
X117618437Y-84638374D01*
D32*
X123346161Y-95037481D02*
X123346161Y-94363089D01*
X127850000Y-104786065D02*
X127850000Y-107440000D01*
X123795430Y-95487110D02*
X124855658Y-96547338D01*
D33*
X123346161Y-94363089D02*
X123346161Y-92260000D01*
%TO.N,/LEDS_A*%
D32*
X126956000Y-98647320D02*
X125916750Y-97608070D01*
X126956000Y-99937500D02*
X126956000Y-98647320D01*
%TO.N,/GATE*%
X126956000Y-93587500D02*
X126769000Y-93774500D01*
X124089000Y-91975500D02*
X124302000Y-91762500D01*
X127713000Y-94344500D02*
X126956000Y-93587500D01*
X127713000Y-95417064D02*
X127713000Y-94344500D01*
X126482346Y-97042475D02*
X126482346Y-96647718D01*
X126482346Y-96647718D02*
X127713000Y-95417064D01*
X124302000Y-91762500D02*
X124756000Y-91762500D01*
X126769000Y-93774500D02*
X124456288Y-93774500D01*
X124089000Y-93407212D02*
X124089000Y-91975500D01*
X124456288Y-93774500D02*
X124089000Y-93407212D01*
%TO.N,Net-(Q1-D)*%
D33*
X125456000Y-91987500D02*
X125456000Y-90887500D01*
D34*
X125586000Y-90757500D02*
X125586000Y-89507500D01*
X125616000Y-90747500D02*
X125606000Y-90757500D01*
X125586000Y-89507500D02*
X125616000Y-89477500D01*
D33*
X125456000Y-90887500D02*
X125586000Y-90757500D01*
%TO.N,/LEDS_E*%
D32*
X124078183Y-97891003D02*
X122956000Y-99013186D01*
X122956000Y-99013186D02*
X122956000Y-99937500D01*
%TO.N,/LEDS_D*%
X123956000Y-98578871D02*
X124361025Y-98173846D01*
X123956000Y-99937500D02*
X123956000Y-98578871D01*
%TO.N,/LEDS_C*%
X124956000Y-99937500D02*
X124956000Y-98568821D01*
X124956000Y-98568821D02*
X125350975Y-98173846D01*
%TO.N,/LEDS_B*%
X125956000Y-99937500D02*
X125981528Y-99911972D01*
X125981528Y-98238714D02*
X125633817Y-97891003D01*
X125981528Y-99911972D02*
X125981528Y-98238714D01*
%TO.N,/INDICATOR_LED*%
X127174186Y-98300000D02*
X127610000Y-98300000D01*
X126199503Y-97325317D02*
X127174186Y-98300000D01*
%TO.N,/UPDI_PAD*%
X126974250Y-94625750D02*
X126862500Y-94737500D01*
X126096000Y-94737500D02*
X125633692Y-95199808D01*
X126862500Y-94737500D02*
X126096000Y-94737500D01*
X125633692Y-95199808D02*
X125633692Y-95203872D01*
D33*
X126506000Y-81607500D02*
X125466000Y-81607500D01*
X125466000Y-81607500D02*
X125466000Y-81647500D01*
%TO.N,Net-(LED10-A)*%
D32*
X152232453Y-115496388D02*
X152232453Y-115445944D01*
X182590000Y-92512282D02*
X186497718Y-96420000D01*
X165922059Y-113540500D02*
X171633009Y-113540500D01*
X186497718Y-96420000D02*
X187189723Y-96420000D01*
X144708782Y-112685500D02*
X144472624Y-112685500D01*
X151834340Y-78903003D02*
X153988837Y-81057500D01*
X143213203Y-113944920D02*
X142333420Y-113944920D01*
X186084222Y-89097500D02*
X186881000Y-88300722D01*
X186326000Y-98477500D02*
X185731000Y-97882500D01*
X187626000Y-96856277D02*
X187626000Y-98124277D01*
X187272777Y-98477500D02*
X186326000Y-98477500D01*
X164122953Y-115339606D02*
X165922059Y-113540500D01*
X183412500Y-91221261D02*
X183412500Y-91187500D01*
X151834340Y-78764722D02*
X151834340Y-78903003D01*
X186881000Y-88300722D02*
X186881000Y-88125722D01*
X183412500Y-91187500D02*
X185502500Y-89097500D01*
X173574000Y-114895436D02*
X173868064Y-115189500D01*
X152182009Y-115445944D02*
X149173565Y-112437500D01*
X173868064Y-115189500D02*
X174111347Y-115189500D01*
X142333420Y-114086580D02*
X142333420Y-113944920D01*
X183398727Y-91235034D02*
X183412500Y-91221261D01*
X185731000Y-97882500D02*
X185731000Y-97493833D01*
X140287953Y-116132047D02*
X142333420Y-114086580D01*
X144956783Y-112437500D02*
X144708782Y-112685500D01*
X183358466Y-91235034D02*
X182590000Y-92003500D01*
X124956000Y-100957500D02*
X124956000Y-103437500D01*
X182590000Y-92003500D02*
X182590000Y-92512282D01*
X152232453Y-115445944D02*
X152182009Y-115445944D01*
X187626000Y-98124277D02*
X187272777Y-98477500D01*
X161706000Y-81057500D02*
X162219448Y-81057500D01*
X164283226Y-78993722D02*
X164283226Y-78761166D01*
X172030009Y-113937500D02*
X172859347Y-113937500D01*
X140287953Y-116222944D02*
X140287953Y-116132047D01*
X149173565Y-112437500D02*
X144956783Y-112437500D01*
X174111347Y-115189500D02*
X174315453Y-115393606D01*
X152780453Y-116219388D02*
X152780453Y-116044388D01*
X183398727Y-91235034D02*
X183358466Y-91235034D01*
X153988837Y-81057500D02*
X161706000Y-81057500D01*
X144472624Y-112685500D02*
X143213203Y-113944920D01*
X171633009Y-113540500D02*
X172030009Y-113937500D01*
X152780453Y-116044388D02*
X152232453Y-115496388D01*
X173574000Y-114652153D02*
X173574000Y-114895436D01*
X187189723Y-96420000D02*
X187626000Y-96856277D01*
X162219448Y-81057500D02*
X164283226Y-78993722D01*
X172859347Y-113937500D02*
X173574000Y-114652153D01*
X164122953Y-116219388D02*
X164122953Y-115339606D01*
X185502500Y-89097500D02*
X186084222Y-89097500D01*
X174315453Y-115393606D02*
X174315453Y-116222944D01*
%TO.N,Net-(LED11-C)*%
X184156000Y-110108283D02*
X184156000Y-110457500D01*
X162972953Y-116222944D02*
X162972953Y-115990388D01*
X140710000Y-79684282D02*
X140710000Y-78939269D01*
X172608565Y-113187500D02*
X175465453Y-116044388D01*
X178913000Y-81454500D02*
X184289782Y-81454500D01*
X129838566Y-77987722D02*
X128634566Y-77987722D01*
X175582113Y-78761166D02*
X175582113Y-79502895D01*
X184156000Y-116026944D02*
X185129000Y-116999944D01*
X127206000Y-91195218D02*
X128380000Y-92369218D01*
X185920000Y-79824282D02*
X185920000Y-78953722D01*
X177788500Y-80330000D02*
X178913000Y-81454500D01*
X130386566Y-78761166D02*
X130386566Y-79590504D01*
X185731000Y-106858389D02*
X185731000Y-108533282D01*
X185129000Y-116999944D02*
X186333000Y-116999944D01*
X165775841Y-113187500D02*
X172608565Y-113187500D01*
X185731000Y-108533282D02*
X184156000Y-110108283D01*
X186333000Y-116999944D02*
X186881000Y-116451944D01*
X185920000Y-78953722D02*
X185731000Y-78764722D01*
X131383062Y-80587000D02*
X139807282Y-80587000D01*
X184156000Y-110457500D02*
X184156000Y-116026944D01*
X139807282Y-80587000D02*
X140710000Y-79684282D01*
X128634566Y-77987722D02*
X127206000Y-79416289D01*
X184289782Y-81454500D02*
X185920000Y-79824282D01*
X128380000Y-92369218D02*
X128380000Y-102723436D01*
X186881000Y-116451944D02*
X186881000Y-116219388D01*
X128380000Y-102723436D02*
X127163936Y-103939500D01*
X175582113Y-79502895D02*
X176409218Y-80330000D01*
X162972953Y-115990388D02*
X165775841Y-113187500D01*
X127206000Y-79416289D02*
X127206000Y-91195218D01*
X176409218Y-80330000D02*
X177788500Y-80330000D01*
X140710000Y-78939269D02*
X140535453Y-78764722D01*
X130386566Y-79590504D02*
X131383062Y-80587000D01*
X130386566Y-78761166D02*
X130386566Y-78535722D01*
X175465453Y-116044388D02*
X175465453Y-116219388D01*
X127163936Y-103939500D02*
X124458000Y-103939500D01*
X124458000Y-103939500D02*
X123956000Y-103437500D01*
X123956000Y-100957500D02*
X123956000Y-103437500D01*
X130386566Y-78535722D02*
X129838566Y-77987722D01*
%TO.N,Net-(LED13-C)*%
X121956000Y-102925773D02*
X118826000Y-106055773D01*
X162590230Y-80187500D02*
X161706000Y-80187500D01*
X121010000Y-94712499D02*
X121010000Y-90335444D01*
X152984340Y-79553785D02*
X152984340Y-78761166D01*
X118224000Y-96766499D02*
X118956000Y-96766499D01*
X117676000Y-97547055D02*
X117676000Y-97314499D01*
X119327945Y-107437500D02*
X118826000Y-106935555D01*
X119534999Y-96766499D02*
X119706000Y-96937500D01*
X184865936Y-110457500D02*
X184509000Y-110814436D01*
X119428000Y-77982388D02*
X118224000Y-77982388D01*
X120276000Y-78830388D02*
X119428000Y-77982388D01*
X120006565Y-90137347D02*
X118826000Y-88956782D01*
X124246999Y-107438500D02*
X124245999Y-107437500D01*
X117676000Y-78762944D02*
X117676000Y-78937944D01*
X186881000Y-106854833D02*
X186881000Y-107199000D01*
X119706000Y-98010500D02*
X121956000Y-100260500D01*
X118224000Y-77982388D02*
X117676000Y-78530388D01*
X118956000Y-96766499D02*
X119534999Y-96766499D01*
X163133226Y-78764722D02*
X163133226Y-79644504D01*
X184509000Y-115880726D02*
X184851218Y-116222944D01*
X120276000Y-86053430D02*
X120276000Y-78830388D01*
X121956000Y-100260500D02*
X121956000Y-102925773D01*
X124245999Y-107437500D02*
X119327945Y-107437500D01*
X120811903Y-90137347D02*
X120006565Y-90137347D01*
X121010000Y-90335444D02*
X120811903Y-90137347D01*
X186084000Y-108679500D02*
X184910000Y-109853501D01*
X118826000Y-88151444D02*
X118826000Y-87503430D01*
X118826000Y-88956782D02*
X118826000Y-88151444D01*
X117676000Y-78762944D02*
X117676000Y-78827500D01*
X186881000Y-107199000D02*
X186084000Y-107996000D01*
X118826000Y-106055773D02*
X118826000Y-106935555D01*
X161706000Y-80187500D02*
X161189000Y-80704500D01*
X117676000Y-97314499D02*
X118224000Y-96766499D01*
X184910000Y-109853501D02*
X184910000Y-110457500D01*
X184851218Y-116222944D02*
X185731000Y-116222944D01*
X154135055Y-80704500D02*
X152984340Y-79553785D01*
X122956000Y-100957500D02*
X122956000Y-103437500D01*
X163133226Y-79644504D02*
X162590230Y-80187500D01*
X119706000Y-96937500D02*
X119706000Y-98010500D01*
X117676000Y-78530388D02*
X117676000Y-78762944D01*
X118956000Y-96766499D02*
X121010000Y-94712499D01*
X161189000Y-80704500D02*
X154135055Y-80704500D01*
X118826000Y-87503430D02*
X120276000Y-86053430D01*
X184509000Y-110814436D02*
X184509000Y-115880726D01*
X186084000Y-107996000D02*
X186084000Y-108679500D01*
%TO.N,Net-(LED22-A)*%
X128496027Y-107463973D02*
X125210000Y-110750000D01*
X127610000Y-97280000D02*
X127610000Y-96270000D01*
X128496027Y-104768219D02*
X128496027Y-107463973D01*
X127610000Y-96270000D02*
X127590000Y-96250000D01*
%TO.N,/ANT_A*%
D33*
X117010000Y-81791500D02*
X117010000Y-80990000D01*
X116490000Y-80470000D02*
X116490000Y-80040000D01*
X117465874Y-82247374D02*
X117638935Y-82247374D01*
X117010000Y-80990000D02*
X116490000Y-80470000D01*
X117465874Y-82247374D02*
X117010000Y-81791500D01*
%TO.N,/ANT_B*%
D34*
X118300063Y-82208374D02*
X118300063Y-81790063D01*
D33*
X117810535Y-80059465D02*
X117689947Y-80180053D01*
X117810535Y-80059465D02*
X117810535Y-80830535D01*
X117810535Y-80830535D02*
X117970000Y-80990000D01*
X117970000Y-81460000D02*
X117970000Y-80990000D01*
X118300063Y-81790063D02*
X117970000Y-81460000D01*
%TD*%
%TA.AperFunction,Conductor*%
%TO.N,Net-(LED11-C)*%
G36*
X177586351Y-80128368D02*
G01*
X177704261Y-80303434D01*
X177706041Y-80312210D01*
X177706022Y-80312302D01*
X177664669Y-80515573D01*
X177659662Y-80522997D01*
X177650872Y-80524706D01*
X177649800Y-80524435D01*
X177268619Y-80408522D01*
X177261701Y-80402836D01*
X177260323Y-80397328D01*
X177260323Y-80261800D01*
X177263750Y-80253527D01*
X177267522Y-80251000D01*
X177572150Y-80124103D01*
X177581103Y-80124086D01*
X177586351Y-80128368D01*
G37*
%TD.AperFunction*%
%TD*%
%TA.AperFunction,Conductor*%
%TO.N,Net-(LED1-C)*%
G36*
X120314519Y-90460515D02*
G01*
X120431993Y-90636000D01*
X120433747Y-90644782D01*
X120433737Y-90644834D01*
X120392903Y-90846220D01*
X120387900Y-90853647D01*
X120379111Y-90855362D01*
X120377048Y-90854741D01*
X119957118Y-90684846D01*
X119950734Y-90678566D01*
X119950660Y-90669612D01*
X119953231Y-90665729D01*
X120046722Y-90572238D01*
X120050149Y-90569864D01*
X120299959Y-90456371D01*
X120308906Y-90456070D01*
X120314519Y-90460515D01*
G37*
%TD.AperFunction*%
%TD*%
%TA.AperFunction,Conductor*%
%TO.N,Net-(LED13-C)*%
G36*
X123032051Y-102995250D02*
G01*
X123034786Y-102999559D01*
X123172092Y-103380873D01*
X123171671Y-103389818D01*
X123165048Y-103395845D01*
X123163417Y-103396302D01*
X122958333Y-103438025D01*
X122953668Y-103438025D01*
X122748583Y-103396302D01*
X122741159Y-103391295D01*
X122739450Y-103382505D01*
X122739904Y-103380881D01*
X122877214Y-102999558D01*
X122883241Y-102992936D01*
X122888222Y-102991823D01*
X123023778Y-102991823D01*
X123032051Y-102995250D01*
G37*
%TD.AperFunction*%
%TD*%
%TA.AperFunction,Conductor*%
%TO.N,Net-(LED10-A)*%
G36*
X172086631Y-113721406D02*
G01*
X172467950Y-113858714D01*
X172474573Y-113864741D01*
X172475686Y-113869722D01*
X172475686Y-114005277D01*
X172472259Y-114013550D01*
X172467950Y-114016285D01*
X172086635Y-114153592D01*
X172077690Y-114153171D01*
X172071663Y-114146548D01*
X172071206Y-114144917D01*
X172045037Y-114016285D01*
X172029483Y-113939829D01*
X172029483Y-113935168D01*
X172042798Y-113869722D01*
X172071206Y-113730082D01*
X172076213Y-113722659D01*
X172085003Y-113720950D01*
X172086631Y-113721406D01*
G37*
%TD.AperFunction*%
%TD*%
%TA.AperFunction,Conductor*%
%TO.N,Net-(LED11-C)*%
G36*
X124032051Y-102995250D02*
G01*
X124034786Y-102999559D01*
X124172092Y-103380873D01*
X124171671Y-103389818D01*
X124165048Y-103395845D01*
X124163417Y-103396302D01*
X123958333Y-103438025D01*
X123953668Y-103438025D01*
X123748583Y-103396302D01*
X123741159Y-103391295D01*
X123739450Y-103382505D01*
X123739904Y-103380881D01*
X123877214Y-102999558D01*
X123883241Y-102992936D01*
X123888222Y-102991823D01*
X124023778Y-102991823D01*
X124032051Y-102995250D01*
G37*
%TD.AperFunction*%
%TD*%
%TA.AperFunction,Conductor*%
%TO.N,Net-(LED13-C)*%
G36*
X124199334Y-107222810D02*
G01*
X124205347Y-107229446D01*
X124205795Y-107231053D01*
X124247524Y-107436167D01*
X124247524Y-107440833D01*
X124205807Y-107645888D01*
X124200800Y-107653311D01*
X124192009Y-107655020D01*
X124190354Y-107654554D01*
X123809034Y-107516296D01*
X123802424Y-107510255D01*
X123801322Y-107505297D01*
X123801322Y-107369742D01*
X123804749Y-107361469D01*
X123809082Y-107358725D01*
X124190391Y-107222369D01*
X124199334Y-107222810D01*
G37*
%TD.AperFunction*%
%TD*%
%TA.AperFunction,Conductor*%
%TO.N,Net-(LED1-C)*%
G36*
X177762622Y-81591406D02*
G01*
X178143941Y-81728714D01*
X178150564Y-81734741D01*
X178151677Y-81739722D01*
X178151677Y-81875277D01*
X178148250Y-81883550D01*
X178143941Y-81886285D01*
X177762626Y-82023592D01*
X177753681Y-82023171D01*
X177747654Y-82016548D01*
X177747197Y-82014917D01*
X177721028Y-81886285D01*
X177705474Y-81809829D01*
X177705474Y-81805168D01*
X177718789Y-81739722D01*
X177747197Y-81600082D01*
X177752204Y-81592659D01*
X177760994Y-81590950D01*
X177762622Y-81591406D01*
G37*
%TD.AperFunction*%
%TD*%
%TA.AperFunction,Conductor*%
%TO.N,Net-(LED10-A)*%
G36*
X125032051Y-102995250D02*
G01*
X125034786Y-102999559D01*
X125172092Y-103380873D01*
X125171671Y-103389818D01*
X125165048Y-103395845D01*
X125163417Y-103396302D01*
X124958333Y-103438025D01*
X124953668Y-103438025D01*
X124748583Y-103396302D01*
X124741159Y-103391295D01*
X124739450Y-103382505D01*
X124739904Y-103380881D01*
X124877214Y-102999558D01*
X124883241Y-102992936D01*
X124888222Y-102991823D01*
X125023778Y-102991823D01*
X125032051Y-102995250D01*
G37*
%TD.AperFunction*%
%TD*%
%TA.AperFunction,Conductor*%
%TO.N,Net-(LED11-C)*%
G36*
X184178821Y-109995238D02*
G01*
X184181207Y-109997076D01*
X184275896Y-110091765D01*
X184278802Y-110096587D01*
X184372859Y-110401239D01*
X184372026Y-110410154D01*
X184365131Y-110415869D01*
X184363991Y-110416160D01*
X184160090Y-110457240D01*
X184151303Y-110455514D01*
X184151236Y-110455470D01*
X183977997Y-110338620D01*
X183973055Y-110331153D01*
X183974429Y-110323033D01*
X184162825Y-109999459D01*
X184169947Y-109994037D01*
X184178821Y-109995238D01*
G37*
%TD.AperFunction*%
%TD*%
%TA.AperFunction,Conductor*%
%TO.N,Net-(LED22-A)*%
G36*
X128703444Y-104809416D02*
G01*
X128710867Y-104814423D01*
X128712576Y-104823214D01*
X128712119Y-104824845D01*
X128574813Y-105206160D01*
X128568786Y-105212783D01*
X128563805Y-105213896D01*
X128428249Y-105213896D01*
X128419976Y-105210469D01*
X128417241Y-105206160D01*
X128279934Y-104824845D01*
X128280355Y-104815900D01*
X128286978Y-104809873D01*
X128288605Y-104809417D01*
X128493697Y-104767693D01*
X128498357Y-104767693D01*
X128703444Y-104809416D01*
G37*
%TD.AperFunction*%
%TD*%
%TA.AperFunction,Conductor*%
%TO.N,Net-(LED1-C)*%
G36*
X144975319Y-112826538D02*
G01*
X145069066Y-112920285D01*
X145072493Y-112928558D01*
X145071380Y-112933539D01*
X144898841Y-113300258D01*
X144892218Y-113306285D01*
X144883273Y-113305864D01*
X144881796Y-113305033D01*
X144707277Y-113189520D01*
X144703979Y-113186222D01*
X144588466Y-113011703D01*
X144586757Y-113002912D01*
X144591764Y-112995489D01*
X144593237Y-112994659D01*
X144660288Y-112963112D01*
X144665269Y-112962000D01*
X144763779Y-112962000D01*
X144763780Y-112962000D01*
X144763781Y-112962000D01*
X144805875Y-112944564D01*
X144865406Y-112919906D01*
X144958775Y-112826536D01*
X144967046Y-112823111D01*
X144975319Y-112826538D01*
G37*
%TD.AperFunction*%
%TD*%
%TA.AperFunction,Conductor*%
%TO.N,Net-(LED22-A)*%
G36*
X127798002Y-96291316D02*
G01*
X127805425Y-96296323D01*
X127807134Y-96305114D01*
X127806843Y-96306249D01*
X127688554Y-96687445D01*
X127682830Y-96694330D01*
X127677380Y-96695677D01*
X127541849Y-96695677D01*
X127533576Y-96692250D01*
X127531023Y-96688414D01*
X127374685Y-96306978D01*
X127374718Y-96298023D01*
X127381074Y-96291715D01*
X127383174Y-96291076D01*
X127587670Y-96249474D01*
X127592330Y-96249474D01*
X127798002Y-96291316D01*
G37*
%TD.AperFunction*%
%TD*%
%TA.AperFunction,Conductor*%
%TO.N,Net-(LED10-A)*%
G36*
X142124465Y-113903311D02*
G01*
X142329316Y-113943274D01*
X142336780Y-113948222D01*
X142336832Y-113948300D01*
X142452483Y-114123027D01*
X142454192Y-114131818D01*
X142449977Y-114138668D01*
X142167497Y-114361701D01*
X142158881Y-114364138D01*
X142151974Y-114360791D01*
X142056122Y-114264939D01*
X142052695Y-114256666D01*
X142052859Y-114254713D01*
X142075155Y-114123027D01*
X142110740Y-113912850D01*
X142115500Y-113905267D01*
X142124229Y-113903269D01*
X142124465Y-113903311D01*
G37*
%TD.AperFunction*%
%TD*%
%TA.AperFunction,Conductor*%
%TO.N,Net-(LED11-C)*%
G36*
X174098338Y-114636267D02*
G01*
X174104629Y-114642640D01*
X174104571Y-114651594D01*
X174102064Y-114655320D01*
X174067354Y-114690031D01*
X174067353Y-114690031D01*
X174052170Y-114705215D01*
X174038659Y-114718726D01*
X174031002Y-114722137D01*
X173924720Y-114727737D01*
X173916278Y-114724750D01*
X173912420Y-114716669D01*
X173915407Y-114708227D01*
X173919692Y-114705217D01*
X174089386Y-114636209D01*
X174098338Y-114636267D01*
G37*
%TD.AperFunction*%
%TD*%
%TA.AperFunction,Conductor*%
%TO.N,VCC*%
G36*
X123647731Y-89411525D02*
G01*
X123655285Y-89416333D01*
X123657404Y-89423048D01*
X123657404Y-89703405D01*
X123653977Y-89711678D01*
X123647731Y-89714928D01*
X123266842Y-89781930D01*
X123258100Y-89779988D01*
X123253350Y-89772740D01*
X123211201Y-89565556D01*
X123211201Y-89560895D01*
X123241243Y-89413227D01*
X123253351Y-89353712D01*
X123258357Y-89346290D01*
X123266840Y-89344523D01*
X123647731Y-89411525D01*
G37*
%TD.AperFunction*%
%TD*%
%TA.AperFunction,Conductor*%
%TO.N,GND*%
G36*
X128053705Y-104823460D02*
G01*
X128061128Y-104828467D01*
X128062837Y-104837258D01*
X128062413Y-104838796D01*
X127928745Y-105220088D01*
X127922774Y-105226761D01*
X127917704Y-105227917D01*
X127782149Y-105227917D01*
X127773876Y-105224490D01*
X127771175Y-105220273D01*
X127630229Y-104838935D01*
X127630575Y-104829987D01*
X127637147Y-104823905D01*
X127638866Y-104823415D01*
X127843845Y-104781714D01*
X127848505Y-104781714D01*
X128053705Y-104823460D01*
G37*
%TD.AperFunction*%
%TD*%
%TA.AperFunction,Conductor*%
%TO.N,Net-(LED1-C)*%
G36*
X144587518Y-113010289D02*
G01*
X144588518Y-113011570D01*
X144703970Y-113182737D01*
X144705755Y-113191512D01*
X144705740Y-113191590D01*
X144664126Y-113398143D01*
X144659132Y-113405576D01*
X144651891Y-113407507D01*
X144379823Y-113389679D01*
X144372315Y-113386277D01*
X144276673Y-113290635D01*
X144273246Y-113282362D01*
X144276673Y-113274089D01*
X144277090Y-113273692D01*
X144570996Y-113009411D01*
X144579438Y-113006428D01*
X144587518Y-113010289D01*
G37*
%TD.AperFunction*%
%TD*%
%TA.AperFunction,Conductor*%
%TO.N,Net-(LED1-A)*%
G36*
X127032051Y-102995250D02*
G01*
X127034786Y-102999559D01*
X127172092Y-103380873D01*
X127171671Y-103389818D01*
X127165048Y-103395845D01*
X127163417Y-103396302D01*
X126958333Y-103438025D01*
X126953668Y-103438025D01*
X126748583Y-103396302D01*
X126741159Y-103391295D01*
X126739450Y-103382505D01*
X126739904Y-103380881D01*
X126877214Y-102999558D01*
X126883241Y-102992936D01*
X126888222Y-102991823D01*
X127023778Y-102991823D01*
X127032051Y-102995250D01*
G37*
%TD.AperFunction*%
%TD*%
%TA.AperFunction,Conductor*%
%TO.N,Net-(LED1-C)*%
G36*
X177659090Y-81591100D02*
G01*
X177664407Y-81598306D01*
X177664520Y-81598809D01*
X177705740Y-81803409D01*
X177704014Y-81812196D01*
X177703970Y-81812263D01*
X177587483Y-81984963D01*
X177580015Y-81989905D01*
X177571323Y-81988175D01*
X177566472Y-81984963D01*
X177255768Y-81779216D01*
X177250763Y-81771792D01*
X177252474Y-81763002D01*
X177253951Y-81761194D01*
X177349013Y-81666132D01*
X177354467Y-81663051D01*
X177650238Y-81589763D01*
X177659090Y-81591100D01*
G37*
%TD.AperFunction*%
%TD*%
%TA.AperFunction,Conductor*%
%TO.N,Net-(LED13-C)*%
G36*
X161762622Y-79971406D02*
G01*
X162143941Y-80108714D01*
X162150564Y-80114741D01*
X162151677Y-80119722D01*
X162151677Y-80255277D01*
X162148250Y-80263550D01*
X162143941Y-80266285D01*
X161762626Y-80403592D01*
X161753681Y-80403171D01*
X161747654Y-80396548D01*
X161747197Y-80394917D01*
X161721028Y-80266285D01*
X161705474Y-80189829D01*
X161705474Y-80185168D01*
X161718789Y-80119722D01*
X161747197Y-79980082D01*
X161752204Y-79972659D01*
X161760994Y-79970950D01*
X161762622Y-79971406D01*
G37*
%TD.AperFunction*%
%TD*%
%TA.AperFunction,Conductor*%
%TO.N,Net-(LED10-A)*%
G36*
X171776048Y-113572119D02*
G01*
X172142767Y-113744658D01*
X172148794Y-113751281D01*
X172148373Y-113760226D01*
X172147542Y-113761703D01*
X172032029Y-113936222D01*
X172028731Y-113939520D01*
X171854212Y-114055033D01*
X171845421Y-114056742D01*
X171837998Y-114051735D01*
X171837167Y-114050258D01*
X171664628Y-113683539D01*
X171664207Y-113674594D01*
X171666940Y-113670287D01*
X171762795Y-113574432D01*
X171771067Y-113571006D01*
X171776048Y-113572119D01*
G37*
%TD.AperFunction*%
%TD*%
%TA.AperFunction,Conductor*%
%TO.N,Net-(LED10-A)*%
G36*
X142390042Y-113728826D02*
G01*
X142771361Y-113866134D01*
X142777984Y-113872161D01*
X142779097Y-113877142D01*
X142779097Y-114009720D01*
X142775670Y-114017993D01*
X142767397Y-114021420D01*
X142635354Y-114021420D01*
X142533732Y-114063514D01*
X142533729Y-114063516D01*
X142464072Y-114133172D01*
X142459763Y-114135907D01*
X142390046Y-114161012D01*
X142381101Y-114160591D01*
X142375074Y-114153968D01*
X142374617Y-114152337D01*
X142332894Y-113947249D01*
X142332894Y-113942588D01*
X142346209Y-113877142D01*
X142374617Y-113737502D01*
X142379624Y-113730079D01*
X142388414Y-113728370D01*
X142390042Y-113728826D01*
G37*
%TD.AperFunction*%
%TD*%
%TA.AperFunction,Conductor*%
%TO.N,Net-(LED1-A)*%
G36*
X126223214Y-107074433D02*
G01*
X126319066Y-107170285D01*
X126322493Y-107178558D01*
X126321380Y-107183539D01*
X126148841Y-107550258D01*
X126142218Y-107556285D01*
X126133273Y-107555864D01*
X126131796Y-107555033D01*
X125957277Y-107439520D01*
X125953979Y-107436222D01*
X125838466Y-107261703D01*
X125836757Y-107252912D01*
X125841764Y-107245489D01*
X125843237Y-107244659D01*
X126209961Y-107072118D01*
X126218905Y-107071698D01*
X126223214Y-107074433D01*
G37*
%TD.AperFunction*%
%TD*%
%TA.AperFunction,Conductor*%
%TO.N,Net-(LED10-A)*%
G36*
X183649398Y-90855423D02*
G01*
X183745234Y-90951259D01*
X183748661Y-90959532D01*
X183747795Y-90963948D01*
X183623035Y-91270019D01*
X183616739Y-91276387D01*
X183609961Y-91277086D01*
X183544757Y-91264366D01*
X183402830Y-91236679D01*
X183395366Y-91231731D01*
X183395314Y-91231653D01*
X183280800Y-91058644D01*
X183279091Y-91049853D01*
X183284098Y-91042430D01*
X183284995Y-91041892D01*
X183446809Y-90954890D01*
X183447828Y-90954407D01*
X183531125Y-90919905D01*
X183552300Y-90898729D01*
X183555013Y-90896712D01*
X183635586Y-90853390D01*
X183644494Y-90852492D01*
X183649398Y-90855423D01*
G37*
%TD.AperFunction*%
%TD*%
%TA.AperFunction,Conductor*%
%TO.N,VCC*%
G36*
X124772622Y-92931406D02*
G01*
X125153941Y-93068714D01*
X125160564Y-93074741D01*
X125161677Y-93079722D01*
X125161677Y-93215277D01*
X125158250Y-93223550D01*
X125153941Y-93226285D01*
X124772626Y-93363592D01*
X124763681Y-93363171D01*
X124757654Y-93356548D01*
X124757197Y-93354917D01*
X124731028Y-93226285D01*
X124715474Y-93149829D01*
X124715474Y-93145168D01*
X124728789Y-93079722D01*
X124757197Y-92940082D01*
X124762204Y-92932659D01*
X124770994Y-92930950D01*
X124772622Y-92931406D01*
G37*
%TD.AperFunction*%
%TD*%
%TA.AperFunction,Conductor*%
%TO.N,Net-(LED11-C)*%
G36*
X124148010Y-103323264D02*
G01*
X124148841Y-103324741D01*
X124321380Y-103691460D01*
X124321801Y-103700405D01*
X124319066Y-103704714D01*
X124223214Y-103800566D01*
X124214941Y-103803993D01*
X124209960Y-103802880D01*
X123843241Y-103630341D01*
X123837214Y-103623718D01*
X123837635Y-103614773D01*
X123838466Y-103613296D01*
X123953981Y-103438774D01*
X123957274Y-103435481D01*
X124131797Y-103319965D01*
X124140587Y-103318257D01*
X124148010Y-103323264D01*
G37*
%TD.AperFunction*%
%TD*%
%TA.AperFunction,Conductor*%
%TO.N,Net-(LED11-C)*%
G36*
X184363417Y-110498697D02*
G01*
X184370840Y-110503704D01*
X184372549Y-110512495D01*
X184372092Y-110514126D01*
X184347575Y-110582211D01*
X184346778Y-110583958D01*
X184345453Y-110586327D01*
X184343515Y-110588889D01*
X184274596Y-110657809D01*
X184274594Y-110657812D01*
X184232500Y-110759434D01*
X184232500Y-110891477D01*
X184229073Y-110899750D01*
X184220800Y-110903177D01*
X184088222Y-110903177D01*
X184079949Y-110899750D01*
X184077214Y-110895441D01*
X184028239Y-110759434D01*
X183939907Y-110514125D01*
X183940328Y-110505181D01*
X183946951Y-110499154D01*
X183948578Y-110498698D01*
X184153670Y-110456974D01*
X184158330Y-110456974D01*
X184363417Y-110498697D01*
G37*
%TD.AperFunction*%
%TD*%
%TA.AperFunction,Conductor*%
%TO.N,/UPDI_PAD*%
G36*
X126855778Y-94448401D02*
G01*
X126856174Y-94448954D01*
X126972511Y-94621684D01*
X126974291Y-94630460D01*
X126974272Y-94630552D01*
X126932438Y-94836186D01*
X126927431Y-94843610D01*
X126919946Y-94845509D01*
X126567352Y-94814440D01*
X126559412Y-94810300D01*
X126556679Y-94802785D01*
X126556679Y-94667296D01*
X126560106Y-94659023D01*
X126561290Y-94657988D01*
X126603617Y-94625750D01*
X126839383Y-94446181D01*
X126848039Y-94443896D01*
X126855778Y-94448401D01*
G37*
%TD.AperFunction*%
%TD*%
%TA.AperFunction,Conductor*%
%TO.N,Net-(LED1-A)*%
G36*
X131148010Y-112323264D02*
G01*
X131148841Y-112324741D01*
X131321380Y-112691460D01*
X131321801Y-112700405D01*
X131319066Y-112704714D01*
X131223214Y-112800566D01*
X131214941Y-112803993D01*
X131209960Y-112802880D01*
X130843241Y-112630341D01*
X130837214Y-112623718D01*
X130837635Y-112614773D01*
X130838466Y-112613296D01*
X130953981Y-112438774D01*
X130957274Y-112435481D01*
X131131797Y-112319965D01*
X131140587Y-112318257D01*
X131148010Y-112323264D01*
G37*
%TD.AperFunction*%
%TD*%
%TA.AperFunction,Conductor*%
%TO.N,Net-(LED1-C)*%
G36*
X131171661Y-113148070D02*
G01*
X131176603Y-113155538D01*
X131176817Y-113157653D01*
X131180882Y-113563767D01*
X131177539Y-113572074D01*
X131169300Y-113575583D01*
X131169183Y-113575584D01*
X131033886Y-113575584D01*
X131025613Y-113572157D01*
X131025566Y-113572110D01*
X130778846Y-113322545D01*
X130775466Y-113314252D01*
X130778940Y-113305999D01*
X130780627Y-113304617D01*
X130954032Y-113187825D01*
X130958328Y-113186047D01*
X131162887Y-113146285D01*
X131171661Y-113148070D01*
G37*
%TD.AperFunction*%
%TD*%
%TA.AperFunction,Conductor*%
%TO.N,Net-(LED13-C)*%
G36*
X184732686Y-110339001D02*
G01*
X184733432Y-110339456D01*
X184906619Y-110454087D01*
X184911626Y-110461510D01*
X184911645Y-110461603D01*
X184952016Y-110668548D01*
X184950236Y-110677324D01*
X184944740Y-110681705D01*
X184633668Y-110801612D01*
X184624716Y-110801390D01*
X184621187Y-110798968D01*
X184525346Y-110703127D01*
X184521919Y-110694854D01*
X184523407Y-110689145D01*
X184716764Y-110343498D01*
X184723793Y-110337953D01*
X184732686Y-110339001D01*
G37*
%TD.AperFunction*%
%TD*%
%TA.AperFunction,Conductor*%
%TO.N,Net-(LED1-A)*%
G36*
X182123417Y-91805197D02*
G01*
X182130840Y-91810204D01*
X182132549Y-91818995D01*
X182132092Y-91820626D01*
X181994786Y-92201941D01*
X181988759Y-92208564D01*
X181983778Y-92209677D01*
X181848222Y-92209677D01*
X181839949Y-92206250D01*
X181837214Y-92201941D01*
X181699907Y-91820626D01*
X181700328Y-91811681D01*
X181706951Y-91805654D01*
X181708578Y-91805198D01*
X181913670Y-91763474D01*
X181918330Y-91763474D01*
X182123417Y-91805197D01*
G37*
%TD.AperFunction*%
%TD*%
%TA.AperFunction,Conductor*%
%TO.N,Net-(LED1-A)*%
G36*
X181972690Y-91548012D02*
G01*
X182286280Y-91662932D01*
X182290526Y-91665645D01*
X182384760Y-91759879D01*
X182388187Y-91768152D01*
X182384760Y-91776425D01*
X182381771Y-91778591D01*
X182050214Y-91946418D01*
X182041285Y-91947097D01*
X182035230Y-91942522D01*
X181918029Y-91768763D01*
X181916244Y-91759987D01*
X181916245Y-91759979D01*
X181957202Y-91556686D01*
X181962195Y-91549256D01*
X181970982Y-91547530D01*
X181972690Y-91548012D01*
G37*
%TD.AperFunction*%
%TD*%
%TA.AperFunction,Conductor*%
%TO.N,Net-(LED1-A)*%
G36*
X125778726Y-107319135D02*
G01*
X125780203Y-107319966D01*
X125954722Y-107435479D01*
X125958020Y-107438777D01*
X126073533Y-107613296D01*
X126075242Y-107622087D01*
X126070235Y-107629510D01*
X126068758Y-107630341D01*
X125702039Y-107802880D01*
X125693094Y-107803301D01*
X125688785Y-107800566D01*
X125592933Y-107704714D01*
X125589506Y-107696441D01*
X125590619Y-107691460D01*
X125619376Y-107630341D01*
X125763158Y-107324740D01*
X125769781Y-107318714D01*
X125778726Y-107319135D01*
G37*
%TD.AperFunction*%
%TD*%
%TA.AperFunction,Conductor*%
%TO.N,Net-(LED10-A)*%
G36*
X161658318Y-80841828D02*
G01*
X161664345Y-80848451D01*
X161664802Y-80850083D01*
X161706525Y-81055168D01*
X161706525Y-81059833D01*
X161664802Y-81264917D01*
X161659795Y-81272340D01*
X161651004Y-81274049D01*
X161649373Y-81273592D01*
X161268059Y-81136285D01*
X161261436Y-81130258D01*
X161260323Y-81125277D01*
X161260323Y-80989722D01*
X161263750Y-80981449D01*
X161268057Y-80978714D01*
X161649374Y-80841407D01*
X161658318Y-80841828D01*
G37*
%TD.AperFunction*%
%TD*%
%TA.AperFunction,Conductor*%
%TO.N,Net-(LED11-C)*%
G36*
X177899053Y-80192573D02*
G01*
X177899355Y-80193054D01*
X178100234Y-80531081D01*
X178101515Y-80539944D01*
X178098449Y-80545331D01*
X178002611Y-80641169D01*
X177994338Y-80644596D01*
X177990448Y-80643930D01*
X177671633Y-80531536D01*
X177664970Y-80525554D01*
X177664039Y-80518262D01*
X177704354Y-80311601D01*
X177709301Y-80304139D01*
X177882841Y-80189274D01*
X177891630Y-80187566D01*
X177899053Y-80192573D01*
G37*
%TD.AperFunction*%
%TD*%
%TA.AperFunction,Conductor*%
%TO.N,VCC*%
G36*
X122089618Y-94151825D02*
G01*
X122306375Y-94461119D01*
X122311570Y-94468531D01*
X122313512Y-94477273D01*
X122310262Y-94483519D01*
X122112019Y-94681762D01*
X122103746Y-94685189D01*
X122097031Y-94683070D01*
X121803376Y-94477273D01*
X121780325Y-94461118D01*
X121775518Y-94453565D01*
X121777284Y-94445081D01*
X121893981Y-94268774D01*
X121897274Y-94265481D01*
X122073581Y-94148784D01*
X122082371Y-94147076D01*
X122089618Y-94151825D01*
G37*
%TD.AperFunction*%
%TD*%
%TA.AperFunction,Conductor*%
%TO.N,Net-(LED1-C)*%
G36*
X126032051Y-102995250D02*
G01*
X126034786Y-102999559D01*
X126172092Y-103380873D01*
X126171671Y-103389818D01*
X126165048Y-103395845D01*
X126163417Y-103396302D01*
X125958333Y-103438025D01*
X125953668Y-103438025D01*
X125748583Y-103396302D01*
X125741159Y-103391295D01*
X125739450Y-103382505D01*
X125739904Y-103380881D01*
X125877214Y-102999558D01*
X125883241Y-102992936D01*
X125888222Y-102991823D01*
X126023778Y-102991823D01*
X126032051Y-102995250D01*
G37*
%TD.AperFunction*%
%TD*%
%TA.AperFunction,Conductor*%
%TO.N,Net-(LED13-C)*%
G36*
X184986051Y-110015250D02*
G01*
X184988786Y-110019559D01*
X185126092Y-110400873D01*
X185125671Y-110409818D01*
X185119048Y-110415845D01*
X185117417Y-110416302D01*
X184912333Y-110458025D01*
X184907668Y-110458025D01*
X184702583Y-110416302D01*
X184695159Y-110411295D01*
X184693450Y-110402505D01*
X184693904Y-110400881D01*
X184831214Y-110019558D01*
X184837241Y-110012936D01*
X184842222Y-110011823D01*
X184977778Y-110011823D01*
X184986051Y-110015250D01*
G37*
%TD.AperFunction*%
%TD*%
%TA.AperFunction,Conductor*%
%TO.N,Net-(LED13-C)*%
G36*
X161528726Y-80069135D02*
G01*
X161530203Y-80069966D01*
X161704722Y-80185479D01*
X161708020Y-80188777D01*
X161823533Y-80363296D01*
X161825242Y-80372087D01*
X161820235Y-80379510D01*
X161818758Y-80380341D01*
X161452039Y-80552880D01*
X161443094Y-80553301D01*
X161438785Y-80550566D01*
X161342933Y-80454714D01*
X161339506Y-80446441D01*
X161340619Y-80441460D01*
X161369376Y-80380341D01*
X161513158Y-80074740D01*
X161519781Y-80068714D01*
X161528726Y-80069135D01*
G37*
%TD.AperFunction*%
%TD*%
%TA.AperFunction,Conductor*%
%TO.N,Net-(LED10-A)*%
G36*
X183221416Y-91116543D02*
G01*
X183222221Y-91117030D01*
X183301547Y-91169536D01*
X183395346Y-91231621D01*
X183400353Y-91239044D01*
X183400372Y-91239137D01*
X183440757Y-91446151D01*
X183438977Y-91454927D01*
X183433558Y-91459278D01*
X183124331Y-91580976D01*
X183115377Y-91580817D01*
X183111773Y-91578362D01*
X183015934Y-91482523D01*
X183012507Y-91474250D01*
X183013960Y-91468603D01*
X183051911Y-91399765D01*
X183053872Y-91397157D01*
X183138405Y-91312625D01*
X183180500Y-91210999D01*
X183180500Y-91169536D01*
X183181954Y-91163887D01*
X183205521Y-91121140D01*
X183212516Y-91115550D01*
X183221416Y-91116543D01*
G37*
%TD.AperFunction*%
%TD*%
%TA.AperFunction,Conductor*%
%TO.N,Net-(LED10-A)*%
G36*
X161762622Y-80841406D02*
G01*
X162143941Y-80978714D01*
X162150564Y-80984741D01*
X162151677Y-80989722D01*
X162151677Y-81125277D01*
X162148250Y-81133550D01*
X162143941Y-81136285D01*
X161762626Y-81273592D01*
X161753681Y-81273171D01*
X161747654Y-81266548D01*
X161747197Y-81264917D01*
X161721028Y-81136285D01*
X161705474Y-81059829D01*
X161705474Y-81055168D01*
X161718789Y-80989722D01*
X161747197Y-80850082D01*
X161752204Y-80842659D01*
X161760994Y-80840950D01*
X161762622Y-80841406D01*
G37*
%TD.AperFunction*%
%TD*%
M02*
