M48
; DRILL file KiCad 10.0.3 date 2026-09-18T14:11:52
; FORMAT={-:-/ absolute / metric / decimal}
; #@! TF.CreationDate,2026-09-18T14:11:52+09:00
; #@! TF.GenerationSoftware,Kicad,Pcbnew,10.0.3
; #@! TF.FileFunction,Plated,1,2,PTH
FMAT,2
METRIC
; #@! TA.AperFunction,Plated,PTH,ViaDrill
T1C0.300
%
G90
G05
T1
X113.771Y-71.552
X115.181Y-77.403
X116.49Y-80.04
X117.811Y-80.059
X118.732Y-86.284
X119.296Y-85.647
X120.434Y-90.639
X121.466Y-81.647
X121.896Y-94.267
X122.956Y-103.438
X123.212Y-89.563
X123.82Y-90.79
X123.956Y-103.438
X124.247Y-107.438
X124.716Y-93.147
X124.956Y-103.438
X125.956Y-103.438
X125.956Y-107.438
X126.506Y-81.608
X126.956Y-103.438
X126.974Y-94.626
X127.59Y-96.25
X127.846Y-104.782
X128.496Y-104.768
X130.956Y-112.438
X130.956Y-113.188
X142.333Y-113.945
X144.706Y-113.188
X161.706Y-80.188
X161.706Y-81.057
X172.03Y-113.938
X174.076Y-114.688
X177.706Y-80.307
X177.706Y-81.807
X181.916Y-91.764
X183.399Y-91.235
X184.156Y-110.457
X184.91Y-110.457
M30
